<mxfile host="Electron" agent="Mozilla/5.0 (X11; Linux x86_64) AppleWebKit/537.36 (KHTML, like Gecko) draw.io/27.0.5 Chrome/134.0.6998.205 Electron/35.3.0 Safari/537.36" version="27.0.5" pages="7">
  <diagram id="WWsvEQTxJBiVV8eBVcPl" name="Basic Setup">
    <mxGraphModel dx="1358" dy="848" grid="1" gridSize="10" guides="1" tooltips="1" connect="1" arrows="1" fold="1" page="1" pageScale="1" pageWidth="827" pageHeight="1169" math="0" shadow="0">
      <root>
        <mxCell id="0" />
        <mxCell id="1" parent="0" />
        <mxCell id="IzhrJvGlJOnqOUi5HswU-1" value="" style="shape=image;verticalLabelPosition=bottom;labelBackgroundColor=default;verticalAlign=top;aspect=fixed;imageAspect=0;image=https://www.sensorwebben.se/img/sensor.jpg;" parent="1" vertex="1">
          <mxGeometry x="50" y="210" width="88.7" height="81.19" as="geometry" />
        </mxCell>
        <mxCell id="IzhrJvGlJOnqOUi5HswU-2" value="" style="image;aspect=fixed;perimeter=ellipsePerimeter;html=1;align=center;shadow=0;dashed=0;spacingTop=3;image=img/lib/active_directory/internet_globe.svg;" parent="1" vertex="1">
          <mxGeometry x="610" y="32.25" width="117.75" height="117.75" as="geometry" />
        </mxCell>
        <mxCell id="IzhrJvGlJOnqOUi5HswU-3" value="" style="html=1;verticalLabelPosition=bottom;align=center;labelBackgroundColor=#ffffff;verticalAlign=top;strokeWidth=2;strokeColor=#0080F0;shadow=0;dashed=0;shape=mxgraph.ios7.icons.home;" parent="1" vertex="1">
          <mxGeometry x="111.45" y="53.88" width="140" height="96.12" as="geometry" />
        </mxCell>
        <mxCell id="IzhrJvGlJOnqOUi5HswU-4" value="" style="shape=image;verticalLabelPosition=bottom;labelBackgroundColor=default;verticalAlign=top;aspect=fixed;imageAspect=0;image=data:image/png,iVBORw0KGgoAAAANSUhEUgAAAfQAAAH0CAYAAADL1t+KAAAACXBIWXMAAAsTAAALEwEAmpwYAAAAAXNSR0IArs4c6QAAAARnQU1BAACxjwv8YQUAADbISURBVHgB7d1JjFXXgf/x815NULjbhdR4YVqiLBH+UrMAy5MURwGLNFk4MrGsdjobSJs97qbXppPyOijNniR4Ezkt5IDiRfwPMkTxIo4tg2S8sJFcSI0XtiUX3RRDDe/1+93iQgFVdc+dz/D9SOUyUBR17zvv/O6ZO6ZBE2/1J2bnZycXe2Z3t2O29E1nsm/6O/VnHWMmDQAAnukbMz34NNPpDD765nyvby53h/rnF/7pb86aBnVMzda9dWNy7tbiDztds88ovPudCQMAQAw65uzgvydGFofO3vzx+mlTo1oCXS3x/7k1+5MkxPtmtwEAIHa3w33x5Yd+bWpQaaAnQb5w/dVOv/evtMQBAFjRdL/b+fXoQvdEla32SgKdIAcAILck2Hv/tOFnpgKlA334v/53d7/X+ZVhUhsAAEVMD9L4Z2W74gsHetIqn5v9j8E3+FcDAABKGeTpLxZG539mXtw4YwooFOjrfnNjcr67+K6hVQ4AQJWmR3pDzxUZW++anIbenP3h/NDCR4YwBwCgamowfzT05v/80OSUK9C7v73+qjH9t5j4BgBAbQYZ232r+1+z/5HnL1kHur5xp9/7hQEAALXr9Po/zRPqVmPoSZgPvrEBAACN6vfNv/X++aHMBnVmoGvMPOlmBwAALem9uPijv/3dWl+xZqAns9k1AY4xcwAA2jQz0ht6fK3Z76uOoWudebI0jTAHAKBtS5n81jerZvKqga5NYwxL0wAAcMXk8NzIqpPkVuxyH/rttZ+YvvmVAQAATun0+s8t/PjBs9ZXbqH3Ta61bwAAoBn9budXK3W9PxDot9e8TRoAAOCiQdf78APnqNzT5c4e7QAAeGFmcXT+seUHudzTQp8b7h0whDkAAK6buL+Vfk+gDwbaf2IAAIDz+qbz6vKx9DuBnsxsp3UOAIAvJkZujfwk/cXyFvoBAwAAvNHrmn3p/yeT4m5PhvvcAAAAr4z0hh7TlrBJC31+aHG3AQAA3lnsLP5Qn9Mud7rbAQDwUNrtnnS5D715rW8AAICPkjXp3eH/+t/dBgAA+GpiZH5ksttZ7Ow0AADAXz2zu9s3/UkDAAC8pSzv9rudHQYAAHirb8wg0PtmwgAAAH91Oju0bI1ABwDAc90O+7cDAOC7ya4BAADeI9ABAAgAgQ4AQAAIdAAAAkCgAwAQAAIdAIAAEOgAAASAQAcAIAAEOgAAASDQAQAIAIEOAEAACHQAAAJAoAMAEAACHQCAABDoAAAEgEAHACAABDoAAAEg0AEACACBDgBAAAh0AAACQKADABAAAh0AgAAQ6AAABIBABwAgAAQ6AAABINABAAgAgQ4AQAAIdAAAAkCgAwAQAAIdAIAAEOgAAASAQAcAIAAEOgAAASDQAQAIAIEOAEAAhg2AoEyMdMy+zUPmhcHHjomumdxw97n9wjc9M329Z05fWTQnphcMgHB0ht681jcAgnBo27A5sn00CfUs07N98/rFOYIdCASBDgRAAX7y2TGz65Ehk9epKwvm4PtzZmaeqgDwGWPogOcmN3TMB3vXFQpz2bd5ePD315vJ8exWPQB3EeiAxxTmf9y97p5x8sLf5zlCHfAZgQ54St3sVYR5ilAH/EagAx5SmJ+pMMxThDrgLwId8Ewa5js21vP2VaiffHad1Ux5AO4g0AGP1B3mKX1//TuEOuAPAh3wRFNhniLUAb8Q6IAHmg7zFKEO+INABxzXVpinCHXADwQ64LC2wzxFqAPuI9ABR7kS5ilCHXAbgQ44yLUwTxHqgLsIdMAxroZ5ilAH3ESgA445/vSos2GeItQB9xDogEN++fRYcvqZDwh1wC0EOuAIhfn+ST/CPEWoA+4g0AEH+BjmKUIdcAOBDrTM5zBPEepA+wh0oEUhhHmKUAfaRaADLQkpzFOEOtAeAh1oQYhhniLUgXYQ6EDDQg7zlEL95LNjBkBzCHSgQTGEeWrXI0Pm+FOEOtAUAh1oSExhnjrw2DChDjSEQAcacGT7SHRhniLUgWYQ6EDNFOZHto+amBHqQP0IdKBGhPldhDpQLwIdqAlh/iBCHagPgQ7UgDBfHaEO1INABypGmGcj1IHqEehAhQhze4Q6UC0CHagIYZ4foQ5Uh0AHKkCYF0eoA9Ug0IGSCPPyCHWgPAIdKIEwrw6hDpRDoAMFEebVI9SB4gh0oADCvD6EOlAMgQ7kRJjXj1AH8iPQgRwI8+YQ6kA+BDpgiTBvnkL96E7uOWCDQAcsEObtObRtJLn/ANZGoAMZCPP26f4T6sDaCHRgDYS5Owh1YG0EOrAKwtw9hDqwOgIdWAFh7i5CHVgZgQ7chzB3H6EOPIhAB5Y5MDlMmHuCUAfuRaADtynMjz/NRiY+IdSBuwh0wBDmPiPUgSUEOqJHmPuPUAcIdESOMA8HoY7YEeiIFmEeHkIdMSPQESXCPFyEOmJFoCM6hHn4CHXEiEBHVAjzeBDqiA2BjmgQ5vEh1BETAh1R2PXIEGEeKUIdsSDQEbwdE11z8lnCPGaEOmJAoCNoCvMzz60zEyMdg7gR6ggdgY5gEea4H6GOkBHoCBJhjtUQ6ggVgY7gEObIQqgjRAQ6gkKYwxahjtAQ6AgGYY68CHWEhEBHEAhzFEWoIxQEOrxHmKMsQh0hINDhNcIcVSHU4TsCHd6a3NBJdoAjzFEVQh0+I9DhJYX5H3evG3ymCKNahDp8RW0I7xDmqBuhDh9RI8IrhDmaQqjDN9SK8AZhjqYR6vAJNSO8QJijLYQ6fDFsAMcR5mibQl2mLs6bJmkFx/7Hhsy+R4fNjo1dZ1Z0XPimZy5c7Zmpj+fM9PW+gRs6Q29e49WAswhzuOTg+7fMiekF0wTtsaBlma6X/amLc40/6GBl1JJwFmEO1xx/eswcmKy/YzPdMMmHsq/ei+NPjRm0j5oSTiLM4aq6Q93HDZMOPDbMPAMHUFvCOYQ5XFdnqKvF62PZP7RthF0bW0aNCacQ5vBFXaH+3U1+lv10Ah/aQ60JZxDm8E3Voa6xc5/L/65HCPQ2UXPCCYQ5fFVlqE+M+t1lPTFMl3ubqD3ROsIcvmtq9juwFmpQtIowRygIdbSNWhStIcwRGkIdbaImRSsIc4SKUEdbqE3ROMIcoSPU0QZqVDSKMEcsCHU0jVoVjSHMERtCHU2iZkUjCHPEilBHU6hdUTttCXny24Q54kWoownUsKiVwvzMoGW+YyNFDXEj1FE3alnUhjAH7kWoo06ULNQi9jA/9+WiOfXFgrk8a8yFmcU7v//waMdMjnfNrk1d88LmoWCHIWK//rX8/PFRc36mN7gvPQNUqTP05rW+ASoUa5jPzPfNsU8XBh/zyf/b0OlUarHtD6DVFvv156H7s+fdmw+Euu6H3ju+0oPcnrM3DdpBoKNSsYa5gmzq4px1kN3P91UAsV9/ESuFOoGOMhjcRGViDHNVygffv2UOn79VOMxkerZvnnznZhKMPon9+stI3i/PrUvOQAeqQElCJWINc7WwTkxXE0L6fgrGqYvzxgexX38VCHVUiVKE0mLtZj/4l7laJjap6/qNafdbqrFff1UIdVSFEoRSYg1ztSI1i7suhz+aG3RDuzsLOvbrr9rdUO8YoCgCHaXEGOYa71Ursk5LY9P1/htFxX79dVGoH905ZoCiCHQU9sunx6JcZ/76xWaC5txXi8msYdfEfv2Aqwh0FKIwj23tsKh1ajsJLF2C9PWL42bh5Q3m0vPjyX2bHLfvVnVtglje69f1ptevz75fP+AyAh25xRrmcvqKXZgd2T6ShLlCTV2porXWum+XfjBuvf2nWqllloNVLe/163rT69fn9Pr15zZcu37AZQQ6cok5zOXUF9ldwAqrI9tH1/wa7em9a9OQsXH6ijvdzjbXr4eVrOvXnx/aZleOXLp+wGUEOqzFHuaSNaarVnhWmKWOPm73dedn3Ak0mzHt1yxb37pPaet9LS5dP+AyAh1WCPOl8eMstq1u0bpjm2VKl68ZJ9hc/75Hh623b1WY26y9duX6AdcR6MhEmC+5ajGWm3dzkJ0T2Q8AMwtujCFbXf/GfOuodz2Sfb9cuX7AdQQ61kSYA4AfCHSsijC/18MW473T1/PtbjZ93Z/Wp831n/sy3/VzJjhQHQIdKyLMH6QJb1ne+Nx+mZXGpG0mmbmyHajN9Sug81z/qSv+XD/gOgIdDzi6c5QwX0VWuCjMpj622wzl4F9vWX2dzTh7U6q8ftsd51y6fsBlBDruoTXUh7bZLTuKkTaKyXLss/k1dzhLzxC33db0u5vceZtWcf2iP7fdcc6l6wdcxjsFd9hsiBI7LcuyocNLnnjnxqBLeeFOF7RODzv26bx58g83cm2farsMrAl5rn/r29eTY1DT69dn/XrP2ZvWh7to1YBL1w+4jH5VJAhzOwpYrTXXlqRZNJ780nt23eqr2feoW93Nun51u1+YyR4n1xj5K++Xu/5X6S0CrPHoC8I8J9t9yKugrmmXZoIv/TzNzMxP974HYId3S+RcCHN1xV74pmdOfbFgLs+qZXu39btl0N2qHcX2bR5KxlJd6H5VK1X7kB/71K7bvAzdmz3v3jRnnluXe9OaqinMpy42d0b58ac4GxzIozP05jW2YYpU22GusFIoalzZdqmTwvTIP4xYTc6qk35ejYU3tY5cDzVthnrTYV5n2dRrpwNftEe8ehsuz97tAdEDpI53Vfly5QHSJ5roqTkSaAeBHqm2w1xBroAoejSmTvTSISBtVrgaI/7eu+GHeihhrtfr2GdzufYK2Ld5OPl52u4d8QWB3i4CPUJthrkqUk0Us12ytRaNsf5852hS6bYl9FAPIczTnqAy1+HCA6QPCPR2UToj02aYK/zUTV1FmKffTw8Hb0zXP5a9Gj1UfPD99dZne5eVjqk3MVGuyTDXg8rJZ8cqL5sqI7pfZa9Dywy/d/YmW9XCaQR6RNpumdfVkn3l/VuVPSQUoTA6unPMXHp+PPfYvv6uxmzzaCLUi4Z5ketXubz0g/WV97SkvSdV3af04YBQh6voco9E22Pmh8/PJZPf6pK0lPeuTwKibar4T19ZMKe+WExm798/XqufVWvZFX4vbF4KwCJBUVf3e9EwT8uYrv9PXy0m+7TrQSvr+ut4zeocCml7gqLL6HJvF4EegbbDXKH2xP+/Yeqmcc7jT7u51Gn69kzq1cZgi7a6qw6XsmG+mqzrr5q21j1R41CMSw+QLiHQ28UjZuBcWGd++EIz47CqwNvsel+LgmytMCsazFV2v9cV5pJ1/VXSnIoTNc+rSGbM19jjBBRBoAfMhTBXwNqGrLpgz+xeZ75+cdwsvLzBfPiP65NjXPOMMWtzGl+1Gep1hnnTpj5u5gFSM+eLLrsE6kCgB8qVitZ2BrqObFWYK9TTbswdG7vJ1p+aRW57KEieNcYuaiPUi4a5XjPXwlzlzXbcXN3muoZLz69PHiD1IKmZ9rbnry8th6OVDncQ6AFyqdVk0zrPOrJVIXf8mVGrkEu3kfVZk6FeNMzVc+LiMbs63c6G5ltoDFzXkA4FLG0xPGw+3DtuvV9/E9v/ArYI9MC4FOYKmKzWklpJNj/v0tIwu+sKYVlRE6FeJsxdPTTl3JfZ161eIE2eXGtCm8qkzd4CS2WcZWxwA4EeENfGM21aynmCYXl3/Jr/biDrhOsM9RDDXNdrM9xy/Cm794jeSzbl7U9fEuhwA4EeCF+PQM0bVhpXzzLT3E6ltasj1EMMc7FpKeuh0Ha2ve79/seyN8qZniXQ4QYCPQA+n2d+tYY5RTMLYc08TkPddmJgaqVQDzXM5arFZeXdlW9yPLuKvDzLTHe4gUD3nM9hLnlbN5evZX993krbB8le598ZSyZz5bE81EMOcwAEutdUubsc5lssujbzHKyiGfM2S5K2bAh39y5N5ioS6k+8c4MwHzifc36FzXyMkMsb/EKge8rlbU5TmsGeNaloacctu1DXdp42Qt9ju0ioF+FbmNu87groPJMmbZZdsv0rXEGge8iHME/t25w9qejw+Vtrhnpyhvqfb1lvGJL3xC8f1R3qPrbMt1g8QMrhj+x6KjREYVPmOKQFrqAkesanMBfbUFCoH7x9DGq69Ejj69qJS2eo227pqvsTS4uprlD3tZtdr7tNuJ77ajGzt8d2vkFyclwED5DwAzNdPOJbmEuyTGi8Y9XSOVHBoRqxTd5Ky0NVh5H4PmauHiEFdpbkIJ/B12kOync3LR0ck+4yOPXJvP35A5sIc7iD41M94WOYp7Qd50vv2Y1/l+HzPSqriuNCQ5gAp1De+vsbje3nr33gmzpFzgccn9ouSqIHfA8q7Y9dd0tG3a2vbXdvb/GmlO1+D2U2u8rBkYbKge43YQ6XUBodF0qrU2uo61wffvTx0egr16KhHtrSNB24UvcDpMbOY36AhJsIdIeF1IWsltMfn1tfS6irRcbGJ0vyhnqom8ZkHb5S1slvr6N1DudQIh0V4niwWjVVh7qLZ3K37TXL+6EJi6E+CKmsndm9rpZQ10OQzZkCQNMolQ7Snt2hTu5KQ73scistT/rwH9c7eSY33KDQVahX9QCphwO2wYXLCHTHKKiOPxN2i1OhrgeWD/euz72GNz0XXX+XVhKyqIxU8QCpcvrB3nWEOZxG6XSIwlynasWyMUpyvYMWlDaN0U5wWVSp6uuBPNIHSJWfZP255Rpz0QPBq99ijgb8QBPHEbGF+XITw+yFjfoplPVA+EvL4SwNfWlYhzCHLwh0B8Qc5oCrJphrCc8Q6C0jzAGEYmKUeqxNBHqLCHMAIVGddoQNd1pDoLeEMAcQIu0LQai3g0BvAWEOIGSEejsI9IYR5gBiQKg3j/UYDSLM/aM1y1onf3nWmAszd9cvPzzaMZPjXbNrU9e8sHmIfb2BFaTbMk9dnDeoH4HekGRvacLcCzpL+9inC4OP+dXP1Z7tmwvf9MypK8YcPr+06Y12I2PNMnAvQr05NCsakOxfvpsw94GCfOvvbwwqn7nVw3wFasm/8v4ts/Xt62Z6tmcA3EX3ezNoTtQsDXO6ZN2m8P73j+aSrUHLmB603J9852ZSgR3axtvrfrrPb3y+YM591UuGMGbmzJ0HJ71XtmxYGsbYt3k4GaIKVYz3gZZ6/ahxakSY+0EV6Z53bw4q1mpa1vp+h8/fSj7TKlmiHoypT+bX3EddD0PTs4tLXzuo9EPcRz32+0Co14ukqQlh7o+Df5mrLMyXU7f9GyVb/L5beriZM3vO3sx1KIpojoKGMZ5454b3wxjch7vofq8PaVMDwtwfailoFntdDg+68WMdU0+GH/5wI5lcWIYetjSMceqKnw9H3IcHEer1IHEqRpj7QxWtWtF1Usvs4Pv1/hsu0r393ruDFuV1+4mFa9F9fOm9W971eCzNqeA+rIR5JtUjdSpEmPvl9YvNBO25rxZzd7P6rOowX05dz77cy/Q+5FktYcun+7CWozvHkuWeqAbJUxHC3C+qbG1ntGuNuc7R/vrFcbPw8obkjGydqT05br8MMaZJQC+9d7OWME8d/OutWkKyatwHO8efJtSrQvpUgDD3z2nLccijO0eTMFeop/sIaNaxZhx/8P31Zt+jdhWRWukhVL5Z1BVcxwTD5ZKhko/dfkDiPuRDqFeDBCqJMPfTqS+yuys1aefQttUn7ijgjz8zar1O+PSV8Lvdpz5uZhjj2GfzTk825D7kR6iXRwqVQJj7K2v8Ua9tumZ2LQp1teJtnJ8JO9DVKrXtYlaPh4Yt0mEMfc47jOHqxLA890HlTOXn0vPr79yHk8+ODR4S/b8PRRDq5ZBEBRHm/lJXZZY8m3gs745fy+VrJmi2cxLU86FhDN3j9L7ps3596Qfj1suZtE2vi2zvg4Lrg73rk16gtB7RfdDucB/u9f8+FEWoF0caFUCY++2qxVh23u02Na6eZWYh7DF0m1nXqqizej5slzNpTkLd49RF2NwHPQQquNZ6EPT9PpShe7Nr05BBPiRSToR5HK6yM2UutoHymmWrU2Fm0+vhWpDZ/jzHn7IbpvH1PlTh5HfGgt7Pvw7crRwI8zA8bFFB5p1oNDMX9wlr09ezr18rAmzfOwoxm8rctQlhNvdBrfM892H/Y9kt1RB3I9S168hpQt0ed8oSYR4OvZZZ8kw00pj8hRmbbvxwj8+9ajGpe8fGfNe/65Hs99rlWbeGMWzuQ56Jf0tf7999qAqhng93yQJhHp6scFVI20420gYfNnZOMCYI5EWo2+MOZSDMw6SZxFl0BOpaob60T7v9Fpzf3RR3GTr3Zb5uYZtx4S0b/Ov1OD/DfciLULfD3VkDYe4WHSNZ1eQf2xm0CvU0tNOd3jReqZOzdIJWnu1jQy5HNhWtXjvb3fLUQ3LKYiMe1yp42/uQpxzbPDDaTJzzHaGejTuzCsLcPQqDPe/erCTUFbC2oa7Q1jnWf/fWdTP821mz9e0bydnWefbpDn1drVqIWaGi1892q1Lbg3Nce3/a3AfRsbo2dAaATTlTeY6B7u3JZ9flnocQC9JqBYS5u6oM9abOY1Z52h94oNvOStdWpVkH1ejPbXo+dF9da63Z3gft7a+en7XoPtgc7+vifahTUj8/t55QXwGJdZ/kCfDbhLnLqgp1tWqaOI9ZD4cxOPT/7O6lQmrr29eTlQRpF7w+v3G7J8T2jPoXNrvZKrW9D3poSe9DuuxM90Fd7HnuQ4wbsBDqK2N/vWWSMZpB5Wuz6xeqo/utN2aeLuw01MuOqWnjjtP/vVjbMZfqBYjl4VDBoveQzTi5xshfed9udcBqbE+6a9qOh+0Dtor78FpDPU2uSUNdZ87XeUytT0iu2wjz9ujeF3narqKlXvTftqEwtzngJRS6l0caDBctF3RuY5lBQCtgmqK5GTH3JtJSvxfpZQhzFxR9Y1YR6nVUCrGFeUoHjTTVBZyE56Br2pVQT8O8qdaiym2srfPlCPW7ok8wwtwdbYe6TvoqO6au76PyFGOYp47nPAa1DFdCvekwF+b63EWoL4m6NBDm7mkz1OXozjFz6fnx3MvM0u5mHYcZyxKi1TRdubYd6m2Euc6Op966F6EecaAT5u5qO9T176uVqdOebCjAv35x3PpkrBjEEupNh/nSOuyx4JdBFhV7qEeZZoS5+9oOdZkYJpzLSF/DpjbVaTrUmw5zPTh+sHed1bbFMYs51KNLNMLcHy6EOspJezs+HAxF5A2iZLvcnK99U6FeNMx1P/I+4Og+qM46w2ZX1mIN9age9Qhz/+iN+cH31+cO6KrWqaMaeg3UVTw9O2r+9NVisk+7Qnf5a7q049lQchKeZsoryIoEZxrqde32WCbM05/pte357gPyi3GdelSBTpj7KT2UgVD3nyrZyQ3D1mPARSvlukK9ijBPf53nPqCY2EI9mlqOWaF+K3rSkkL9iXduJNtrwk9Fu0+r7n6vKszRLN1/HegSw4TVKEqYwpwnYf+VOT5R22sS6v5qO9QJc7+pMace2tBDPfhSRpiHhVCPV1uhTpiHIYZQD7qkEeZhItTjlU6SzPvaFw11wjwsoYd6sKXt6M5RwjxghHq8ir72eUOdMA+TQl0rLkIUZInTOk8dEoGwEerxKhPqUxfnrb723FeLhHmgtBTwSIAH2wRX6jiBKC6EerzKvPZ1IMz9EuJWzcGVPG3EwBsqLoR6vFwJdcLcT2VPV3RNcKWPcfM4EerxajvUCXN/7Z8Mqzc3uBLI5jHxItTj1VaoE+Z+0+sXkuBKIcdXxo1Qj1fToU6YhyGkA1yC65/WVp+Eupv02rzx+UKyH7tmEM/MLf2eqHLcMqgYdSDFvkeHSx1IUXTvd1GoC0M3firz2udBmIdjxm7RgxcIdNTu3JeLZuqT+eTzarScaHp2cfA1xhz7dCGpMDULtWiwVhHqWyI8TzkEdYc6YR4O5UXaqAhBcCXy9H8vGrhBb5TD5+fMnrM31wzzlSjgFaxb375eeMtOut/jVVf3O2EeltNXwsqL4ErlqcBeIF8pkNVCOvZpuf4sfZ+tb99IWu1FlKnYTxDoXqs61Anz8IT2Hg+uZGps9tQVKuI2pVtmVtndefj8Lesdvu7n2gYkaE5Vrz1hHh7lRN6eQ9cFWToPvj9X2RnIyKfo/tc2pi7OFe4GJ9TjVfa1J8zDo3rq3z+aM6EJsoRq7LaKM5CR3+uD0K0jzFOHP5prZUwdfiv62hPm4amz0dG2YEtperISE5uao3td95iUHtbUA1MUod4svV6aR3Hw9gTHv3vruhn+7WzyoV9rwqSGU5ro+sz72hPm4VE5CzXMpTP05rUwr2yZdAmU3shU5PXZ+vvrjb1RdKZxmbXqCpqqljXp59DP44qliYTXM7+uzp/bZqni/couVbSln0kPEll0Gpd+HvhNPXqazX7qi8XgxszvF8XuGekSKBe5FgZF6Y1iG+bJ0YX/MJJs06tW04VveubC1Z6Z+ti+u14T5M60tPkMVqcHJb02RVY3pO9TzZWgZewn24dJ1IPtsFAJ26GNoztHHzirXsGujxc2D5mDf5kbPElnfy+tZlC3Ldyhyvyl98o/IKVLFY/uHAvuNCygTjwCoxI2XVnqwrw/zJdTq/n4M6MMi3jItaWKQIyoOVGaulmzusrT8dEsCnW14uEPV5cqArEh0FGaxsCz5JnopDF2n/bjV+9EzKHj8lJFICYEOhqRtxvdt3PtY9373YelikAsCHQ04moEQ6ExhrpWJjRBkyBDX3IElEWgo7SJ0ezu8bxdppev+dnFGlOo512q+Munx8zXL46bhZc3JJ/168kcR9QyQQ5YG4GO0rZsyK6U84RcnqBwUSyhbnuNWt2gvRY0jyKdG6HP+vWlH4wnf25DM+hDOrsaqBqBjtJUOWe1tDQT2vYI1IOObgKURwyhbtMFfmAQ2lmrG/TnNuvNFeY2EzCBWBHoqMQLf5+9a5vWFa8V6qqwX/rzrWD2WQ451G2WKsprlq1vhbrNygZ29QNWxzZMqMS+R4etWuAK9Qszi0l3a7r1a7rXsrYLtQ1z/XsnvzNmmlJ07/d0y+G69ydvmk1LWa+R7fatKgdaCaHJb2v+uwQ6sCoCHZXQpKddm4YyK2Q5UcFSp6a3BC2z93uooZ5lx8Z8ewnseiQ70GdYvQasii53VMZ2clNZGpctc9JaUWWOXo11nXrVZhaYFAeshkBHZRSy6matk0L1tYYeHFb79wl1u6WK577M15Nh0/ORZ5kbEBsCHZXS4Sp1VrrHnx5t/VhNQt1uqWKeZWZaBXHqSvZwjc2/C8SKQEelFHZ/fG59LaGuLv19m90Yh4491G2WKiZno39stxmM9oO3oXkaAFZGoKNyOlmtylBXeGhXMZvT2poUe6jbLFU89tl85g5v+nPbSZJtzJ0AfEGgoxYKde0CVnY2uirwD/auc3aGeMyhbjtfQkegbn37enKtaRe8PuvXe87eTP7cxoHIVgkAefEOQa2O7hwzh741mnSp5lmqpiBXBe7DUq9Yl7TlWaqoMfJXSu4A2OZkSMAHBDpqp9b68UGX+WuDLvM/DSp/TX7SZjKXB5V82mLT12zZ0B0ERDcJCd+6VmMNdc1r2HO2/lPQ9HBXxWRIPViEsLUwsBICHY1RaE9u8KPVXUSMoa4HLw2r2O7TX4TKTRWtc4X59969EczWwsD9GEMHKhTjmLomK9a6VPGpsdKtc8IcMSDQgYrFFup1LlXU6oaywy+EOWJBoAM1iC3U61iqePLZsdJDEEXDXNcT29778B+BDtQkxlDXUsWye/qnSxXLbiJUJsz/uHtd6zsSAnlRYoEaxTqmfun58dzrxhXkZwZBeqaCMCXMESNKLVCzGEM9Xapoe2Z9GuZVLFckzBErSi7QgFh3lJsYbvYwFcIcMaP0Ag3hlLZ6EeaIHSUYaFDZUK9zAxefEeYAgQ40rkyoHz5/K/P0stgQ5sASSjLQgjKhrtPJCPUlhDlwF6UZaAmhXg5hDtyLEg20iFAvhjAHHkSpBlpGqOdDmAMro2QDDiDU7RDmwOoo3YAjCPW1EebA2ijhgEMI9ZUR5kA2SjngmLKh/vrgIySEOWCHkg44qEyonwhoi1jCHLBX7sBhoKSZ+b45fWXRnPty8PHVopmZW/o9UaW8ZVAh75jomH2PDldyEpdP0lDf8+5Nc2GmZ2JDmAP5EOhohSprdQ2fGoR5GuArfc30rMLeJHuYq6LWWdv7J+MptrGGOmEO5EepR+M0cevJd24kXcOrhflKVMnrgJKtb1+PKtzKdL/7KKYwV/mfnu3leh8Aq6GFjsaooj7411tJ93rZ7/PE4IFArfUj20dMDGJpqYce5ktDS71keOnCNw8G+Y6NXbPz4W7SCxXbEBPKI9DRiKIV9Vqmbs/mJtTDEHKYK8inPpnPfJhVyOtDvVcxDjGhHLrc0YiX3rtZaZinFOoxnREeavf75UG3c4hhroeUPWdvJh95e6aWDzGpWx7IQqCjdofPz9XaotQZ4Yyp+y2ZABlYmKulrYeUKoaYtr59I6oHVxRDXw5qpcro2Kf17152+KO5JORcoAr81BcLg1bnoFKfuVuZPzzaMZPjXbNrU9e8sHmoVBDFvqTNhzBXq7zKyW56cNX3i2WICfkR6KiVJsE1QZOMFKRtTSRSRasWlB5eVq3EBw83quhPXVHlbJKf9cBgfLToGGmsoe5LN3sdM9c1xJTsy7CZqhsPossdtVHFZtvdqHA7M6ikv35x3Cy8vMF8+I/rzS+fHhu0aDvGVlv7mCvIt/7+RlLZ5qnEdW/KjpHGtqTNhwlw6mavcxnawffnGFPHigh01ObYZ3Z7ih/dOZqEuUJdASVavqOW6wffX5/sEmcj2WmuwfW8+rcODgI57QotSg8+T75zs/AYaSyh7kOY66Gyjsmfy6ms/ftHcRyXi3wIdNTmwkx2xabxwEPbVh8TVFgdf2bUOqy0jWwTVKmqq7uqfdP1/fRgULSXIfRQ9yHM9WD2xufNBK3maJSdbIfwMBCD2mRVOOk62ywKK7XiNS6Z5fzMotnfQLE++Jd6Zu6r2173pci4eqhj6slD3VNjyf+73NV8+krPunWu1/jQt0buTI7UA12yVv3inNWDsCjU2XwGyxHoqIVaK1nyhFbaHZ/VtX35mqmdWtGqTOuiGfvf3dQt1BrN8/Dji6Q3JKDr0UTInz8+emd4SfT/muimD9tz7d/4fHHwWhvgDrrcUYvLFi2pvN3DGlfPMrNQ7/ilHlSmaj5vfGlsPqwzzbFED6bHnx67J8zvp16rQ9uyH3ZVTmJcsojVEeioxcRo9uz0qx7O63n9YjNBmy7DQ1iOP5U9xCQK9bVCP0UZwXIEOmrxsEVllHc89PK1dlsjap3bToK7fxnepefHvVmGV5XkMJ73m9mHwAcqE7bDKArz/Y9lj49zShuWI9BRC036yWphvJFjhrhaIjYTjrTpRl1OX7H7eTVz//5leOlEt0s/GE/GUG00vQyvSnUcxuO7PA9zS1+fXT1fnuX+4i4CHbXJGiNf2hbWLiRtW3q7NtU36/fUF9ndmwrzrJn7GkO1/TmbWoZXJcIcaAeBjtrseiS7eGnt9VqhrhbqS3++ZR0Oda7DrmoZnhx93O7rzs/4FeiE+erO55zAZjPhbcuG+nqk4B8CHbWxbYUq1NUCV2CmXcwaX9e+6E/+4Yb1ErE8Y5R52SzDy9M7oAcPm+GBJpbhVYUwX5sCOs+sdJsJb7Fs+Qs7rENHbRSwCjmNBWfRZLOyu67VOX5+dd5m/D5f5bpzYmhQwa99zXUvw6sKYW7H9lRA2y1kXd45D80j0FErjSnvOdtMt7G67hWSRU8vQzFFw1wTBifsRh68MDOXPetcD7fqjdI8itUozG32OtAQDy10LEfNh1qpla5NMooePJLXK7cnz1Ud6lbL8K7nGyMNoTVbNMx92Js9L63aeMVi8qZ6ohTsmm+R7giYbBLzTc9MfTJvf0LhJrZ9xb0IdNROFde5L3uN7WpVR6hPWkw+0lacR7b3rTYEsT1ats5hhLII83tpX3ab7YlF9+6Vkmv0X9s+YoDl6K9B7VTJnXx2Xe51uGWosnxjutpegaxwVUU+9bHdZjAH/2pXmWsIwUWE+YOSffQfb2YMQUNZjJ/jfpQINCKpyJ9b3+iYX9WhroMzshz7bH7NHd7SM9Rtu1XVJesawnx16hWquys8OaltG61zPIhAR2NUEX24d33SumhKlaFuW1FrQtMT79wwp64srLgML8/2sa6FH2Ge7eR3xmrrjVIvgO6jzbAO4sMYOhqnMfX9kyPJQSd5lqols3ofHsp9dGlVY+p5luFpvsBL75UbIz3g2Gx9wtxOErqD3qiql/El591HdB+RHyUDrVAlr6U76aEl6s5Wd/zyloe+Jp0lr4pMX6vWT5Ggq6ql3lTvQrr3uysI83zSIaaqWur6fnoP2BwhjHjRQkerVFFNbhjOFV7pGt68G9FU0VJvahmeQtAVhHkxun4dxqMhmDIn5+17dNgcf2aUbnZk4nEPXlKot9VS15BBnTP2XZrBTJiXp/Ki3qW85TU9gle9UoQ5bNBCh7faaqnXNUYqNqe1NYUwr046xPTzx0eTFQ6ah3Fhpm8uz97dm0GbF+1M9vjvmv2PDRPiyI1Ah9faCvV0jLTKUCfMw6eQ1nwRmyWQQF686+C9trrf0zFSjamXkU54IswBlME7D0Foc0z96M6xQmOkaq2pVf7B3vXJeKkLCHPAX/T7IBhtzn5Px0hf+Psh89Kfs9efpxOeXEKYA37jHYigtNlSl4lhPycyEeaA/3gXIjhth7pvCHMgDLwTESRC3Q5hDoSDdyOCRaivTWugCXMgHEyKQ9DanCjnOrXO8yLMAXfxrkTwaKlXgzAH3MY7E1Eg1MshzAH38e5ENAj1YghzwA+8QxEVQj0fwhzwB+9SRIdQt0OYA37hnYooEeprI8wB//BuRbQI9ZUR5oCfeMciaoT6vQhzwF+8axE9Qn0JYQ74jZ3iAMOOcrGH+cx837zx+YI591XPXJhZNDNzS78nujdbBvdl16au2bd52OyY4IEHbiLQ4TRVqqevLJpzXw4+vrq3op0Y6ZgdG7uDCrZj9j06nJwxXkasoR5zmKtcTX0yn3xejbbInZ5dKoNTF+eTMvfqt0aC3hYYfqJEwkmqRF+/OGdODcI8DfD76feToP/SmGOfLiTBdGT7aKmKtmyobxn36zz0WMNcZUfhfOzTeZPXhW96yev9n4O/e/LZMYYo4AxKIpyjivbJd24kobpamK9EDwGqaLe+fX3NFleWWMbUYw1zlZMn/3CjUJgvd2GmNyinNwcPnWwNDDcQ6HCGKto9Z28OAn0uV5Cv/n2KV9hFQ/2ER4Gu3owYw7zIkbGrUTl96T32+4cb6HKHE6quaEUPBnJk+4gpomj3O9xURxlLqXdGwy1l53EAZdBChxNeeu9mLRWtQl3j60UVbanDPXWVsdTBv94q1bMElEWgo3WHz88l45H1ff9bpb4/oe4/dYnXWcZEPQBTH5cblwfKINDRKlWCZScn2Tj80Zwpg1D329TH5V5/W8c+mx+U6XofHIDVEOholbopm6A17GUnLhHqftLrbtvVrpn/R3eOmkvPrzcLL28wX784nixN014Hef49oA3UTmiNWue2y8s02ejIP4wkm3poQxmtBb5wtZe0vGwr6xOfL5TeDISJcvnVORmtSnpY+/njo0n5Sun/tTucPjQfw2blhOZsaAUB0DQCHa059pldN6haTIe23TtTPdkhbvDxwuYhc/Avc+bUF9kBq1b68G9nDZrjS5jrgTF9WFuNQlqT3rImWeprNF7PFrFoGiUOrbkwk13Ja8nZ/WG+nFpQx58ZpfJ0kC9hLsefsmtRK9SXt+BXU/cEPGAl1IJoTVZ3e7qVaxZVsGrFwx0+hbla57Yb7Kis7X8se605E+PQBgIdrVCFnyXPeLcqZZuWkyv0MBPq5Cmfwlwmc+6/PzmeXW1enmU9OppHoKMVly1aMHm70TWm7pPQzlMX38IcCAmBjlZMjGa3iq5GsEdHSKHua5ifzznebTM+vmWDX6fuIQwEOlrxsEX3eN5xyMvX/By3DCHUtYxQJ+T52DJXQOeZxGaz1NKn4R+Eg0BHKzThLavSyxNyqmR97ub1OdQV5jrdzud9zG13EtQ6dJtyxiEtaAOBjtZkjZEvbQtrF3IH329mx7k6+RjqIYS5aI+CrDKkME9P8FuLHlZZRok2sLEMWrPrkW5Ska5FB6vIoW0rF1UFiTaWCWUS1iu3Q2W/B1vMFg1zBd4fd69r7Cx2nRWgA4CyaPc/lUctlfzupm7y8yWbxAyuc+qTeftdDTfROkc7CHS0Zqniy575tnRa2mIScunWrxpfP31lMamsbcNcraYP9643TVKrL+82sT6Eui9hLvsfG05a1zY/q3qFXinZ2/Pa9hEDtIFAR2s0zqhQz2qli0Kx7P7pr25rvqItuve7y6HuU5iLHgC146BNK70s7Qff9PUBKUoeWnWkodaMwqStcCx6SpuLY+q+hXlK2wfX3RWua6R1jjYR6GiVWumrjY9XSWHSphBC3dcwT+k1yLsrXB4nv93+NSJulD60TpOQ6pwVrF4AFypan0Pd9zBPf5aTz66rZY34LwevrW87FSI8lEC0ThWsKto6Wk8Kc5fOpvYx1EMI85RC94O96ysra0tld8yLVQkIH4EOJySV/3PrK22p6wQ2l8I85VOohxTmqbSsHSgZwhou+mDvOrNvM2EONxDocIYqWi0rKztRTt/nzCBMDm1zd4KSD6EeYpin9DPqNVB5y7urm75e5euM49eI+PBoCeeoVb1/csS8fnEu13IvVdKHvjXidJAv5/KStpDDfDn1CCmYtf78T18tmlNXFpM9Dpbv7b6089vQ4KOTzJRnW1e4ikCHk9IW1GuDcF9e0eqc6TRk9DVbBsGhinbfo8NeVrQuhnosYb6cfvbJDcOMhcNrlF44LYaK1qVQjzHMgVDw7gMc4MKYOmEO+I13IOCINkOdMAf8x7sQcEgboU6YA2FgDB1wTNkx9S05Nk0hzIFw8G4EHNRES/08YQ4EhRY64KiiLXXbrz/2WfZZ9PcjzAF38a4EHFa0pV4HwhxwG+9MwHEuhDphDriPdyfggTZDnTAH/MA7FPCEQv3QtmZDnTAH/MG7tGUzc/lmGCNuR3eOlT6NzhZhjrwuz/YM2sM7tWU61SnvsiHETafR1R3qhDmKWH5KHZrHu9UBxz7Nv3wIcasz1AlzFEVd1i7esQ449ukCrXTkVkeoE+YoSvXY9HXqsTbxrnWAwnzPuzcJdeRWZagT5ihKWwhPXZwzaBfvXEdo7OnJd26YaSaVIKcqQp0wR1FqmRfZQhjV6wy9eY1XwTFab7x/8LFjY9dMjNgftIG4qYU0dZHtXFE/NTxOX1k0p75YNOe+XDRwA4EOAEAAeCQHACAABDoAAAEg0AEACACBDgBAAAh0AAACQKADABAAAh0AgAAQ6AAABIBABwAgAAQ6AAABINABAAgAgQ4AQAAIdAAAAkCgAwAQAAIdAIAAEOgAAASAQAcAIAAEOgAAASDQAQAIAIEOAEAACHQAAAJAoAMAEAACHQCAABDoAAAEgEAHACAABDoAAAEg0AEACACBDgBAAAh0AAACQKADABAAAh0AgAAQ6AAABIBABwAgAAQ6AAABINABAAgAgQ4AQAAIdAAAAkCgAwAQAAIdAIAAEOgAAASAQAcAIAAEOgAAASDQAQAIAIEOAEAACHQAAALQ7RszbQAAgM+maaEDAOC5jjEz3U6nf94AAAB/dRToPXPZAAAAf/X6F7od05k2AADAW8ryrumaswYAAHir3++f786PzE+r790AAAAvLfz4b852zYsbFeZMjAMAwEOdzlJPe7JsrdszpwwAAPBOf9Gc0Ock0Of7Q78zAADAO4tm6Kw+L20s8+P1Gkc/awAAgDeS7nZluFm2lzvd7gAA+CXtbpfOnd9965uJofmRz03fTBgAAOC66cUfPfRY+ou7e7m/uHGm0+//pwEAAM7r9Ponlv/6nsNZFkYXfsGadAAAnDe9YIZ/vfw37j1tjVY6AADOS1rntyfD3fm9B75KY+lzIx8N/m/SAAAA19wzdp568Dx0tdJ7/X8xAADAPT3zs5V+u7vSb2pPWLreAQBwi7J58ccP/XqlP+uu9pcWxhZ+Ovg0bQAAgAumF8Ye+ulqf7hqoKvrfbE39Byz3gEAaFmnv5TJL3ZWzeTumt9AM+j6PcbTAQBoU7/7L/fPar/f2oE+sPijv/1dv2/+zQAAgMZ1ev2fLf5oQ+YhapmBLr1/fugX+oYGAAA0Rtm78OO/+anV15ochn/zvz/tdzv/YQAAQK26g97x+UGD2vbrcwW6DL35Pz80ne6vOMQFAIAadPozGjO36Wa/56+ZIn5zY3Kou/iuYTc5AACqNJ3MZs+YALcSqzH0Bwz+ocXR+cfZfAYAgGokm8aMbni8SJgnf9+UNPSbaz8ZPBZoXH3SAACAvKa15bp2aTUllA701O0JcwcMwQ4AQLbBWHln0fznwrqHfrHWhjHW385UaTC2PmwWfkKwAwCwioqD/M63NTVJuuKHzAHTN7sNAACR63TM2V7PnOqNbfh1lUF+5/ubumlGvFncTbgDAKKilrjpnFeIj/aHfnez4GQ363/ONGww1r671+ns7Jr+5KBrfkenbyb6JlnTPmkAAPDP9NKnzvlOv3e5ZzrTQ11zdn5kw3QdLfHV/B+3+Sznmup5fgAAAABJRU5ErkJggg==;" parent="1" vertex="1">
          <mxGeometry x="220" y="208.19" width="83" height="83" as="geometry" />
        </mxCell>
        <mxCell id="IzhrJvGlJOnqOUi5HswU-5" value="" style="image;html=1;image=img/lib/clip_art/networking/Firewall_02_128x128.png" parent="1" vertex="1">
          <mxGeometry x="370" y="50" width="80" height="80" as="geometry" />
        </mxCell>
        <mxCell id="IzhrJvGlJOnqOUi5HswU-6" style="edgeStyle=orthogonalEdgeStyle;rounded=0;orthogonalLoop=1;jettySize=auto;html=1;dashed=1;strokeWidth=2;" parent="1" edge="1">
          <mxGeometry relative="1" as="geometry">
            <mxPoint x="90" y="350" as="sourcePoint" />
            <mxPoint x="260" y="351" as="targetPoint" />
          </mxGeometry>
        </mxCell>
        <mxCell id="IzhrJvGlJOnqOUi5HswU-7" value="Send values to homeautomation" style="text;html=1;align=center;verticalAlign=middle;resizable=0;points=[];autosize=1;fillColor=default;" parent="1" vertex="1">
          <mxGeometry x="80" y="420" width="200" height="30" as="geometry" />
        </mxCell>
        <mxCell id="IzhrJvGlJOnqOUi5HswU-8" value="" style="sketch=0;outlineConnect=0;fontColor=#232F3E;gradientColor=none;fillColor=#7AA116;strokeColor=none;dashed=0;verticalLabelPosition=bottom;verticalAlign=top;align=center;html=1;fontSize=12;fontStyle=0;aspect=fixed;pointerEvents=1;shape=mxgraph.aws4.mqtt_protocol;" parent="1" vertex="1">
          <mxGeometry x="168.3" y="360" width="28" height="28" as="geometry" />
        </mxCell>
        <mxCell id="IzhrJvGlJOnqOUi5HswU-9" value="" style="endArrow=none;dashed=1;html=1;dashPattern=1 3;strokeWidth=4;rounded=0;entryX=0.5;entryY=1;entryDx=0;entryDy=0;" parent="1" target="IzhrJvGlJOnqOUi5HswU-5" edge="1">
          <mxGeometry width="50" height="50" relative="1" as="geometry">
            <mxPoint x="410" y="440" as="sourcePoint" />
            <mxPoint x="440" y="410" as="targetPoint" />
          </mxGeometry>
        </mxCell>
        <mxCell id="IzhrJvGlJOnqOUi5HswU-10" value="" style="endArrow=none;dashed=1;html=1;dashPattern=1 3;strokeWidth=4;rounded=0;" parent="1" target="IzhrJvGlJOnqOUi5HswU-2" edge="1">
          <mxGeometry width="50" height="50" relative="1" as="geometry">
            <mxPoint x="670" y="450" as="sourcePoint" />
            <mxPoint x="670" y="291.19" as="targetPoint" />
          </mxGeometry>
        </mxCell>
        <mxCell id="IzhrJvGlJOnqOUi5HswU-11" style="edgeStyle=orthogonalEdgeStyle;rounded=0;orthogonalLoop=1;jettySize=auto;html=1;endArrow=none;endFill=0;" parent="1" edge="1">
          <mxGeometry relative="1" as="geometry">
            <mxPoint x="261" y="430" as="targetPoint" />
            <mxPoint x="261" y="290" as="sourcePoint" />
          </mxGeometry>
        </mxCell>
        <mxCell id="IzhrJvGlJOnqOUi5HswU-12" style="edgeStyle=orthogonalEdgeStyle;rounded=0;orthogonalLoop=1;jettySize=auto;html=1;endArrow=none;endFill=0;" parent="1" edge="1">
          <mxGeometry relative="1" as="geometry">
            <mxPoint x="90" y="430" as="targetPoint" />
            <mxPoint x="90.5" y="280" as="sourcePoint" />
          </mxGeometry>
        </mxCell>
        <mxCell id="IzhrJvGlJOnqOUi5HswU-13" value="" style="html=1;verticalLabelPosition=bottom;align=center;labelBackgroundColor=#ffffff;verticalAlign=top;strokeWidth=2;strokeColor=#0080F0;shadow=0;dashed=0;shape=mxgraph.ios7.icons.wifi;pointerEvents=1" parent="1" vertex="1">
          <mxGeometry x="166.60000000000002" y="310" width="29.7" height="21" as="geometry" />
        </mxCell>
        <mxCell id="IzhrJvGlJOnqOUi5HswU-14" value="home/sensor/sw_&amp;lt;deviceid&amp;gt;" style="text;whiteSpace=wrap;html=1;" parent="1" vertex="1">
          <mxGeometry x="90" y="490" width="130" height="40" as="geometry" />
        </mxCell>
        <mxCell id="iuoe_-vqjcnpA5Qp_P3F-1" value="" style="shape=image;verticalLabelPosition=bottom;labelBackgroundColor=default;verticalAlign=top;aspect=fixed;imageAspect=0;image=data:image/png,iVBORw0KGgoAAAANSUhEUgAAAMwAAADACAMAAAB/Pny7AAAAnFBMVEX///+w4vkXS2K36v+ArMIhUWjs7vAAIEQAN1OXpK0AME75+fq5wskTSF8APFeq4PkAQFhdiJ3Iz9M+YHSOnKZqlaqayuA+aoE8WW7U2t4zXXLv+f5acICstb3a8fy45frU5/Ll9f3K6/u/8/+QvtRVgJWJtctLdYudusqAkp3i5uiwydZHZneh0uYVQ10AJ0Vwi5kAFj4mOVYABTb5DTBNAAAFYElEQVR4nO2cbZuaOBRAzaBdR4pgd9COGaFhnbrTbbvb7f//b02cEaJCuAkJiX3u+TYMj+Z4Q15uQiYTBEEQBEEQBEEQBEEQBEEQBEEQBEEQBEEQU+IjvksxjJiyqiRpAykrRm9QKqZFJTzIOUKpKij1XTwNKCvKaxHJiPAI+S4kDKo0OfmUBQu/wvHHpM+kDk8RdngYf1AAJm8+XCfc6FAeFbDKq07JfBe6g0pLpI6O72K3QTWj0hBecApTFR6dwIITV+Yuoq6F1A6YV7ET4VQ1NtiFkMK3xBs2XEggrVqh0U8qSKsAHhxLLkE0asyOSRA21J6Ld5u4tClDUq8ttJV2TLbxOCkY1O+347rIcUwpY4WAMUqblERhXcVtdxPz+byYO17mWER1GD6IacPVUCBmnSkWIeSgknFKJ48NLVTTeR4gFyrESUWjwMSEfazPpP2pWB+kxUVpa8BlZGMzNNTV0wCVsRgaN42Ulo2tBi32WcFOMpZCQ/2rEFuhYUG4WJkLxC4GW2b8Ti7DW2eQS+SUWmZoPYO4ROupS/aNzTAXBnHJZ255PtkMa89AmYn1PHHLcm+lnkH6/ejz4s4tWV5XtAEusBWJ9UL8fI5EjpH5XNczcxdgxx/ld7xiO5IRn/zctADmjTNIRdjseZtzcKGSHc5aM5Ia5wLgy168L/grd1HR+NMi9TPEfPYcQ1VefRzJXHxNaSijt0wctozmzDLK51BEKZNl8/dS/AzJ/OKCVRnN9fvo73sovOFLti/N3w9bXviZdMPLLOmSIUZjAN3EZPopBjLhZc+eHif1hS9P2V3yUbrhw9ayjO7AP/0E/ug3mZp3RxnphkfbMroJDB6ZYGW0098hy2hPL8eSMRjP6G8UGUumKpjuZk79RZaxZF43C2ptfmSaKiPKHH3KSqO66W+tGlOGHLfXQXUM9laNLHPUgT07Bmt5GjONo8wXlcyfABkCXYAyWb745z0QMVhJvu6aC7uv/MJMuuNeMTY7B/ILGshE+QLK6yC5+Xt+vLC4uACSgdQHg6z/SPMZAxuDtL8nGYANVEaanbvKAUjfEbWUAJCwAcp8Wzd8WzmRWa1l2nV6WmiYzPSwkdg6cOGNnPwVm7zNpm95ECSz/p6dZYRdyNydfUO22LeWRP3YgGSmrlPM1yxXrRVNvbEGJLP/d3SZeWs961kcgPUzm0W2XLpKmF+SZMtsMW8vSKoMDbDTnOZ5vhnJZcO/a9remvV0NsDhjEgxO2mRr8lW5DzpfC6jGkDDx2bRWDLP6nIoek74fCYQGWU9A880Q5FRdZy3JqPsahj0oQlFRjVAA8+bQ5FRjp1vTkbZAsBcbkMGmtJsZPjQRkGvciLdnBnIKIdnwHpWyywfHj908/hfn8tMunu3vXIfJgNsz2qZxU71aZOHntB05M0syQBfgglGRj1BgzUBNyIDe9cqGJmeHA1sP+ONyEwgoQlFpvf9GkgmIBAZwG50QF8TigwggX4zMpBF6P6KFoaMMgdQ0ztJq2XmO+V+mRe3MqBlu95kQC2TPT0ouH9SuwyUAb4r2Dd6lkfNqj1mfaPmYTLQ9dQeG1vzmUEy8Jc41cdHBCGjsaWWhR4Zra2OKpsAZDTfdlBsCvYvo78JvfO58S5j8uJGV3/jW8ZsP31HTsC3jOG7AeLV5sBk0gFnHtCW0/B8yqSDXquPrw/38ycD3m+m0jk/EsCXTJrqbGzshIrwpH5luIqtA17lQ1ejlRUXDRlx7khh96za03G45PDjDxv8+F+W+X71oT8Pb0fClC4PDX1nC/mXavv/b3AgMoIgCIIgCIIgCIIgCIIgCIIgCIIgCIIgBvwCIPbYh/iIO7QAAAAASUVORK5CYII=;" parent="1" vertex="1">
          <mxGeometry x="460" y="168" width="204" height="192" as="geometry" />
        </mxCell>
      </root>
    </mxGraphModel>
  </diagram>
  <diagram id="G4_wxZJrBhGNKMcLY26q" name="Sensor-program-new-flow">
    <mxGraphModel dx="2183" dy="848" grid="1" gridSize="10" guides="1" tooltips="1" connect="1" arrows="1" fold="1" page="1" pageScale="1" pageWidth="827" pageHeight="1169" math="0" shadow="0">
      <root>
        <mxCell id="0" />
        <mxCell id="1" parent="0" />
        <mxCell id="AoLXX_JXMKiE99-MfdHD-1" style="edgeStyle=orthogonalEdgeStyle;rounded=0;orthogonalLoop=1;jettySize=auto;html=1;" parent="1" source="AoLXX_JXMKiE99-MfdHD-2" target="AoLXX_JXMKiE99-MfdHD-5" edge="1">
          <mxGeometry relative="1" as="geometry" />
        </mxCell>
        <mxCell id="AoLXX_JXMKiE99-MfdHD-2" value="PowerOn or Reset" style="rounded=1;whiteSpace=wrap;html=1;" parent="1" vertex="1">
          <mxGeometry x="-660" y="370" width="120" height="60" as="geometry" />
        </mxCell>
        <mxCell id="AoLXX_JXMKiE99-MfdHD-4" style="edgeStyle=orthogonalEdgeStyle;rounded=0;orthogonalLoop=1;jettySize=auto;html=1;" parent="1" source="AoLXX_JXMKiE99-MfdHD-5" edge="1">
          <mxGeometry relative="1" as="geometry">
            <mxPoint x="-460" y="480" as="targetPoint" />
          </mxGeometry>
        </mxCell>
        <mxCell id="haMlRxq_SIWic8jx8Nz0-16" value="" style="edgeStyle=orthogonalEdgeStyle;rounded=0;orthogonalLoop=1;jettySize=auto;html=1;" parent="1" source="AoLXX_JXMKiE99-MfdHD-5" target="haMlRxq_SIWic8jx8Nz0-15" edge="1">
          <mxGeometry relative="1" as="geometry" />
        </mxCell>
        <mxCell id="AoLXX_JXMKiE99-MfdHD-5" value="Switch in setup?" style="rhombus;whiteSpace=wrap;html=1;" parent="1" vertex="1">
          <mxGeometry x="-500" y="360" width="80" height="80" as="geometry" />
        </mxCell>
        <mxCell id="AoLXX_JXMKiE99-MfdHD-8" value="Yes" style="text;html=1;align=center;verticalAlign=middle;resizable=0;points=[];autosize=1;strokeColor=none;fillColor=none;" parent="1" vertex="1">
          <mxGeometry x="-420" y="370" width="40" height="30" as="geometry" />
        </mxCell>
        <mxCell id="AoLXX_JXMKiE99-MfdHD-9" value="No" style="text;html=1;align=center;verticalAlign=middle;resizable=0;points=[];autosize=1;strokeColor=none;fillColor=none;" parent="1" vertex="1">
          <mxGeometry x="-450" y="428" width="40" height="30" as="geometry" />
        </mxCell>
        <mxCell id="AoLXX_JXMKiE99-MfdHD-51" style="edgeStyle=orthogonalEdgeStyle;rounded=0;orthogonalLoop=1;jettySize=auto;html=1;entryX=0.5;entryY=0;entryDx=0;entryDy=0;" parent="1" source="AoLXX_JXMKiE99-MfdHD-13" target="AoLXX_JXMKiE99-MfdHD-30" edge="1">
          <mxGeometry relative="1" as="geometry" />
        </mxCell>
        <mxCell id="AoLXX_JXMKiE99-MfdHD-13" value="Start WiFi setup portal. User enters settings-" style="rounded=1;whiteSpace=wrap;html=1;" parent="1" vertex="1">
          <mxGeometry x="-260" y="370" width="120" height="60" as="geometry" />
        </mxCell>
        <mxCell id="AoLXX_JXMKiE99-MfdHD-14" style="edgeStyle=orthogonalEdgeStyle;rounded=0;orthogonalLoop=1;jettySize=auto;html=1;entryX=0.5;entryY=1;entryDx=0;entryDy=0;" parent="1" source="AoLXX_JXMKiE99-MfdHD-15" target="AoLXX_JXMKiE99-MfdHD-17" edge="1">
          <mxGeometry relative="1" as="geometry" />
        </mxCell>
        <mxCell id="AoLXX_JXMKiE99-MfdHD-15" value="Start measuring&amp;nbsp;&lt;div&gt;cycle and send values&lt;/div&gt;" style="rounded=1;whiteSpace=wrap;html=1;" parent="1" vertex="1">
          <mxGeometry x="-520" y="990" width="120" height="60" as="geometry" />
        </mxCell>
        <mxCell id="AoLXX_JXMKiE99-MfdHD-16" style="edgeStyle=orthogonalEdgeStyle;rounded=0;orthogonalLoop=1;jettySize=auto;html=1;entryX=0;entryY=0.5;entryDx=0;entryDy=0;exitX=0.5;exitY=0;exitDx=0;exitDy=0;" parent="1" source="AoLXX_JXMKiE99-MfdHD-17" target="AoLXX_JXMKiE99-MfdHD-2" edge="1">
          <mxGeometry relative="1" as="geometry" />
        </mxCell>
        <mxCell id="AoLXX_JXMKiE99-MfdHD-17" value="Sleep until next time..." style="rounded=1;whiteSpace=wrap;html=1;" parent="1" vertex="1">
          <mxGeometry x="-810" y="540" width="120" height="60" as="geometry" />
        </mxCell>
        <mxCell id="AoLXX_JXMKiE99-MfdHD-36" value="" style="edgeStyle=orthogonalEdgeStyle;rounded=0;orthogonalLoop=1;jettySize=auto;html=1;" parent="1" source="AoLXX_JXMKiE99-MfdHD-30" target="AoLXX_JXMKiE99-MfdHD-35" edge="1">
          <mxGeometry relative="1" as="geometry" />
        </mxCell>
        <mxCell id="1hC0ZpcKKj76uMV-amsK-14" style="edgeStyle=orthogonalEdgeStyle;rounded=0;orthogonalLoop=1;jettySize=auto;html=1;exitX=0.5;exitY=1;exitDx=0;exitDy=0;" parent="1" source="AoLXX_JXMKiE99-MfdHD-30" target="1hC0ZpcKKj76uMV-amsK-13" edge="1">
          <mxGeometry relative="1" as="geometry" />
        </mxCell>
        <mxCell id="AoLXX_JXMKiE99-MfdHD-30" value="WiFi&lt;br&gt;Connected?" style="rhombus;whiteSpace=wrap;html=1;rounded=1;" parent="1" vertex="1">
          <mxGeometry x="-240" y="470" width="80" height="80" as="geometry" />
        </mxCell>
        <mxCell id="AoLXX_JXMKiE99-MfdHD-32" value="Blink LED every second until reset" style="ellipse;whiteSpace=wrap;html=1;rounded=1;" parent="1" vertex="1">
          <mxGeometry x="-120" y="788" width="80" height="80" as="geometry" />
        </mxCell>
        <mxCell id="AoLXX_JXMKiE99-MfdHD-34" value="Yes" style="text;html=1;align=center;verticalAlign=middle;resizable=0;points=[];autosize=1;strokeColor=none;fillColor=none;" parent="1" vertex="1">
          <mxGeometry x="-190" y="540" width="40" height="30" as="geometry" />
        </mxCell>
        <mxCell id="AoLXX_JXMKiE99-MfdHD-35" value="Light LED until reset" style="ellipse;whiteSpace=wrap;html=1;rounded=1;" parent="1" vertex="1">
          <mxGeometry x="-120" y="470" width="80" height="80" as="geometry" />
        </mxCell>
        <mxCell id="AoLXX_JXMKiE99-MfdHD-39" style="edgeStyle=orthogonalEdgeStyle;rounded=0;orthogonalLoop=1;jettySize=auto;html=1;" parent="1" source="AoLXX_JXMKiE99-MfdHD-37" target="AoLXX_JXMKiE99-MfdHD-38" edge="1">
          <mxGeometry relative="1" as="geometry" />
        </mxCell>
        <mxCell id="AoLXX_JXMKiE99-MfdHD-44" style="edgeStyle=orthogonalEdgeStyle;rounded=0;orthogonalLoop=1;jettySize=auto;html=1;entryX=0.5;entryY=0;entryDx=0;entryDy=0;" parent="1" source="AoLXX_JXMKiE99-MfdHD-37" edge="1">
          <mxGeometry relative="1" as="geometry">
            <mxPoint x="-460" y="590" as="targetPoint" />
          </mxGeometry>
        </mxCell>
        <mxCell id="AoLXX_JXMKiE99-MfdHD-37" value="WiFi&lt;br&gt;Connected?" style="rhombus;whiteSpace=wrap;html=1;rounded=1;" parent="1" vertex="1">
          <mxGeometry x="-500" y="480" width="80" height="80" as="geometry" />
        </mxCell>
        <mxCell id="AoLXX_JXMKiE99-MfdHD-41" style="edgeStyle=orthogonalEdgeStyle;rounded=0;orthogonalLoop=1;jettySize=auto;html=1;" parent="1" source="AoLXX_JXMKiE99-MfdHD-38" target="AoLXX_JXMKiE99-MfdHD-17" edge="1">
          <mxGeometry relative="1" as="geometry">
            <Array as="points">
              <mxPoint x="-650" y="520" />
              <mxPoint x="-650" y="570" />
            </Array>
          </mxGeometry>
        </mxCell>
        <mxCell id="AoLXX_JXMKiE99-MfdHD-38" value="Blink LED 2 times" style="ellipse;whiteSpace=wrap;html=1;rounded=1;" parent="1" vertex="1">
          <mxGeometry x="-620" y="480" width="80" height="80" as="geometry" />
        </mxCell>
        <mxCell id="AoLXX_JXMKiE99-MfdHD-40" value="No" style="text;html=1;align=center;verticalAlign=middle;resizable=0;points=[];autosize=1;strokeColor=none;fillColor=none;" parent="1" vertex="1">
          <mxGeometry x="-540" y="490" width="40" height="30" as="geometry" />
        </mxCell>
        <mxCell id="AoLXX_JXMKiE99-MfdHD-45" value="Yes" style="text;html=1;align=center;verticalAlign=middle;resizable=0;points=[];autosize=1;strokeColor=none;fillColor=none;" parent="1" vertex="1">
          <mxGeometry x="-450" y="560" width="40" height="30" as="geometry" />
        </mxCell>
        <mxCell id="1hC0ZpcKKj76uMV-amsK-21" style="edgeStyle=orthogonalEdgeStyle;rounded=0;orthogonalLoop=1;jettySize=auto;html=1;endArrow=none;startFill=0;" parent="1" source="AoLXX_JXMKiE99-MfdHD-48" edge="1">
          <mxGeometry relative="1" as="geometry">
            <mxPoint x="-650" y="750" as="targetPoint" />
          </mxGeometry>
        </mxCell>
        <mxCell id="AoLXX_JXMKiE99-MfdHD-48" value="Blink LED 3 times" style="ellipse;whiteSpace=wrap;html=1;rounded=1;" parent="1" vertex="1">
          <mxGeometry x="-620" y="710" width="80" height="80" as="geometry" />
        </mxCell>
        <mxCell id="haMlRxq_SIWic8jx8Nz0-1" value="Yes" style="text;html=1;align=center;verticalAlign=middle;resizable=0;points=[];autosize=1;strokeColor=none;fillColor=none;" parent="1" vertex="1">
          <mxGeometry x="-500" y="790" width="40" height="30" as="geometry" />
        </mxCell>
        <mxCell id="haMlRxq_SIWic8jx8Nz0-2" value="No" style="text;html=1;align=center;verticalAlign=middle;resizable=0;points=[];autosize=1;strokeColor=none;fillColor=none;" parent="1" vertex="1">
          <mxGeometry x="-170" y="470" width="40" height="30" as="geometry" />
        </mxCell>
        <mxCell id="haMlRxq_SIWic8jx8Nz0-7" style="edgeStyle=orthogonalEdgeStyle;rounded=0;orthogonalLoop=1;jettySize=auto;html=1;" parent="1" source="haMlRxq_SIWic8jx8Nz0-3" target="haMlRxq_SIWic8jx8Nz0-6" edge="1">
          <mxGeometry relative="1" as="geometry" />
        </mxCell>
        <mxCell id="haMlRxq_SIWic8jx8Nz0-9" style="edgeStyle=orthogonalEdgeStyle;rounded=0;orthogonalLoop=1;jettySize=auto;html=1;exitX=0.5;exitY=1;exitDx=0;exitDy=0;entryX=0.5;entryY=0;entryDx=0;entryDy=0;" parent="1" source="haMlRxq_SIWic8jx8Nz0-3" target="haMlRxq_SIWic8jx8Nz0-8" edge="1">
          <mxGeometry relative="1" as="geometry" />
        </mxCell>
        <mxCell id="haMlRxq_SIWic8jx8Nz0-3" value="MQTT connected?" style="rhombus;whiteSpace=wrap;html=1;rounded=1;" parent="1" vertex="1">
          <mxGeometry x="-240" y="673" width="80" height="80" as="geometry" />
        </mxCell>
        <mxCell id="haMlRxq_SIWic8jx8Nz0-6" value="Light LED until reset" style="ellipse;whiteSpace=wrap;html=1;rounded=1;" parent="1" vertex="1">
          <mxGeometry x="-120" y="673" width="80" height="80" as="geometry" />
        </mxCell>
        <mxCell id="haMlRxq_SIWic8jx8Nz0-10" style="edgeStyle=orthogonalEdgeStyle;rounded=0;orthogonalLoop=1;jettySize=auto;html=1;exitX=1;exitY=0.5;exitDx=0;exitDy=0;" parent="1" source="haMlRxq_SIWic8jx8Nz0-8" target="AoLXX_JXMKiE99-MfdHD-32" edge="1">
          <mxGeometry relative="1" as="geometry" />
        </mxCell>
        <mxCell id="haMlRxq_SIWic8jx8Nz0-8" value="Send config messages to homeassistant&amp;nbsp;" style="rounded=1;whiteSpace=wrap;html=1;" parent="1" vertex="1">
          <mxGeometry x="-260" y="798" width="120" height="60" as="geometry" />
        </mxCell>
        <mxCell id="haMlRxq_SIWic8jx8Nz0-11" value="No" style="text;html=1;align=center;verticalAlign=middle;resizable=0;points=[];autosize=1;strokeColor=none;fillColor=none;" parent="1" vertex="1">
          <mxGeometry x="-160" y="678" width="40" height="30" as="geometry" />
        </mxCell>
        <mxCell id="haMlRxq_SIWic8jx8Nz0-12" value="Yes" style="text;html=1;align=center;verticalAlign=middle;resizable=0;points=[];autosize=1;strokeColor=none;fillColor=none;" parent="1" vertex="1">
          <mxGeometry x="-196" y="758" width="40" height="30" as="geometry" />
        </mxCell>
        <mxCell id="haMlRxq_SIWic8jx8Nz0-17" style="edgeStyle=orthogonalEdgeStyle;rounded=0;orthogonalLoop=1;jettySize=auto;html=1;entryX=0;entryY=0.5;entryDx=0;entryDy=0;" parent="1" source="haMlRxq_SIWic8jx8Nz0-15" target="AoLXX_JXMKiE99-MfdHD-13" edge="1">
          <mxGeometry relative="1" as="geometry" />
        </mxCell>
        <mxCell id="haMlRxq_SIWic8jx8Nz0-15" value="Light LED" style="ellipse;whiteSpace=wrap;html=1;rounded=1;" parent="1" vertex="1">
          <mxGeometry x="-370" y="360" width="80" height="80" as="geometry" />
        </mxCell>
        <mxCell id="IsVOOqcXvzDoEfR60ln4-7" style="edgeStyle=orthogonalEdgeStyle;rounded=0;orthogonalLoop=1;jettySize=auto;html=1;entryX=1;entryY=0.5;entryDx=0;entryDy=0;" parent="1" source="IsVOOqcXvzDoEfR60ln4-1" target="AoLXX_JXMKiE99-MfdHD-17" edge="1">
          <mxGeometry relative="1" as="geometry">
            <Array as="points">
              <mxPoint x="-650" y="900" />
              <mxPoint x="-650" y="570" />
            </Array>
          </mxGeometry>
        </mxCell>
        <mxCell id="IsVOOqcXvzDoEfR60ln4-1" value="Blink LED 4+ times (*)" style="ellipse;whiteSpace=wrap;html=1;rounded=1;" parent="1" vertex="1">
          <mxGeometry x="-620" y="860" width="80" height="80" as="geometry" />
        </mxCell>
        <mxCell id="IsVOOqcXvzDoEfR60ln4-4" style="edgeStyle=orthogonalEdgeStyle;rounded=0;orthogonalLoop=1;jettySize=auto;html=1;entryX=0.5;entryY=0;entryDx=0;entryDy=0;" parent="1" source="IsVOOqcXvzDoEfR60ln4-2" target="AoLXX_JXMKiE99-MfdHD-15" edge="1">
          <mxGeometry relative="1" as="geometry" />
        </mxCell>
        <mxCell id="IsVOOqcXvzDoEfR60ln4-5" style="edgeStyle=orthogonalEdgeStyle;rounded=0;orthogonalLoop=1;jettySize=auto;html=1;" parent="1" source="IsVOOqcXvzDoEfR60ln4-2" target="IsVOOqcXvzDoEfR60ln4-1" edge="1">
          <mxGeometry relative="1" as="geometry" />
        </mxCell>
        <mxCell id="IsVOOqcXvzDoEfR60ln4-2" value="HW error?" style="rhombus;whiteSpace=wrap;html=1;rounded=1;" parent="1" vertex="1">
          <mxGeometry x="-500" y="860" width="80" height="80" as="geometry" />
        </mxCell>
        <mxCell id="IsVOOqcXvzDoEfR60ln4-6" value="Yes" style="text;html=1;align=center;verticalAlign=middle;resizable=0;points=[];autosize=1;strokeColor=none;fillColor=none;" parent="1" vertex="1">
          <mxGeometry x="-540" y="868" width="40" height="30" as="geometry" />
        </mxCell>
        <mxCell id="IsVOOqcXvzDoEfR60ln4-8" value="No" style="text;html=1;align=center;verticalAlign=middle;resizable=0;points=[];autosize=1;strokeColor=none;fillColor=none;" parent="1" vertex="1">
          <mxGeometry x="-460" y="940" width="40" height="30" as="geometry" />
        </mxCell>
        <mxCell id="IsVOOqcXvzDoEfR60ln4-9" value="&lt;div style=&quot;&quot;&gt;&lt;span style=&quot;background-color: transparent; color: light-dark(rgb(0, 0, 0), rgb(255, 255, 255));&quot;&gt;(*)&lt;/span&gt;&lt;/div&gt;4 = Filesystem mount error&lt;div&gt;5= Filesystem read error&lt;/div&gt;&lt;div&gt;&lt;span style=&quot;background-color: transparent; color: light-dark(rgb(0, 0, 0), rgb(255, 255, 255));&quot;&gt;6=Sensor error&lt;/span&gt;&lt;/div&gt;&lt;div&gt;&lt;br&gt;&lt;/div&gt;" style="text;html=1;align=left;verticalAlign=middle;resizable=0;points=[];autosize=1;strokeColor=none;fillColor=none;" parent="1" vertex="1">
          <mxGeometry x="-665" y="930" width="170" height="90" as="geometry" />
        </mxCell>
        <mxCell id="1hC0ZpcKKj76uMV-amsK-3" style="edgeStyle=orthogonalEdgeStyle;rounded=0;orthogonalLoop=1;jettySize=auto;html=1;entryX=1;entryY=0.5;entryDx=0;entryDy=0;dashed=1;strokeWidth=2;" parent="1" source="1hC0ZpcKKj76uMV-amsK-1" target="IsVOOqcXvzDoEfR60ln4-2" edge="1">
          <mxGeometry relative="1" as="geometry">
            <Array as="points">
              <mxPoint x="-380" y="630" />
              <mxPoint x="-380" y="900" />
            </Array>
          </mxGeometry>
        </mxCell>
        <mxCell id="tEKsn36TKqiRwxjs5pz4-1" value="only a sw option&lt;br&gt;not a setting" style="edgeLabel;html=1;align=center;verticalAlign=middle;resizable=0;points=[];" parent="1hC0ZpcKKj76uMV-amsK-3" vertex="1" connectable="0">
          <mxGeometry x="0.04" y="-3" relative="1" as="geometry">
            <mxPoint x="53" y="-82" as="offset" />
          </mxGeometry>
        </mxCell>
        <mxCell id="1hC0ZpcKKj76uMV-amsK-10" style="edgeStyle=orthogonalEdgeStyle;rounded=0;orthogonalLoop=1;jettySize=auto;html=1;" parent="1" source="1hC0ZpcKKj76uMV-amsK-1" target="1hC0ZpcKKj76uMV-amsK-6" edge="1">
          <mxGeometry relative="1" as="geometry" />
        </mxCell>
        <mxCell id="1hC0ZpcKKj76uMV-amsK-1" value="MQTT &lt;br&gt;remote?&amp;nbsp;" style="rhombus;whiteSpace=wrap;html=1;rounded=1;" parent="1" vertex="1">
          <mxGeometry x="-500" y="590" width="80" height="80" as="geometry" />
        </mxCell>
        <mxCell id="1hC0ZpcKKj76uMV-amsK-4" value="No" style="text;html=1;align=center;verticalAlign=middle;resizable=0;points=[];autosize=1;strokeColor=none;fillColor=none;" parent="1" vertex="1">
          <mxGeometry x="-540" y="720" width="40" height="30" as="geometry" />
        </mxCell>
        <mxCell id="1hC0ZpcKKj76uMV-amsK-7" style="edgeStyle=orthogonalEdgeStyle;rounded=0;orthogonalLoop=1;jettySize=auto;html=1;exitX=0.5;exitY=1;exitDx=0;exitDy=0;" parent="1" source="1hC0ZpcKKj76uMV-amsK-6" target="IsVOOqcXvzDoEfR60ln4-2" edge="1">
          <mxGeometry relative="1" as="geometry" />
        </mxCell>
        <mxCell id="1hC0ZpcKKj76uMV-amsK-9" style="edgeStyle=orthogonalEdgeStyle;rounded=0;orthogonalLoop=1;jettySize=auto;html=1;entryX=1;entryY=0.5;entryDx=0;entryDy=0;" parent="1" source="1hC0ZpcKKj76uMV-amsK-6" target="AoLXX_JXMKiE99-MfdHD-48" edge="1">
          <mxGeometry relative="1" as="geometry" />
        </mxCell>
        <mxCell id="1hC0ZpcKKj76uMV-amsK-6" value="MQTT &lt;br&gt;connected?&amp;nbsp;" style="rhombus;whiteSpace=wrap;html=1;rounded=1;" parent="1" vertex="1">
          <mxGeometry x="-500" y="710" width="80" height="80" as="geometry" />
        </mxCell>
        <mxCell id="1hC0ZpcKKj76uMV-amsK-11" value="Yes" style="text;html=1;align=center;verticalAlign=middle;resizable=0;points=[];autosize=1;strokeColor=none;fillColor=none;" parent="1" vertex="1">
          <mxGeometry x="-430" y="630" width="40" height="30" as="geometry" />
        </mxCell>
        <mxCell id="1hC0ZpcKKj76uMV-amsK-12" value="No" style="text;html=1;align=center;verticalAlign=middle;resizable=0;points=[];autosize=1;strokeColor=none;fillColor=none;" parent="1" vertex="1">
          <mxGeometry x="-500" y="675" width="40" height="30" as="geometry" />
        </mxCell>
        <mxCell id="1hC0ZpcKKj76uMV-amsK-15" style="edgeStyle=orthogonalEdgeStyle;rounded=0;orthogonalLoop=1;jettySize=auto;html=1;exitX=0.5;exitY=1;exitDx=0;exitDy=0;entryX=0.5;entryY=0;entryDx=0;entryDy=0;" parent="1" source="1hC0ZpcKKj76uMV-amsK-13" target="haMlRxq_SIWic8jx8Nz0-3" edge="1">
          <mxGeometry relative="1" as="geometry" />
        </mxCell>
        <mxCell id="1hC0ZpcKKj76uMV-amsK-20" style="edgeStyle=orthogonalEdgeStyle;rounded=0;orthogonalLoop=1;jettySize=auto;html=1;entryX=0;entryY=0.5;entryDx=0;entryDy=0;dashed=1;strokeWidth=2;" parent="1" source="1hC0ZpcKKj76uMV-amsK-13" target="haMlRxq_SIWic8jx8Nz0-8" edge="1">
          <mxGeometry relative="1" as="geometry">
            <Array as="points">
              <mxPoint x="-280" y="610" />
              <mxPoint x="-280" y="828" />
            </Array>
          </mxGeometry>
        </mxCell>
        <mxCell id="1hC0ZpcKKj76uMV-amsK-13" value="MQTT &lt;br&gt;remote?&amp;nbsp;" style="rhombus;whiteSpace=wrap;html=1;rounded=1;" parent="1" vertex="1">
          <mxGeometry x="-240" y="570" width="80" height="80" as="geometry" />
        </mxCell>
        <mxCell id="1hC0ZpcKKj76uMV-amsK-16" value="Yes" style="text;html=1;align=center;verticalAlign=middle;resizable=0;points=[];autosize=1;strokeColor=none;fillColor=none;" parent="1" vertex="1">
          <mxGeometry x="-280" y="610" width="40" height="30" as="geometry" />
        </mxCell>
        <mxCell id="1hC0ZpcKKj76uMV-amsK-19" value="No" style="text;html=1;align=center;verticalAlign=middle;resizable=0;points=[];autosize=1;strokeColor=none;fillColor=none;" parent="1" vertex="1">
          <mxGeometry x="-200" y="648" width="40" height="30" as="geometry" />
        </mxCell>
        <mxCell id="1hC0ZpcKKj76uMV-amsK-22" value="&lt;font style=&quot;font-size: 36px;&quot;&gt;Main program logic for all devices&lt;/font&gt;" style="text;html=1;align=center;verticalAlign=middle;resizable=0;points=[];autosize=1;strokeColor=none;fillColor=none;" parent="1" vertex="1">
          <mxGeometry x="-760" y="90" width="560" height="60" as="geometry" />
        </mxCell>
      </root>
    </mxGraphModel>
  </diagram>
  <diagram name="Send Values Msg" id="GkzMlKJXuq5GGV4JGiOL">
    <mxGraphModel dx="1358" dy="848" grid="1" gridSize="10" guides="1" tooltips="1" connect="1" arrows="1" fold="1" page="1" pageScale="1" pageWidth="827" pageHeight="1169" math="0" shadow="0">
      <root>
        <mxCell id="0" />
        <mxCell id="1" parent="0" />
        <mxCell id="09JvDn1SVirU3Hl2ZJZC-6" value="" style="shape=image;verticalLabelPosition=bottom;labelBackgroundColor=default;verticalAlign=top;aspect=fixed;imageAspect=0;image=https://www.sensorwebben.se/img/sensor.jpg;" parent="1" vertex="1">
          <mxGeometry x="50" y="210" width="88.7" height="81.19" as="geometry" />
        </mxCell>
        <mxCell id="09JvDn1SVirU3Hl2ZJZC-8" value="" style="image;aspect=fixed;perimeter=ellipsePerimeter;html=1;align=center;shadow=0;dashed=0;spacingTop=3;image=img/lib/active_directory/internet_globe.svg;" parent="1" vertex="1">
          <mxGeometry x="610" y="32.25" width="117.75" height="117.75" as="geometry" />
        </mxCell>
        <mxCell id="09JvDn1SVirU3Hl2ZJZC-10" value="" style="html=1;verticalLabelPosition=bottom;align=center;labelBackgroundColor=#ffffff;verticalAlign=top;strokeWidth=2;strokeColor=#0080F0;shadow=0;dashed=0;shape=mxgraph.ios7.icons.home;" parent="1" vertex="1">
          <mxGeometry x="111.45" y="53.88" width="140" height="96.12" as="geometry" />
        </mxCell>
        <mxCell id="09JvDn1SVirU3Hl2ZJZC-16" value="" style="shape=image;verticalLabelPosition=bottom;labelBackgroundColor=default;verticalAlign=top;aspect=fixed;imageAspect=0;image=data:image/png,iVBORw0KGgoAAAANSUhEUgAAAfQAAAH0CAYAAADL1t+KAAAACXBIWXMAAAsTAAALEwEAmpwYAAAAAXNSR0IArs4c6QAAAARnQU1BAACxjwv8YQUAADbISURBVHgB7d1JjFXXgf/x815NULjbhdR4YVqiLBH+UrMAy5MURwGLNFk4MrGsdjobSJs97qbXppPyOijNniR4Ezkt5IDiRfwPMkTxIo4tg2S8sJFcSI0XtiUX3RRDDe/1+93iQgFVdc+dz/D9SOUyUBR17zvv/O6ZO6ZBE2/1J2bnZycXe2Z3t2O29E1nsm/6O/VnHWMmDQAAnukbMz34NNPpDD765nyvby53h/rnF/7pb86aBnVMzda9dWNy7tbiDztds88ovPudCQMAQAw65uzgvydGFofO3vzx+mlTo1oCXS3x/7k1+5MkxPtmtwEAIHa3w33x5Yd+bWpQaaAnQb5w/dVOv/evtMQBAFjRdL/b+fXoQvdEla32SgKdIAcAILck2Hv/tOFnpgKlA334v/53d7/X+ZVhUhsAAEVMD9L4Z2W74gsHetIqn5v9j8E3+FcDAABKGeTpLxZG539mXtw4YwooFOjrfnNjcr67+K6hVQ4AQJWmR3pDzxUZW++anIbenP3h/NDCR4YwBwCgamowfzT05v/80OSUK9C7v73+qjH9t5j4BgBAbQYZ232r+1+z/5HnL1kHur5xp9/7hQEAALXr9Po/zRPqVmPoSZgPvrEBAACN6vfNv/X++aHMBnVmoGvMPOlmBwAALem9uPijv/3dWl+xZqAns9k1AY4xcwAA2jQz0ht6fK3Z76uOoWudebI0jTAHAKBtS5n81jerZvKqga5NYwxL0wAAcMXk8NzIqpPkVuxyH/rttZ+YvvmVAQAATun0+s8t/PjBs9ZXbqH3Ta61bwAAoBn9budXK3W9PxDot9e8TRoAAOCiQdf78APnqNzT5c4e7QAAeGFmcXT+seUHudzTQp8b7h0whDkAAK6buL+Vfk+gDwbaf2IAAIDz+qbz6vKx9DuBnsxsp3UOAIAvJkZujfwk/cXyFvoBAwAAvNHrmn3p/yeT4m5PhvvcAAAAr4z0hh7TlrBJC31+aHG3AQAA3lnsLP5Qn9Mud7rbAQDwUNrtnnS5D715rW8AAICPkjXp3eH/+t/dBgAA+GpiZH5ksttZ7Ow0AADAXz2zu9s3/UkDAAC8pSzv9rudHQYAAHirb8wg0PtmwgAAAH91Oju0bI1ABwDAc90O+7cDAOC7ya4BAADeI9ABAAgAgQ4AQAAIdAAAAkCgAwAQAAIdAIAAEOgAAASAQAcAIAAEOgAAASDQAQAIAIEOAEAACHQAAAJAoAMAEAACHQCAABDoAAAEgEAHACAABDoAAAEg0AEACACBDgBAAAh0AAACQKADABAAAh0AgAAQ6AAABIBABwAgAAQ6AAABINABAAgAgQ4AQAAIdAAAAkCgAwAQAAIdAIAAEOgAAASAQAcAIAAEOgAAASDQAQAIAIEOAEAAhg2AoEyMdMy+zUPmhcHHjomumdxw97n9wjc9M329Z05fWTQnphcMgHB0ht681jcAgnBo27A5sn00CfUs07N98/rFOYIdCASBDgRAAX7y2TGz65Ehk9epKwvm4PtzZmaeqgDwGWPogOcmN3TMB3vXFQpz2bd5ePD315vJ8exWPQB3EeiAxxTmf9y97p5x8sLf5zlCHfAZgQ54St3sVYR5ilAH/EagAx5SmJ+pMMxThDrgLwId8Ewa5js21vP2VaiffHad1Ux5AO4g0AGP1B3mKX1//TuEOuAPAh3wRFNhniLUAb8Q6IAHmg7zFKEO+INABxzXVpinCHXADwQ64LC2wzxFqAPuI9ABR7kS5ilCHXAbgQ44yLUwTxHqgLsIdMAxroZ5ilAH3ESgA445/vSos2GeItQB9xDogEN++fRYcvqZDwh1wC0EOuAIhfn+ST/CPEWoA+4g0AEH+BjmKUIdcAOBDrTM5zBPEepA+wh0oEUhhHmKUAfaRaADLQkpzFOEOtAeAh1oQYhhniLUgXYQ6EDDQg7zlEL95LNjBkBzCHSgQTGEeWrXI0Pm+FOEOtAUAh1oSExhnjrw2DChDjSEQAcacGT7SHRhniLUgWYQ6EDNFOZHto+amBHqQP0IdKBGhPldhDpQLwIdqAlh/iBCHagPgQ7UgDBfHaEO1INABypGmGcj1IHqEehAhQhze4Q6UC0CHagIYZ4foQ5Uh0AHKkCYF0eoA9Ug0IGSCPPyCHWgPAIdKIEwrw6hDpRDoAMFEebVI9SB4gh0oADCvD6EOlAMgQ7kRJjXj1AH8iPQgRwI8+YQ6kA+BDpgiTBvnkL96E7uOWCDQAcsEObtObRtJLn/ANZGoAMZCPP26f4T6sDaCHRgDYS5Owh1YG0EOrAKwtw9hDqwOgIdWAFh7i5CHVgZgQ7chzB3H6EOPIhAB5Y5MDlMmHuCUAfuRaADtynMjz/NRiY+IdSBuwh0wBDmPiPUgSUEOqJHmPuPUAcIdESOMA8HoY7YEeiIFmEeHkIdMSPQESXCPFyEOmJFoCM6hHn4CHXEiEBHVAjzeBDqiA2BjmgQ5vEh1BETAh1R2PXIEGEeKUIdsSDQEbwdE11z8lnCPGaEOmJAoCNoCvMzz60zEyMdg7gR6ggdgY5gEea4H6GOkBHoCBJhjtUQ6ggVgY7gEObIQqgjRAQ6gkKYwxahjtAQ6AgGYY68CHWEhEBHEAhzFEWoIxQEOrxHmKMsQh0hINDhNcIcVSHU4TsCHd6a3NBJdoAjzFEVQh0+I9DhJYX5H3evG3ymCKNahDp8RW0I7xDmqBuhDh9RI8IrhDmaQqjDN9SK8AZhjqYR6vAJNSO8QJijLYQ6fDFsAMcR5mibQl2mLs6bJmkFx/7Hhsy+R4fNjo1dZ1Z0XPimZy5c7Zmpj+fM9PW+gRs6Q29e49WAswhzuOTg+7fMiekF0wTtsaBlma6X/amLc40/6GBl1JJwFmEO1xx/eswcmKy/YzPdMMmHsq/ei+NPjRm0j5oSTiLM4aq6Q93HDZMOPDbMPAMHUFvCOYQ5XFdnqKvF62PZP7RthF0bW0aNCacQ5vBFXaH+3U1+lv10Ah/aQ60JZxDm8E3Voa6xc5/L/65HCPQ2UXPCCYQ5fFVlqE+M+t1lPTFMl3ubqD3ROsIcvmtq9juwFmpQtIowRygIdbSNWhStIcwRGkIdbaImRSsIc4SKUEdbqE3ROMIcoSPU0QZqVDSKMEcsCHU0jVoVjSHMERtCHU2iZkUjCHPEilBHU6hdUTttCXny24Q54kWoownUsKiVwvzMoGW+YyNFDXEj1FE3alnUhjAH7kWoo06ULNQi9jA/9+WiOfXFgrk8a8yFmcU7v//waMdMjnfNrk1d88LmoWCHIWK//rX8/PFRc36mN7gvPQNUqTP05rW+ASoUa5jPzPfNsU8XBh/zyf/b0OlUarHtD6DVFvv156H7s+fdmw+Euu6H3ju+0oPcnrM3DdpBoKNSsYa5gmzq4px1kN3P91UAsV9/ESuFOoGOMhjcRGViDHNVygffv2UOn79VOMxkerZvnnznZhKMPon9+stI3i/PrUvOQAeqQElCJWINc7WwTkxXE0L6fgrGqYvzxgexX38VCHVUiVKE0mLtZj/4l7laJjap6/qNafdbqrFff1UIdVSFEoRSYg1ztSI1i7suhz+aG3RDuzsLOvbrr9rdUO8YoCgCHaXEGOYa71Ursk5LY9P1/htFxX79dVGoH905ZoCiCHQU9sunx6JcZ/76xWaC5txXi8msYdfEfv2Aqwh0FKIwj23tsKh1ajsJLF2C9PWL42bh5Q3m0vPjyX2bHLfvVnVtglje69f1ptevz75fP+AyAh25xRrmcvqKXZgd2T6ShLlCTV2porXWum+XfjBuvf2nWqllloNVLe/163rT69fn9Pr15zZcu37AZQQ6cok5zOXUF9ldwAqrI9tH1/wa7em9a9OQsXH6ijvdzjbXr4eVrOvXnx/aZleOXLp+wGUEOqzFHuaSNaarVnhWmKWOPm73dedn3Ak0mzHt1yxb37pPaet9LS5dP+AyAh1WCPOl8eMstq1u0bpjm2VKl68ZJ9hc/75Hh623b1WY26y9duX6AdcR6MhEmC+5ajGWm3dzkJ0T2Q8AMwtujCFbXf/GfOuodz2Sfb9cuX7AdQQ61kSYA4AfCHSsijC/18MW473T1/PtbjZ93Z/Wp831n/sy3/VzJjhQHQIdKyLMH6QJb1ne+Nx+mZXGpG0mmbmyHajN9Sug81z/qSv+XD/gOgIdDzi6c5QwX0VWuCjMpj622wzl4F9vWX2dzTh7U6q8ftsd51y6fsBlBDruoTXUh7bZLTuKkTaKyXLss/k1dzhLzxC33db0u5vceZtWcf2iP7fdcc6l6wdcxjsFd9hsiBI7LcuyocNLnnjnxqBLeeFOF7RODzv26bx58g83cm2farsMrAl5rn/r29eTY1DT69dn/XrP2ZvWh7to1YBL1w+4jH5VJAhzOwpYrTXXlqRZNJ780nt23eqr2feoW93Nun51u1+YyR4n1xj5K++Xu/5X6S0CrPHoC8I8J9t9yKugrmmXZoIv/TzNzMxP974HYId3S+RcCHN1xV74pmdOfbFgLs+qZXu39btl0N2qHcX2bR5KxlJd6H5VK1X7kB/71K7bvAzdmz3v3jRnnluXe9OaqinMpy42d0b58ac4GxzIozP05jW2YYpU22GusFIoalzZdqmTwvTIP4xYTc6qk35ejYU3tY5cDzVthnrTYV5n2dRrpwNftEe8ehsuz97tAdEDpI53Vfly5QHSJ5roqTkSaAeBHqm2w1xBroAoejSmTvTSISBtVrgaI/7eu+GHeihhrtfr2GdzufYK2Ld5OPl52u4d8QWB3i4CPUJthrkqUk0Us12ytRaNsf5852hS6bYl9FAPIczTnqAy1+HCA6QPCPR2UToj02aYK/zUTV1FmKffTw8Hb0zXP5a9Gj1UfPD99dZne5eVjqk3MVGuyTDXg8rJZ8cqL5sqI7pfZa9Dywy/d/YmW9XCaQR6RNpumdfVkn3l/VuVPSQUoTA6unPMXHp+PPfYvv6uxmzzaCLUi4Z5ketXubz0g/WV97SkvSdV3af04YBQh6voco9E22Pmh8/PJZPf6pK0lPeuTwKibar4T19ZMKe+WExm798/XqufVWvZFX4vbF4KwCJBUVf3e9EwT8uYrv9PXy0m+7TrQSvr+ut4zeocCml7gqLL6HJvF4EegbbDXKH2xP+/Yeqmcc7jT7u51Gn69kzq1cZgi7a6qw6XsmG+mqzrr5q21j1R41CMSw+QLiHQ28UjZuBcWGd++EIz47CqwNvsel+LgmytMCsazFV2v9cV5pJ1/VXSnIoTNc+rSGbM19jjBBRBoAfMhTBXwNqGrLpgz+xeZ75+cdwsvLzBfPiP65NjXPOMMWtzGl+1Gep1hnnTpj5u5gFSM+eLLrsE6kCgB8qVitZ2BrqObFWYK9TTbswdG7vJ1p+aRW57KEieNcYuaiPUi4a5XjPXwlzlzXbcXN3muoZLz69PHiD1IKmZ9rbnry8th6OVDncQ6AFyqdVk0zrPOrJVIXf8mVGrkEu3kfVZk6FeNMzVc+LiMbs63c6G5ltoDFzXkA4FLG0xPGw+3DtuvV9/E9v/ArYI9MC4FOYKmKzWklpJNj/v0tIwu+sKYVlRE6FeJsxdPTTl3JfZ161eIE2eXGtCm8qkzd4CS2WcZWxwA4EeENfGM21aynmCYXl3/Jr/biDrhOsM9RDDXNdrM9xy/Cm794jeSzbl7U9fEuhwA4EeCF+PQM0bVhpXzzLT3E6ltasj1EMMc7FpKeuh0Ha2ve79/seyN8qZniXQ4QYCPQA+n2d+tYY5RTMLYc08TkPddmJgaqVQDzXM5arFZeXdlW9yPLuKvDzLTHe4gUD3nM9hLnlbN5evZX993krbB8le598ZSyZz5bE81EMOcwAEutdUubsc5lssujbzHKyiGfM2S5K2bAh39y5N5ioS6k+8c4MwHzifc36FzXyMkMsb/EKge8rlbU5TmsGeNaloacctu1DXdp42Qt9ju0ioF+FbmNu87groPJMmbZZdsv0rXEGge8iHME/t25w9qejw+Vtrhnpyhvqfb1lvGJL3xC8f1R3qPrbMt1g8QMrhj+x6KjREYVPmOKQFrqAkesanMBfbUFCoH7x9DGq69Ejj69qJS2eo227pqvsTS4uprlD3tZtdr7tNuJ77ajGzt8d2vkFyclwED5DwAzNdPOJbmEuyTGi8Y9XSOVHBoRqxTd5Ky0NVh5H4PmauHiEFdpbkIJ/B12kOync3LR0ck+4yOPXJvP35A5sIc7iD41M94WOYp7Qd50vv2Y1/l+HzPSqriuNCQ5gAp1De+vsbje3nr33gmzpFzgccn9ouSqIHfA8q7Y9dd0tG3a2vbXdvb/GmlO1+D2U2u8rBkYbKge43YQ6XUBodF0qrU2uo61wffvTx0egr16KhHtrSNB24UvcDpMbOY36AhJsIdIeF1IWsltMfn1tfS6irRcbGJ0vyhnqom8ZkHb5S1slvr6N1DudQIh0V4niwWjVVh7qLZ3K37TXL+6EJi6E+CKmsndm9rpZQ10OQzZkCQNMolQ7Snt2hTu5KQ73scistT/rwH9c7eSY33KDQVahX9QCphwO2wYXLCHTHKKiOPxN2i1OhrgeWD/euz72GNz0XXX+XVhKyqIxU8QCpcvrB3nWEOZxG6XSIwlynasWyMUpyvYMWlDaN0U5wWVSp6uuBPNIHSJWfZP255Rpz0QPBq99ijgb8QBPHEbGF+XITw+yFjfoplPVA+EvL4SwNfWlYhzCHLwh0B8Qc5oCrJphrCc8Q6C0jzAGEYmKUeqxNBHqLCHMAIVGddoQNd1pDoLeEMAcQIu0LQai3g0BvAWEOIGSEejsI9IYR5gBiQKg3j/UYDSLM/aM1y1onf3nWmAszd9cvPzzaMZPjXbNrU9e8sHmIfb2BFaTbMk9dnDeoH4HekGRvacLcCzpL+9inC4OP+dXP1Z7tmwvf9MypK8YcPr+06Y12I2PNMnAvQr05NCsakOxfvpsw94GCfOvvbwwqn7nVw3wFasm/8v4ts/Xt62Z6tmcA3EX3ezNoTtQsDXO6ZN2m8P73j+aSrUHLmB603J9852ZSgR3axtvrfrrPb3y+YM591UuGMGbmzJ0HJ71XtmxYGsbYt3k4GaIKVYz3gZZ6/ahxakSY+0EV6Z53bw4q1mpa1vp+h8/fSj7TKlmiHoypT+bX3EddD0PTs4tLXzuo9EPcRz32+0Co14ukqQlh7o+Df5mrLMyXU7f9GyVb/L5beriZM3vO3sx1KIpojoKGMZ5454b3wxjch7vofq8PaVMDwtwfailoFntdDg+68WMdU0+GH/5wI5lcWIYetjSMceqKnw9H3IcHEer1IHEqRpj7QxWtWtF1Usvs4Pv1/hsu0r393ruDFuV1+4mFa9F9fOm9W971eCzNqeA+rIR5JtUjdSpEmPvl9YvNBO25rxZzd7P6rOowX05dz77cy/Q+5FktYcun+7CWozvHkuWeqAbJUxHC3C+qbG1ntGuNuc7R/vrFcbPw8obkjGydqT05br8MMaZJQC+9d7OWME8d/OutWkKyatwHO8efJtSrQvpUgDD3z2nLccijO0eTMFeop/sIaNaxZhx/8P31Zt+jdhWRWukhVL5Z1BVcxwTD5ZKhko/dfkDiPuRDqFeDBCqJMPfTqS+yuys1aefQttUn7ijgjz8zar1O+PSV8Lvdpz5uZhjj2GfzTk825D7kR6iXRwqVQJj7K2v8Ua9tumZ2LQp1teJtnJ8JO9DVKrXtYlaPh4Yt0mEMfc47jOHqxLA890HlTOXn0vPr79yHk8+ODR4S/b8PRRDq5ZBEBRHm/lJXZZY8m3gs745fy+VrJmi2cxLU86FhDN3j9L7ps3596Qfj1suZtE2vi2zvg4Lrg73rk16gtB7RfdDucB/u9f8+FEWoF0caFUCY++2qxVh23u02Na6eZWYh7DF0m1nXqqizej5slzNpTkLd49RF2NwHPQQquNZ6EPT9PpShe7Nr05BBPiRSToR5HK6yM2UutoHymmWrU2Fm0+vhWpDZ/jzHn7IbpvH1PlTh5HfGgt7Pvw7crRwI8zA8bFFB5p1oNDMX9wlr09ezr18rAmzfOwoxm8rctQlhNvdBrfM892H/Y9kt1RB3I9S168hpQt0ed8oSYR4OvZZZ8kw00pj8hRmbbvxwj8+9ajGpe8fGfNe/65Hs99rlWbeGMWzuQ56Jf0tf7999qAqhng93yQJhHp6scFVI20420gYfNnZOMCYI5EWo2+MOZSDMw6SZxFl0BOpaob60T7v9Fpzf3RR3GTr3Zb5uYZtx4S0b/Ov1OD/DfciLULfD3VkDYe4WHSNZ1eQf2xm0CvU0tNOd3jReqZOzdIJWnu1jQy5HNhWtXjvb3fLUQ3LKYiMe1yp42/uQpxzbPDDaTJzzHaGejTuzCsLcPQqDPe/erCTUFbC2oa7Q1jnWf/fWdTP821mz9e0bydnWefbpDn1drVqIWaGi1892q1Lbg3Nce3/a3AfRsbo2dAaATTlTeY6B7u3JZ9flnocQC9JqBYS5u6oM9abOY1Z52h94oNvOStdWpVkH1ejPbXo+dF9da63Z3gft7a+en7XoPtgc7+vifahTUj8/t55QXwGJdZ/kCfDbhLnLqgp1tWqaOI9ZD4cxOPT/7O6lQmrr29eTlQRpF7w+v3G7J8T2jPoXNrvZKrW9D3poSe9DuuxM90Fd7HnuQ4wbsBDqK2N/vWWSMZpB5Wuz6xeqo/utN2aeLuw01MuOqWnjjtP/vVjbMZfqBYjl4VDBoveQzTi5xshfed9udcBqbE+6a9qOh+0Dtor78FpDPU2uSUNdZ87XeUytT0iu2wjz9ujeF3narqKlXvTftqEwtzngJRS6l0caDBctF3RuY5lBQCtgmqK5GTH3JtJSvxfpZQhzFxR9Y1YR6nVUCrGFeUoHjTTVBZyE56Br2pVQT8O8qdaiym2srfPlCPW7ok8wwtwdbYe6TvoqO6au76PyFGOYp47nPAa1DFdCvekwF+b63EWoL4m6NBDm7mkz1OXozjFz6fnx3MvM0u5mHYcZyxKi1TRdubYd6m2Euc6Op966F6EecaAT5u5qO9T176uVqdOebCjAv35x3PpkrBjEEupNh/nSOuyx4JdBFhV7qEeZZoS5+9oOdZkYJpzLSF/DpjbVaTrUmw5zPTh+sHed1bbFMYs51KNLNMLcHy6EOspJezs+HAxF5A2iZLvcnK99U6FeNMx1P/I+4Og+qM46w2ZX1mIN9age9Qhz/+iN+cH31+cO6KrWqaMaeg3UVTw9O2r+9NVisk+7Qnf5a7q049lQchKeZsoryIoEZxrqde32WCbM05/pte357gPyi3GdelSBTpj7KT2UgVD3nyrZyQ3D1mPARSvlukK9ijBPf53nPqCY2EI9mlqOWaF+K3rSkkL9iXduJNtrwk9Fu0+r7n6vKszRLN1/HegSw4TVKEqYwpwnYf+VOT5R22sS6v5qO9QJc7+pMace2tBDPfhSRpiHhVCPV1uhTpiHIYZQD7qkEeZhItTjlU6SzPvaFw11wjwsoYd6sKXt6M5RwjxghHq8ir72eUOdMA+TQl0rLkIUZInTOk8dEoGwEerxKhPqUxfnrb723FeLhHmgtBTwSIAH2wRX6jiBKC6EerzKvPZ1IMz9EuJWzcGVPG3EwBsqLoR6vFwJdcLcT2VPV3RNcKWPcfM4EerxajvUCXN/7Z8Mqzc3uBLI5jHxItTj1VaoE+Z+0+sXkuBKIcdXxo1Qj1fToU6YhyGkA1yC65/WVp+Eupv02rzx+UKyH7tmEM/MLf2eqHLcMqgYdSDFvkeHSx1IUXTvd1GoC0M3firz2udBmIdjxm7RgxcIdNTu3JeLZuqT+eTzarScaHp2cfA1xhz7dCGpMDULtWiwVhHqWyI8TzkEdYc6YR4O5UXaqAhBcCXy9H8vGrhBb5TD5+fMnrM31wzzlSjgFaxb375eeMtOut/jVVf3O2EeltNXwsqL4ErlqcBeIF8pkNVCOvZpuf4sfZ+tb99IWu1FlKnYTxDoXqs61Anz8IT2Hg+uZGps9tQVKuI2pVtmVtndefj8Lesdvu7n2gYkaE5Vrz1hHh7lRN6eQ9cFWToPvj9X2RnIyKfo/tc2pi7OFe4GJ9TjVfa1J8zDo3rq3z+aM6EJsoRq7LaKM5CR3+uD0K0jzFOHP5prZUwdfiv62hPm4amz0dG2YEtperISE5uao3td95iUHtbUA1MUod4svV6aR3Hw9gTHv3vruhn+7WzyoV9rwqSGU5ro+sz72hPm4VE5CzXMpTP05rUwr2yZdAmU3shU5PXZ+vvrjb1RdKZxmbXqCpqqljXp59DP44qliYTXM7+uzp/bZqni/couVbSln0kPEll0Gpd+HvhNPXqazX7qi8XgxszvF8XuGekSKBe5FgZF6Y1iG+bJ0YX/MJJs06tW04VveubC1Z6Z+ti+u14T5M60tPkMVqcHJb02RVY3pO9TzZWgZewn24dJ1IPtsFAJ26GNoztHHzirXsGujxc2D5mDf5kbPElnfy+tZlC3Ldyhyvyl98o/IKVLFY/uHAvuNCygTjwCoxI2XVnqwrw/zJdTq/n4M6MMi3jItaWKQIyoOVGaulmzusrT8dEsCnW14uEPV5cqArEh0FGaxsCz5JnopDF2n/bjV+9EzKHj8lJFICYEOhqRtxvdt3PtY9373YelikAsCHQ04moEQ6ExhrpWJjRBkyBDX3IElEWgo7SJ0ezu8bxdppev+dnFGlOo512q+Munx8zXL46bhZc3JJ/168kcR9QyQQ5YG4GO0rZsyK6U84RcnqBwUSyhbnuNWt2gvRY0jyKdG6HP+vWlH4wnf25DM+hDOrsaqBqBjtJUOWe1tDQT2vYI1IOObgKURwyhbtMFfmAQ2lmrG/TnNuvNFeY2EzCBWBHoqMQLf5+9a5vWFa8V6qqwX/rzrWD2WQ451G2WKsprlq1vhbrNygZ29QNWxzZMqMS+R4etWuAK9Qszi0l3a7r1a7rXsrYLtQ1z/XsnvzNmmlJ07/d0y+G69ydvmk1LWa+R7fatKgdaCaHJb2v+uwQ6sCoCHZXQpKddm4YyK2Q5UcFSp6a3BC2z93uooZ5lx8Z8ewnseiQ70GdYvQasii53VMZ2clNZGpctc9JaUWWOXo11nXrVZhaYFAeshkBHZRSy6matk0L1tYYeHFb79wl1u6WK577M15Nh0/ORZ5kbEBsCHZXS4Sp1VrrHnx5t/VhNQt1uqWKeZWZaBXHqSvZwjc2/C8SKQEelFHZ/fG59LaGuLv19m90Yh4491G2WKiZno39stxmM9oO3oXkaAFZGoKNyOlmtylBXeGhXMZvT2poUe6jbLFU89tl85g5v+nPbSZJtzJ0AfEGgoxYKde0CVnY2uirwD/auc3aGeMyhbjtfQkegbn37enKtaRe8PuvXe87eTP7cxoHIVgkAefEOQa2O7hwzh741mnSp5lmqpiBXBe7DUq9Yl7TlWaqoMfJXSu4A2OZkSMAHBDpqp9b68UGX+WuDLvM/DSp/TX7SZjKXB5V82mLT12zZ0B0ERDcJCd+6VmMNdc1r2HO2/lPQ9HBXxWRIPViEsLUwsBICHY1RaE9u8KPVXUSMoa4HLw2r2O7TX4TKTRWtc4X59969EczWwsD9GEMHKhTjmLomK9a6VPGpsdKtc8IcMSDQgYrFFup1LlXU6oaywy+EOWJBoAM1iC3U61iqePLZsdJDEEXDXNcT29778B+BDtQkxlDXUsWye/qnSxXLbiJUJsz/uHtd6zsSAnlRYoEaxTqmfun58dzrxhXkZwZBeqaCMCXMESNKLVCzGEM9Xapoe2Z9GuZVLFckzBErSi7QgFh3lJsYbvYwFcIcMaP0Ag3hlLZ6EeaIHSUYaFDZUK9zAxefEeYAgQ40rkyoHz5/K/P0stgQ5sASSjLQgjKhrtPJCPUlhDlwF6UZaAmhXg5hDtyLEg20iFAvhjAHHkSpBlpGqOdDmAMro2QDDiDU7RDmwOoo3YAjCPW1EebA2ijhgEMI9ZUR5kA2SjngmLKh/vrgIySEOWCHkg44qEyonwhoi1jCHLBX7sBhoKSZ+b45fWXRnPty8PHVopmZW/o9UaW8ZVAh75jomH2PDldyEpdP0lDf8+5Nc2GmZ2JDmAP5EOhohSprdQ2fGoR5GuArfc30rMLeJHuYq6LWWdv7J+MptrGGOmEO5EepR+M0cevJd24kXcOrhflKVMnrgJKtb1+PKtzKdL/7KKYwV/mfnu3leh8Aq6GFjsaooj7411tJ93rZ7/PE4IFArfUj20dMDGJpqYce5ktDS71keOnCNw8G+Y6NXbPz4W7SCxXbEBPKI9DRiKIV9Vqmbs/mJtTDEHKYK8inPpnPfJhVyOtDvVcxDjGhHLrc0YiX3rtZaZinFOoxnREeavf75UG3c4hhroeUPWdvJh95e6aWDzGpWx7IQqCjdofPz9XaotQZ4Yyp+y2ZABlYmKulrYeUKoaYtr59I6oHVxRDXw5qpcro2Kf17152+KO5JORcoAr81BcLg1bnoFKfuVuZPzzaMZPjXbNrU9e8sHmoVBDFvqTNhzBXq7zKyW56cNX3i2WICfkR6KiVJsE1QZOMFKRtTSRSRasWlB5eVq3EBw83quhPXVHlbJKf9cBgfLToGGmsoe5LN3sdM9c1xJTsy7CZqhsPossdtVHFZtvdqHA7M6ikv35x3Cy8vMF8+I/rzS+fHhu0aDvGVlv7mCvIt/7+RlLZ5qnEdW/KjpHGtqTNhwlw6mavcxnawffnGFPHigh01ObYZ3Z7ih/dOZqEuUJdASVavqOW6wffX5/sEmcj2WmuwfW8+rcODgI57QotSg8+T75zs/AYaSyh7kOY66Gyjsmfy6ms/ftHcRyXi3wIdNTmwkx2xabxwEPbVh8TVFgdf2bUOqy0jWwTVKmqq7uqfdP1/fRgULSXIfRQ9yHM9WD2xufNBK3maJSdbIfwMBCD2mRVOOk62ywKK7XiNS6Z5fzMotnfQLE++Jd6Zu6r2173pci4eqhj6slD3VNjyf+73NV8+krPunWu1/jQt0buTI7UA12yVv3inNWDsCjU2XwGyxHoqIVaK1nyhFbaHZ/VtX35mqmdWtGqTOuiGfvf3dQt1BrN8/Dji6Q3JKDr0UTInz8+emd4SfT/muimD9tz7d/4fHHwWhvgDrrcUYvLFi2pvN3DGlfPMrNQ7/ilHlSmaj5vfGlsPqwzzbFED6bHnx67J8zvp16rQ9uyH3ZVTmJcsojVEeioxcRo9uz0qx7O63n9YjNBmy7DQ1iOP5U9xCQK9bVCP0UZwXIEOmrxsEVllHc89PK1dlsjap3bToK7fxnepefHvVmGV5XkMJ73m9mHwAcqE7bDKArz/Y9lj49zShuWI9BRC036yWphvJFjhrhaIjYTjrTpRl1OX7H7eTVz//5leOlEt0s/GE/GUG00vQyvSnUcxuO7PA9zS1+fXT1fnuX+4i4CHbXJGiNf2hbWLiRtW3q7NtU36/fUF9ndmwrzrJn7GkO1/TmbWoZXJcIcaAeBjtrseiS7eGnt9VqhrhbqS3++ZR0Oda7DrmoZnhx93O7rzs/4FeiE+erO55zAZjPhbcuG+nqk4B8CHbWxbYUq1NUCV2CmXcwaX9e+6E/+4Yb1ErE8Y5R52SzDy9M7oAcPm+GBJpbhVYUwX5sCOs+sdJsJb7Fs+Qs7rENHbRSwCjmNBWfRZLOyu67VOX5+dd5m/D5f5bpzYmhQwa99zXUvw6sKYW7H9lRA2y1kXd45D80j0FErjSnvOdtMt7G67hWSRU8vQzFFw1wTBifsRh68MDOXPetcD7fqjdI8itUozG32OtAQDy10LEfNh1qpla5NMooePJLXK7cnz1Ud6lbL8K7nGyMNoTVbNMx92Js9L63aeMVi8qZ6ohTsmm+R7giYbBLzTc9MfTJvf0LhJrZ9xb0IdNROFde5L3uN7WpVR6hPWkw+0lacR7b3rTYEsT1ats5hhLII83tpX3ab7YlF9+6Vkmv0X9s+YoDl6K9B7VTJnXx2Xe51uGWosnxjutpegaxwVUU+9bHdZjAH/2pXmWsIwUWE+YOSffQfb2YMQUNZjJ/jfpQINCKpyJ9b3+iYX9WhroMzshz7bH7NHd7SM9Rtu1XVJesawnx16hWquys8OaltG61zPIhAR2NUEX24d33SumhKlaFuW1FrQtMT79wwp64srLgML8/2sa6FH2Ge7eR3xmrrjVIvgO6jzbAO4sMYOhqnMfX9kyPJQSd5lqols3ofHsp9dGlVY+p5luFpvsBL75UbIz3g2Gx9wtxOErqD3qiql/El591HdB+RHyUDrVAlr6U76aEl6s5Wd/zyloe+Jp0lr4pMX6vWT5Ggq6ql3lTvQrr3uysI83zSIaaqWur6fnoP2BwhjHjRQkerVFFNbhjOFV7pGt68G9FU0VJvahmeQtAVhHkxun4dxqMhmDIn5+17dNgcf2aUbnZk4nEPXlKot9VS15BBnTP2XZrBTJiXp/Ki3qW85TU9gle9UoQ5bNBCh7faaqnXNUYqNqe1NYUwr046xPTzx0eTFQ6ah3Fhpm8uz97dm0GbF+1M9vjvmv2PDRPiyI1Ah9faCvV0jLTKUCfMw6eQ1nwRmyWQQF686+C9trrf0zFSjamXkU54IswBlME7D0Foc0z96M6xQmOkaq2pVf7B3vXJeKkLCHPAX/T7IBhtzn5Px0hf+Psh89Kfs9efpxOeXEKYA37jHYigtNlSl4lhPycyEeaA/3gXIjhth7pvCHMgDLwTESRC3Q5hDoSDdyOCRaivTWugCXMgHEyKQ9DanCjnOrXO8yLMAXfxrkTwaKlXgzAH3MY7E1Eg1MshzAH38e5ENAj1YghzwA+8QxEVQj0fwhzwB+9SRIdQt0OYA37hnYooEeprI8wB//BuRbQI9ZUR5oCfeMciaoT6vQhzwF+8axE9Qn0JYQ74jZ3iAMOOcrGH+cx837zx+YI591XPXJhZNDNzS78nujdbBvdl16au2bd52OyY4IEHbiLQ4TRVqqevLJpzXw4+vrq3op0Y6ZgdG7uDCrZj9j06nJwxXkasoR5zmKtcTX0yn3xejbbInZ5dKoNTF+eTMvfqt0aC3hYYfqJEwkmqRF+/OGdODcI8DfD76feToP/SmGOfLiTBdGT7aKmKtmyobxn36zz0WMNcZUfhfOzTeZPXhW96yev9n4O/e/LZMYYo4AxKIpyjivbJd24kobpamK9EDwGqaLe+fX3NFleWWMbUYw1zlZMn/3CjUJgvd2GmNyinNwcPnWwNDDcQ6HCGKto9Z28OAn0uV5Cv/n2KV9hFQ/2ER4Gu3owYw7zIkbGrUTl96T32+4cb6HKHE6quaEUPBnJk+4gpomj3O9xURxlLqXdGwy1l53EAZdBChxNeeu9mLRWtQl3j60UVbanDPXWVsdTBv94q1bMElEWgo3WHz88l45H1ff9bpb4/oe4/dYnXWcZEPQBTH5cblwfKINDRKlWCZScn2Tj80Zwpg1D329TH5V5/W8c+mx+U6XofHIDVEOholbopm6A17GUnLhHqftLrbtvVrpn/R3eOmkvPrzcLL28wX784nixN014Hef49oA3UTmiNWue2y8s02ejIP4wkm3poQxmtBb5wtZe0vGwr6xOfL5TeDISJcvnVORmtSnpY+/njo0n5Sun/tTucPjQfw2blhOZsaAUB0DQCHa059pldN6haTIe23TtTPdkhbvDxwuYhc/Avc+bUF9kBq1b68G9nDZrjS5jrgTF9WFuNQlqT3rImWeprNF7PFrFoGiUOrbkwk13Ja8nZ/WG+nFpQx58ZpfJ0kC9hLsefsmtRK9SXt+BXU/cEPGAl1IJoTVZ3e7qVaxZVsGrFwx0+hbla57Yb7Kis7X8se605E+PQBgIdrVCFnyXPeLcqZZuWkyv0MBPq5Cmfwlwmc+6/PzmeXW1enmU9OppHoKMVly1aMHm70TWm7pPQzlMX38IcCAmBjlZMjGa3iq5GsEdHSKHua5ifzznebTM+vmWDX6fuIQwEOlrxsEX3eN5xyMvX/By3DCHUtYxQJ+T52DJXQOeZxGaz1NKn4R+Eg0BHKzThLavSyxNyqmR97ub1OdQV5jrdzud9zG13EtQ6dJtyxiEtaAOBjtZkjZEvbQtrF3IH329mx7k6+RjqIYS5aI+CrDKkME9P8FuLHlZZRok2sLEMWrPrkW5Ska5FB6vIoW0rF1UFiTaWCWUS1iu3Q2W/B1vMFg1zBd4fd69r7Cx2nRWgA4CyaPc/lUctlfzupm7y8yWbxAyuc+qTeftdDTfROkc7CHS0Zqniy575tnRa2mIScunWrxpfP31lMamsbcNcraYP9643TVKrL+82sT6Eui9hLvsfG05a1zY/q3qFXinZ2/Pa9hEDtIFAR2s0zqhQz2qli0Kx7P7pr25rvqItuve7y6HuU5iLHgC146BNK70s7Qff9PUBKUoeWnWkodaMwqStcCx6SpuLY+q+hXlK2wfX3RWua6R1jjYR6GiVWumrjY9XSWHSphBC3dcwT+k1yLsrXB4nv93+NSJulD60TpOQ6pwVrF4AFypan0Pd9zBPf5aTz66rZY34LwevrW87FSI8lEC0ThWsKto6Wk8Kc5fOpvYx1EMI85RC94O96ysra0tld8yLVQkIH4EOJySV/3PrK22p6wQ2l8I85VOohxTmqbSsHSgZwhou+mDvOrNvM2EONxDocIYqWi0rKztRTt/nzCBMDm1zd4KSD6EeYpin9DPqNVB5y7urm75e5euM49eI+PBoCeeoVb1/csS8fnEu13IvVdKHvjXidJAv5/KStpDDfDn1CCmYtf78T18tmlNXFpM9Dpbv7b6089vQ4KOTzJRnW1e4ikCHk9IW1GuDcF9e0eqc6TRk9DVbBsGhinbfo8NeVrQuhnosYb6cfvbJDcOMhcNrlF44LYaK1qVQjzHMgVDw7gMc4MKYOmEO+I13IOCINkOdMAf8x7sQcEgboU6YA2FgDB1wTNkx9S05Nk0hzIFw8G4EHNRES/08YQ4EhRY64KiiLXXbrz/2WfZZ9PcjzAF38a4EHFa0pV4HwhxwG+9MwHEuhDphDriPdyfggTZDnTAH/MA7FPCEQv3QtmZDnTAH/MG7tGUzc/lmGCNuR3eOlT6NzhZhjrwuz/YM2sM7tWU61SnvsiHETafR1R3qhDmKWH5KHZrHu9UBxz7Nv3wIcasz1AlzFEVd1i7esQ449ukCrXTkVkeoE+YoSvXY9HXqsTbxrnWAwnzPuzcJdeRWZagT5ihKWwhPXZwzaBfvXEdo7OnJd26YaSaVIKcqQp0wR1FqmRfZQhjV6wy9eY1XwTFab7x/8LFjY9dMjNgftIG4qYU0dZHtXFE/NTxOX1k0p75YNOe+XDRwA4EOAEAAeCQHACAABDoAAAEg0AEACACBDgBAAAh0AAACQKADABAAAh0AgAAQ6AAABIBABwAgAAQ6AAABINABAAgAgQ4AQAAIdAAAAkCgAwAQAAIdAIAAEOgAAASAQAcAIAAEOgAAASDQAQAIAIEOAEAACHQAAAJAoAMAEAACHQCAABDoAAAEgEAHACAABDoAAAEg0AEACACBDgBAAAh0AAACQKADABAAAh0AgAAQ6AAABIBABwAgAAQ6AAABINABAAgAgQ4AQAAIdAAAAkCgAwAQAAIdAIAAEOgAAASAQAcAIAAEOgAAASDQAQAIAIEOAEAACHQAAALQ7RszbQAAgM+maaEDAOC5jjEz3U6nf94AAAB/dRToPXPZAAAAf/X6F7od05k2AADAW8ryrumaswYAAHir3++f786PzE+r790AAAAvLfz4b852zYsbFeZMjAMAwEOdzlJPe7JsrdszpwwAAPBOf9Gc0Ock0Of7Q78zAADAO4tm6Kw+L20s8+P1Gkc/awAAgDeS7nZluFm2lzvd7gAA+CXtbpfOnd9965uJofmRz03fTBgAAOC66cUfPfRY+ou7e7m/uHGm0+//pwEAAM7r9Ponlv/6nsNZFkYXfsGadAAAnDe9YIZ/vfw37j1tjVY6AADOS1rntyfD3fm9B75KY+lzIx8N/m/SAAAA19wzdp568Dx0tdJ7/X8xAADAPT3zs5V+u7vSb2pPWLreAQBwi7J58ccP/XqlP+uu9pcWxhZ+Ovg0bQAAgAumF8Ye+ulqf7hqoKvrfbE39Byz3gEAaFmnv5TJL3ZWzeTumt9AM+j6PcbTAQBoU7/7L/fPar/f2oE+sPijv/1dv2/+zQAAgMZ1ev2fLf5oQ+YhapmBLr1/fugX+oYGAAA0Rtm78OO/+anV15ochn/zvz/tdzv/YQAAQK26g97x+UGD2vbrcwW6DL35Pz80ne6vOMQFAIAadPozGjO36Wa/56+ZIn5zY3Kou/iuYTc5AACqNJ3MZs+YALcSqzH0Bwz+ocXR+cfZfAYAgGokm8aMbni8SJgnf9+UNPSbaz8ZPBZoXH3SAACAvKa15bp2aTUllA701O0JcwcMwQ4AQLbBWHln0fznwrqHfrHWhjHW385UaTC2PmwWfkKwAwCwioqD/M63NTVJuuKHzAHTN7sNAACR63TM2V7PnOqNbfh1lUF+5/ubumlGvFncTbgDAKKilrjpnFeIj/aHfnez4GQ363/ONGww1r671+ns7Jr+5KBrfkenbyb6JlnTPmkAAPDP9NKnzvlOv3e5ZzrTQ11zdn5kw3QdLfHV/B+3+Sznmup5fgAAAABJRU5ErkJggg==;" parent="1" vertex="1">
          <mxGeometry x="220" y="208.19" width="83" height="83" as="geometry" />
        </mxCell>
        <mxCell id="09JvDn1SVirU3Hl2ZJZC-34" value="" style="image;html=1;image=img/lib/clip_art/networking/Firewall_02_128x128.png" parent="1" vertex="1">
          <mxGeometry x="370" y="50" width="80" height="80" as="geometry" />
        </mxCell>
        <mxCell id="09JvDn1SVirU3Hl2ZJZC-36" style="edgeStyle=orthogonalEdgeStyle;rounded=0;orthogonalLoop=1;jettySize=auto;html=1;dashed=1;strokeWidth=2;" parent="1" edge="1">
          <mxGeometry relative="1" as="geometry">
            <mxPoint x="90" y="350" as="sourcePoint" />
            <mxPoint x="260" y="351" as="targetPoint" />
          </mxGeometry>
        </mxCell>
        <mxCell id="09JvDn1SVirU3Hl2ZJZC-37" value="Send values to homeautomation" style="text;html=1;align=center;verticalAlign=middle;resizable=0;points=[];autosize=1;fillColor=default;" parent="1" vertex="1">
          <mxGeometry x="80" y="420" width="200" height="30" as="geometry" />
        </mxCell>
        <mxCell id="09JvDn1SVirU3Hl2ZJZC-38" value="" style="sketch=0;outlineConnect=0;fontColor=#232F3E;gradientColor=none;fillColor=#7AA116;strokeColor=none;dashed=0;verticalLabelPosition=bottom;verticalAlign=top;align=center;html=1;fontSize=12;fontStyle=0;aspect=fixed;pointerEvents=1;shape=mxgraph.aws4.mqtt_protocol;" parent="1" vertex="1">
          <mxGeometry x="168.3" y="360" width="28" height="28" as="geometry" />
        </mxCell>
        <mxCell id="09JvDn1SVirU3Hl2ZJZC-40" value="" style="endArrow=none;dashed=1;html=1;dashPattern=1 3;strokeWidth=4;rounded=0;entryX=0.5;entryY=1;entryDx=0;entryDy=0;" parent="1" target="09JvDn1SVirU3Hl2ZJZC-34" edge="1">
          <mxGeometry width="50" height="50" relative="1" as="geometry">
            <mxPoint x="410" y="610" as="sourcePoint" />
            <mxPoint x="440" y="410" as="targetPoint" />
          </mxGeometry>
        </mxCell>
        <mxCell id="p9WUKPQGS_wCIRIAuK6o-7" value="" style="endArrow=none;dashed=1;html=1;dashPattern=1 3;strokeWidth=4;rounded=0;" parent="1" target="09JvDn1SVirU3Hl2ZJZC-8" edge="1">
          <mxGeometry width="50" height="50" relative="1" as="geometry">
            <mxPoint x="670" y="610" as="sourcePoint" />
            <mxPoint x="670" y="291.19" as="targetPoint" />
          </mxGeometry>
        </mxCell>
        <mxCell id="2djdZgb50zTOuKUGwxSe-1" style="edgeStyle=orthogonalEdgeStyle;rounded=0;orthogonalLoop=1;jettySize=auto;html=1;endArrow=none;endFill=0;" parent="1" edge="1">
          <mxGeometry relative="1" as="geometry">
            <mxPoint x="261" y="430" as="targetPoint" />
            <mxPoint x="261" y="290" as="sourcePoint" />
          </mxGeometry>
        </mxCell>
        <mxCell id="2djdZgb50zTOuKUGwxSe-2" style="edgeStyle=orthogonalEdgeStyle;rounded=0;orthogonalLoop=1;jettySize=auto;html=1;endArrow=none;endFill=0;" parent="1" edge="1">
          <mxGeometry relative="1" as="geometry">
            <mxPoint x="90" y="430" as="targetPoint" />
            <mxPoint x="90.5" y="280" as="sourcePoint" />
          </mxGeometry>
        </mxCell>
        <mxCell id="2djdZgb50zTOuKUGwxSe-3" value="" style="html=1;verticalLabelPosition=bottom;align=center;labelBackgroundColor=#ffffff;verticalAlign=top;strokeWidth=2;strokeColor=#0080F0;shadow=0;dashed=0;shape=mxgraph.ios7.icons.wifi;pointerEvents=1" parent="1" vertex="1">
          <mxGeometry x="166.60000000000002" y="310" width="29.7" height="21" as="geometry" />
        </mxCell>
        <mxCell id="S2mzUhyFXXrTw-qbx1LE-14" value="{&#xa;        &quot;temperature&quot;: 42,&#xa;        &quot;humidity&quot;: 5,&#xa;        &quot;battery&quot;: 3.932,&#xa;        &quot;abat&quot;: 582,&#xa;        &quot;rssi&quot;: &quot;-66&quot;,&#xa;        &quot;wifitries&quot;: 2,&#xa;        &quot;mqtttries&quot;: 1,&#xa;        &quot;localip&quot;: &quot;192.168.68.101&quot;,&#xa;        &quot;ssid&quot;: &quot;dlink-4ECC&quot;&#xa;    }" style="text;whiteSpace=wrap;html=1;" parent="1" vertex="1">
          <mxGeometry x="111.45" y="530" width="180" height="180" as="geometry" />
        </mxCell>
        <mxCell id="S2mzUhyFXXrTw-qbx1LE-15" value="home/sensor/sw_&amp;lt;deviceid&amp;gt;" style="text;whiteSpace=wrap;html=1;" parent="1" vertex="1">
          <mxGeometry x="90" y="490" width="130" height="40" as="geometry" />
        </mxCell>
      </root>
    </mxGraphModel>
  </diagram>
  <diagram id="V_qN5o6BjI0Dl5FV7fna" name="Send Discopvery Msg">
    <mxGraphModel dx="1358" dy="848" grid="1" gridSize="10" guides="1" tooltips="1" connect="1" arrows="1" fold="1" page="1" pageScale="1" pageWidth="827" pageHeight="1169" math="0" shadow="0">
      <root>
        <mxCell id="0" />
        <mxCell id="1" parent="0" />
        <mxCell id="f0HfYLJ9ekt_4IT0-Ttl-1" value="" style="shape=image;verticalLabelPosition=bottom;labelBackgroundColor=default;verticalAlign=top;aspect=fixed;imageAspect=0;image=https://www.sensorwebben.se/img/sensor.jpg;" vertex="1" parent="1">
          <mxGeometry x="120" y="181.81" width="88.7" height="81.19" as="geometry" />
        </mxCell>
        <mxCell id="f0HfYLJ9ekt_4IT0-Ttl-2" value="" style="shape=image;verticalLabelPosition=bottom;labelBackgroundColor=default;verticalAlign=top;aspect=fixed;imageAspect=0;image=data:image/png,iVBORw0KGgoAAAANSUhEUgAAAfQAAAH0CAYAAADL1t+KAAAACXBIWXMAAAsTAAALEwEAmpwYAAAAAXNSR0IArs4c6QAAAARnQU1BAACxjwv8YQUAADbISURBVHgB7d1JjFXXgf/x815NULjbhdR4YVqiLBH+UrMAy5MURwGLNFk4MrGsdjobSJs97qbXppPyOijNniR4Ezkt5IDiRfwPMkTxIo4tg2S8sJFcSI0XtiUX3RRDDe/1+93iQgFVdc+dz/D9SOUyUBR17zvv/O6ZO6ZBE2/1J2bnZycXe2Z3t2O29E1nsm/6O/VnHWMmDQAAnukbMz34NNPpDD765nyvby53h/rnF/7pb86aBnVMzda9dWNy7tbiDztds88ovPudCQMAQAw65uzgvydGFofO3vzx+mlTo1oCXS3x/7k1+5MkxPtmtwEAIHa3w33x5Yd+bWpQaaAnQb5w/dVOv/evtMQBAFjRdL/b+fXoQvdEla32SgKdIAcAILck2Hv/tOFnpgKlA334v/53d7/X+ZVhUhsAAEVMD9L4Z2W74gsHetIqn5v9j8E3+FcDAABKGeTpLxZG539mXtw4YwooFOjrfnNjcr67+K6hVQ4AQJWmR3pDzxUZW++anIbenP3h/NDCR4YwBwCgamowfzT05v/80OSUK9C7v73+qjH9t5j4BgBAbQYZ232r+1+z/5HnL1kHur5xp9/7hQEAALXr9Po/zRPqVmPoSZgPvrEBAACN6vfNv/X++aHMBnVmoGvMPOlmBwAALem9uPijv/3dWl+xZqAns9k1AY4xcwAA2jQz0ht6fK3Z76uOoWudebI0jTAHAKBtS5n81jerZvKqga5NYwxL0wAAcMXk8NzIqpPkVuxyH/rttZ+YvvmVAQAATun0+s8t/PjBs9ZXbqH3Ta61bwAAoBn9budXK3W9PxDot9e8TRoAAOCiQdf78APnqNzT5c4e7QAAeGFmcXT+seUHudzTQp8b7h0whDkAAK6buL+Vfk+gDwbaf2IAAIDz+qbz6vKx9DuBnsxsp3UOAIAvJkZujfwk/cXyFvoBAwAAvNHrmn3p/yeT4m5PhvvcAAAAr4z0hh7TlrBJC31+aHG3AQAA3lnsLP5Qn9Mud7rbAQDwUNrtnnS5D715rW8AAICPkjXp3eH/+t/dBgAA+GpiZH5ksttZ7Ow0AADAXz2zu9s3/UkDAAC8pSzv9rudHQYAAHirb8wg0PtmwgAAAH91Oju0bI1ABwDAc90O+7cDAOC7ya4BAADeI9ABAAgAgQ4AQAAIdAAAAkCgAwAQAAIdAIAAEOgAAASAQAcAIAAEOgAAASDQAQAIAIEOAEAACHQAAAJAoAMAEAACHQCAABDoAAAEgEAHACAABDoAAAEg0AEACACBDgBAAAh0AAACQKADABAAAh0AgAAQ6AAABIBABwAgAAQ6AAABINABAAgAgQ4AQAAIdAAAAkCgAwAQAAIdAIAAEOgAAASAQAcAIAAEOgAAASDQAQAIAIEOAEAAhg2AoEyMdMy+zUPmhcHHjomumdxw97n9wjc9M329Z05fWTQnphcMgHB0ht681jcAgnBo27A5sn00CfUs07N98/rFOYIdCASBDgRAAX7y2TGz65Ehk9epKwvm4PtzZmaeqgDwGWPogOcmN3TMB3vXFQpz2bd5ePD315vJ8exWPQB3EeiAxxTmf9y97p5x8sLf5zlCHfAZgQ54St3sVYR5ilAH/EagAx5SmJ+pMMxThDrgLwId8Ewa5js21vP2VaiffHad1Ux5AO4g0AGP1B3mKX1//TuEOuAPAh3wRFNhniLUAb8Q6IAHmg7zFKEO+INABxzXVpinCHXADwQ64LC2wzxFqAPuI9ABR7kS5ilCHXAbgQ44yLUwTxHqgLsIdMAxroZ5ilAH3ESgA445/vSos2GeItQB9xDogEN++fRYcvqZDwh1wC0EOuAIhfn+ST/CPEWoA+4g0AEH+BjmKUIdcAOBDrTM5zBPEepA+wh0oEUhhHmKUAfaRaADLQkpzFOEOtAeAh1oQYhhniLUgXYQ6EDDQg7zlEL95LNjBkBzCHSgQTGEeWrXI0Pm+FOEOtAUAh1oSExhnjrw2DChDjSEQAcacGT7SHRhniLUgWYQ6EDNFOZHto+amBHqQP0IdKBGhPldhDpQLwIdqAlh/iBCHagPgQ7UgDBfHaEO1INABypGmGcj1IHqEehAhQhze4Q6UC0CHagIYZ4foQ5Uh0AHKkCYF0eoA9Ug0IGSCPPyCHWgPAIdKIEwrw6hDpRDoAMFEebVI9SB4gh0oADCvD6EOlAMgQ7kRJjXj1AH8iPQgRwI8+YQ6kA+BDpgiTBvnkL96E7uOWCDQAcsEObtObRtJLn/ANZGoAMZCPP26f4T6sDaCHRgDYS5Owh1YG0EOrAKwtw9hDqwOgIdWAFh7i5CHVgZgQ7chzB3H6EOPIhAB5Y5MDlMmHuCUAfuRaADtynMjz/NRiY+IdSBuwh0wBDmPiPUgSUEOqJHmPuPUAcIdESOMA8HoY7YEeiIFmEeHkIdMSPQESXCPFyEOmJFoCM6hHn4CHXEiEBHVAjzeBDqiA2BjmgQ5vEh1BETAh1R2PXIEGEeKUIdsSDQEbwdE11z8lnCPGaEOmJAoCNoCvMzz60zEyMdg7gR6ggdgY5gEea4H6GOkBHoCBJhjtUQ6ggVgY7gEObIQqgjRAQ6gkKYwxahjtAQ6AgGYY68CHWEhEBHEAhzFEWoIxQEOrxHmKMsQh0hINDhNcIcVSHU4TsCHd6a3NBJdoAjzFEVQh0+I9DhJYX5H3evG3ymCKNahDp8RW0I7xDmqBuhDh9RI8IrhDmaQqjDN9SK8AZhjqYR6vAJNSO8QJijLYQ6fDFsAMcR5mibQl2mLs6bJmkFx/7Hhsy+R4fNjo1dZ1Z0XPimZy5c7Zmpj+fM9PW+gRs6Q29e49WAswhzuOTg+7fMiekF0wTtsaBlma6X/amLc40/6GBl1JJwFmEO1xx/eswcmKy/YzPdMMmHsq/ei+NPjRm0j5oSTiLM4aq6Q93HDZMOPDbMPAMHUFvCOYQ5XFdnqKvF62PZP7RthF0bW0aNCacQ5vBFXaH+3U1+lv10Ah/aQ60JZxDm8E3Voa6xc5/L/65HCPQ2UXPCCYQ5fFVlqE+M+t1lPTFMl3ubqD3ROsIcvmtq9juwFmpQtIowRygIdbSNWhStIcwRGkIdbaImRSsIc4SKUEdbqE3ROMIcoSPU0QZqVDSKMEcsCHU0jVoVjSHMERtCHU2iZkUjCHPEilBHU6hdUTttCXny24Q54kWoownUsKiVwvzMoGW+YyNFDXEj1FE3alnUhjAH7kWoo06ULNQi9jA/9+WiOfXFgrk8a8yFmcU7v//waMdMjnfNrk1d88LmoWCHIWK//rX8/PFRc36mN7gvPQNUqTP05rW+ASoUa5jPzPfNsU8XBh/zyf/b0OlUarHtD6DVFvv156H7s+fdmw+Euu6H3ju+0oPcnrM3DdpBoKNSsYa5gmzq4px1kN3P91UAsV9/ESuFOoGOMhjcRGViDHNVygffv2UOn79VOMxkerZvnnznZhKMPon9+stI3i/PrUvOQAeqQElCJWINc7WwTkxXE0L6fgrGqYvzxgexX38VCHVUiVKE0mLtZj/4l7laJjap6/qNafdbqrFff1UIdVSFEoRSYg1ztSI1i7suhz+aG3RDuzsLOvbrr9rdUO8YoCgCHaXEGOYa71Ursk5LY9P1/htFxX79dVGoH905ZoCiCHQU9sunx6JcZ/76xWaC5txXi8msYdfEfv2Aqwh0FKIwj23tsKh1ajsJLF2C9PWL42bh5Q3m0vPjyX2bHLfvVnVtglje69f1ptevz75fP+AyAh25xRrmcvqKXZgd2T6ShLlCTV2porXWum+XfjBuvf2nWqllloNVLe/163rT69fn9Pr15zZcu37AZQQ6cok5zOXUF9ldwAqrI9tH1/wa7em9a9OQsXH6ijvdzjbXr4eVrOvXnx/aZleOXLp+wGUEOqzFHuaSNaarVnhWmKWOPm73dedn3Ak0mzHt1yxb37pPaet9LS5dP+AyAh1WCPOl8eMstq1u0bpjm2VKl68ZJ9hc/75Hh623b1WY26y9duX6AdcR6MhEmC+5ajGWm3dzkJ0T2Q8AMwtujCFbXf/GfOuodz2Sfb9cuX7AdQQ61kSYA4AfCHSsijC/18MW473T1/PtbjZ93Z/Wp831n/sy3/VzJjhQHQIdKyLMH6QJb1ne+Nx+mZXGpG0mmbmyHajN9Sug81z/qSv+XD/gOgIdDzi6c5QwX0VWuCjMpj622wzl4F9vWX2dzTh7U6q8ftsd51y6fsBlBDruoTXUh7bZLTuKkTaKyXLss/k1dzhLzxC33db0u5vceZtWcf2iP7fdcc6l6wdcxjsFd9hsiBI7LcuyocNLnnjnxqBLeeFOF7RODzv26bx58g83cm2farsMrAl5rn/r29eTY1DT69dn/XrP2ZvWh7to1YBL1w+4jH5VJAhzOwpYrTXXlqRZNJ780nt23eqr2feoW93Nun51u1+YyR4n1xj5K++Xu/5X6S0CrPHoC8I8J9t9yKugrmmXZoIv/TzNzMxP974HYId3S+RcCHN1xV74pmdOfbFgLs+qZXu39btl0N2qHcX2bR5KxlJd6H5VK1X7kB/71K7bvAzdmz3v3jRnnluXe9OaqinMpy42d0b58ac4GxzIozP05jW2YYpU22GusFIoalzZdqmTwvTIP4xYTc6qk35ejYU3tY5cDzVthnrTYV5n2dRrpwNftEe8ehsuz97tAdEDpI53Vfly5QHSJ5roqTkSaAeBHqm2w1xBroAoejSmTvTSISBtVrgaI/7eu+GHeihhrtfr2GdzufYK2Ld5OPl52u4d8QWB3i4CPUJthrkqUk0Us12ytRaNsf5852hS6bYl9FAPIczTnqAy1+HCA6QPCPR2UToj02aYK/zUTV1FmKffTw8Hb0zXP5a9Gj1UfPD99dZne5eVjqk3MVGuyTDXg8rJZ8cqL5sqI7pfZa9Dywy/d/YmW9XCaQR6RNpumdfVkn3l/VuVPSQUoTA6unPMXHp+PPfYvv6uxmzzaCLUi4Z5ketXubz0g/WV97SkvSdV3af04YBQh6voco9E22Pmh8/PJZPf6pK0lPeuTwKibar4T19ZMKe+WExm798/XqufVWvZFX4vbF4KwCJBUVf3e9EwT8uYrv9PXy0m+7TrQSvr+ut4zeocCml7gqLL6HJvF4EegbbDXKH2xP+/Yeqmcc7jT7u51Gn69kzq1cZgi7a6qw6XsmG+mqzrr5q21j1R41CMSw+QLiHQ28UjZuBcWGd++EIz47CqwNvsel+LgmytMCsazFV2v9cV5pJ1/VXSnIoTNc+rSGbM19jjBBRBoAfMhTBXwNqGrLpgz+xeZ75+cdwsvLzBfPiP65NjXPOMMWtzGl+1Gep1hnnTpj5u5gFSM+eLLrsE6kCgB8qVitZ2BrqObFWYK9TTbswdG7vJ1p+aRW57KEieNcYuaiPUi4a5XjPXwlzlzXbcXN3muoZLz69PHiD1IKmZ9rbnry8th6OVDncQ6AFyqdVk0zrPOrJVIXf8mVGrkEu3kfVZk6FeNMzVc+LiMbs63c6G5ltoDFzXkA4FLG0xPGw+3DtuvV9/E9v/ArYI9MC4FOYKmKzWklpJNj/v0tIwu+sKYVlRE6FeJsxdPTTl3JfZ161eIE2eXGtCm8qkzd4CS2WcZWxwA4EeENfGM21aynmCYXl3/Jr/biDrhOsM9RDDXNdrM9xy/Cm794jeSzbl7U9fEuhwA4EeCF+PQM0bVhpXzzLT3E6ltasj1EMMc7FpKeuh0Ha2ve79/seyN8qZniXQ4QYCPQA+n2d+tYY5RTMLYc08TkPddmJgaqVQDzXM5arFZeXdlW9yPLuKvDzLTHe4gUD3nM9hLnlbN5evZX993krbB8le598ZSyZz5bE81EMOcwAEutdUubsc5lssujbzHKyiGfM2S5K2bAh39y5N5ioS6k+8c4MwHzifc36FzXyMkMsb/EKge8rlbU5TmsGeNaloacctu1DXdp42Qt9ju0ioF+FbmNu87groPJMmbZZdsv0rXEGge8iHME/t25w9qejw+Vtrhnpyhvqfb1lvGJL3xC8f1R3qPrbMt1g8QMrhj+x6KjREYVPmOKQFrqAkesanMBfbUFCoH7x9DGq69Ejj69qJS2eo227pqvsTS4uprlD3tZtdr7tNuJ77ajGzt8d2vkFyclwED5DwAzNdPOJbmEuyTGi8Y9XSOVHBoRqxTd5Ky0NVh5H4PmauHiEFdpbkIJ/B12kOync3LR0ck+4yOPXJvP35A5sIc7iD41M94WOYp7Qd50vv2Y1/l+HzPSqriuNCQ5gAp1De+vsbje3nr33gmzpFzgccn9ouSqIHfA8q7Y9dd0tG3a2vbXdvb/GmlO1+D2U2u8rBkYbKge43YQ6XUBodF0qrU2uo61wffvTx0egr16KhHtrSNB24UvcDpMbOY36AhJsIdIeF1IWsltMfn1tfS6irRcbGJ0vyhnqom8ZkHb5S1slvr6N1DudQIh0V4niwWjVVh7qLZ3K37TXL+6EJi6E+CKmsndm9rpZQ10OQzZkCQNMolQ7Snt2hTu5KQ73scistT/rwH9c7eSY33KDQVahX9QCphwO2wYXLCHTHKKiOPxN2i1OhrgeWD/euz72GNz0XXX+XVhKyqIxU8QCpcvrB3nWEOZxG6XSIwlynasWyMUpyvYMWlDaN0U5wWVSp6uuBPNIHSJWfZP255Rpz0QPBq99ijgb8QBPHEbGF+XITw+yFjfoplPVA+EvL4SwNfWlYhzCHLwh0B8Qc5oCrJphrCc8Q6C0jzAGEYmKUeqxNBHqLCHMAIVGddoQNd1pDoLeEMAcQIu0LQai3g0BvAWEOIGSEejsI9IYR5gBiQKg3j/UYDSLM/aM1y1onf3nWmAszd9cvPzzaMZPjXbNrU9e8sHmIfb2BFaTbMk9dnDeoH4HekGRvacLcCzpL+9inC4OP+dXP1Z7tmwvf9MypK8YcPr+06Y12I2PNMnAvQr05NCsakOxfvpsw94GCfOvvbwwqn7nVw3wFasm/8v4ts/Xt62Z6tmcA3EX3ezNoTtQsDXO6ZN2m8P73j+aSrUHLmB603J9852ZSgR3axtvrfrrPb3y+YM591UuGMGbmzJ0HJ71XtmxYGsbYt3k4GaIKVYz3gZZ6/ahxakSY+0EV6Z53bw4q1mpa1vp+h8/fSj7TKlmiHoypT+bX3EddD0PTs4tLXzuo9EPcRz32+0Co14ukqQlh7o+Df5mrLMyXU7f9GyVb/L5beriZM3vO3sx1KIpojoKGMZ5454b3wxjch7vofq8PaVMDwtwfailoFntdDg+68WMdU0+GH/5wI5lcWIYetjSMceqKnw9H3IcHEer1IHEqRpj7QxWtWtF1Usvs4Pv1/hsu0r393ruDFuV1+4mFa9F9fOm9W971eCzNqeA+rIR5JtUjdSpEmPvl9YvNBO25rxZzd7P6rOowX05dz77cy/Q+5FktYcun+7CWozvHkuWeqAbJUxHC3C+qbG1ntGuNuc7R/vrFcbPw8obkjGydqT05br8MMaZJQC+9d7OWME8d/OutWkKyatwHO8efJtSrQvpUgDD3z2nLccijO0eTMFeop/sIaNaxZhx/8P31Zt+jdhWRWukhVL5Z1BVcxwTD5ZKhko/dfkDiPuRDqFeDBCqJMPfTqS+yuys1aefQttUn7ijgjz8zar1O+PSV8Lvdpz5uZhjj2GfzTk825D7kR6iXRwqVQJj7K2v8Ua9tumZ2LQp1teJtnJ8JO9DVKrXtYlaPh4Yt0mEMfc47jOHqxLA890HlTOXn0vPr79yHk8+ODR4S/b8PRRDq5ZBEBRHm/lJXZZY8m3gs745fy+VrJmi2cxLU86FhDN3j9L7ps3596Qfj1suZtE2vi2zvg4Lrg73rk16gtB7RfdDucB/u9f8+FEWoF0caFUCY++2qxVh23u02Na6eZWYh7DF0m1nXqqizej5slzNpTkLd49RF2NwHPQQquNZ6EPT9PpShe7Nr05BBPiRSToR5HK6yM2UutoHymmWrU2Fm0+vhWpDZ/jzHn7IbpvH1PlTh5HfGgt7Pvw7crRwI8zA8bFFB5p1oNDMX9wlr09ezr18rAmzfOwoxm8rctQlhNvdBrfM892H/Y9kt1RB3I9S168hpQt0ed8oSYR4OvZZZ8kw00pj8hRmbbvxwj8+9ajGpe8fGfNe/65Hs99rlWbeGMWzuQ56Jf0tf7999qAqhng93yQJhHp6scFVI20420gYfNnZOMCYI5EWo2+MOZSDMw6SZxFl0BOpaob60T7v9Fpzf3RR3GTr3Zb5uYZtx4S0b/Ov1OD/DfciLULfD3VkDYe4WHSNZ1eQf2xm0CvU0tNOd3jReqZOzdIJWnu1jQy5HNhWtXjvb3fLUQ3LKYiMe1yp42/uQpxzbPDDaTJzzHaGejTuzCsLcPQqDPe/erCTUFbC2oa7Q1jnWf/fWdTP821mz9e0bydnWefbpDn1drVqIWaGi1892q1Lbg3Nce3/a3AfRsbo2dAaATTlTeY6B7u3JZ9flnocQC9JqBYS5u6oM9abOY1Z52h94oNvOStdWpVkH1ejPbXo+dF9da63Z3gft7a+en7XoPtgc7+vifahTUj8/t55QXwGJdZ/kCfDbhLnLqgp1tWqaOI9ZD4cxOPT/7O6lQmrr29eTlQRpF7w+v3G7J8T2jPoXNrvZKrW9D3poSe9DuuxM90Fd7HnuQ4wbsBDqK2N/vWWSMZpB5Wuz6xeqo/utN2aeLuw01MuOqWnjjtP/vVjbMZfqBYjl4VDBoveQzTi5xshfed9udcBqbE+6a9qOh+0Dtor78FpDPU2uSUNdZ87XeUytT0iu2wjz9ujeF3narqKlXvTftqEwtzngJRS6l0caDBctF3RuY5lBQCtgmqK5GTH3JtJSvxfpZQhzFxR9Y1YR6nVUCrGFeUoHjTTVBZyE56Br2pVQT8O8qdaiym2srfPlCPW7ok8wwtwdbYe6TvoqO6au76PyFGOYp47nPAa1DFdCvekwF+b63EWoL4m6NBDm7mkz1OXozjFz6fnx3MvM0u5mHYcZyxKi1TRdubYd6m2Euc6Op966F6EecaAT5u5qO9T176uVqdOebCjAv35x3PpkrBjEEupNh/nSOuyx4JdBFhV7qEeZZoS5+9oOdZkYJpzLSF/DpjbVaTrUmw5zPTh+sHed1bbFMYs51KNLNMLcHy6EOspJezs+HAxF5A2iZLvcnK99U6FeNMx1P/I+4Og+qM46w2ZX1mIN9age9Qhz/+iN+cH31+cO6KrWqaMaeg3UVTw9O2r+9NVisk+7Qnf5a7q049lQchKeZsoryIoEZxrqde32WCbM05/pte357gPyi3GdelSBTpj7KT2UgVD3nyrZyQ3D1mPARSvlukK9ijBPf53nPqCY2EI9mlqOWaF+K3rSkkL9iXduJNtrwk9Fu0+r7n6vKszRLN1/HegSw4TVKEqYwpwnYf+VOT5R22sS6v5qO9QJc7+pMace2tBDPfhSRpiHhVCPV1uhTpiHIYZQD7qkEeZhItTjlU6SzPvaFw11wjwsoYd6sKXt6M5RwjxghHq8ir72eUOdMA+TQl0rLkIUZInTOk8dEoGwEerxKhPqUxfnrb723FeLhHmgtBTwSIAH2wRX6jiBKC6EerzKvPZ1IMz9EuJWzcGVPG3EwBsqLoR6vFwJdcLcT2VPV3RNcKWPcfM4EerxajvUCXN/7Z8Mqzc3uBLI5jHxItTj1VaoE+Z+0+sXkuBKIcdXxo1Qj1fToU6YhyGkA1yC65/WVp+Eupv02rzx+UKyH7tmEM/MLf2eqHLcMqgYdSDFvkeHSx1IUXTvd1GoC0M3firz2udBmIdjxm7RgxcIdNTu3JeLZuqT+eTzarScaHp2cfA1xhz7dCGpMDULtWiwVhHqWyI8TzkEdYc6YR4O5UXaqAhBcCXy9H8vGrhBb5TD5+fMnrM31wzzlSjgFaxb375eeMtOut/jVVf3O2EeltNXwsqL4ErlqcBeIF8pkNVCOvZpuf4sfZ+tb99IWu1FlKnYTxDoXqs61Anz8IT2Hg+uZGps9tQVKuI2pVtmVtndefj8Lesdvu7n2gYkaE5Vrz1hHh7lRN6eQ9cFWToPvj9X2RnIyKfo/tc2pi7OFe4GJ9TjVfa1J8zDo3rq3z+aM6EJsoRq7LaKM5CR3+uD0K0jzFOHP5prZUwdfiv62hPm4amz0dG2YEtperISE5uao3td95iUHtbUA1MUod4svV6aR3Hw9gTHv3vruhn+7WzyoV9rwqSGU5ro+sz72hPm4VE5CzXMpTP05rUwr2yZdAmU3shU5PXZ+vvrjb1RdKZxmbXqCpqqljXp59DP44qliYTXM7+uzp/bZqni/couVbSln0kPEll0Gpd+HvhNPXqazX7qi8XgxszvF8XuGekSKBe5FgZF6Y1iG+bJ0YX/MJJs06tW04VveubC1Z6Z+ti+u14T5M60tPkMVqcHJb02RVY3pO9TzZWgZewn24dJ1IPtsFAJ26GNoztHHzirXsGujxc2D5mDf5kbPElnfy+tZlC3Ldyhyvyl98o/IKVLFY/uHAvuNCygTjwCoxI2XVnqwrw/zJdTq/n4M6MMi3jItaWKQIyoOVGaulmzusrT8dEsCnW14uEPV5cqArEh0FGaxsCz5JnopDF2n/bjV+9EzKHj8lJFICYEOhqRtxvdt3PtY9373YelikAsCHQ04moEQ6ExhrpWJjRBkyBDX3IElEWgo7SJ0ezu8bxdppev+dnFGlOo512q+Munx8zXL46bhZc3JJ/168kcR9QyQQ5YG4GO0rZsyK6U84RcnqBwUSyhbnuNWt2gvRY0jyKdG6HP+vWlH4wnf25DM+hDOrsaqBqBjtJUOWe1tDQT2vYI1IOObgKURwyhbtMFfmAQ2lmrG/TnNuvNFeY2EzCBWBHoqMQLf5+9a5vWFa8V6qqwX/rzrWD2WQ451G2WKsprlq1vhbrNygZ29QNWxzZMqMS+R4etWuAK9Qszi0l3a7r1a7rXsrYLtQ1z/XsnvzNmmlJ07/d0y+G69ydvmk1LWa+R7fatKgdaCaHJb2v+uwQ6sCoCHZXQpKddm4YyK2Q5UcFSp6a3BC2z93uooZ5lx8Z8ewnseiQ70GdYvQasii53VMZ2clNZGpctc9JaUWWOXo11nXrVZhaYFAeshkBHZRSy6matk0L1tYYeHFb79wl1u6WK577M15Nh0/ORZ5kbEBsCHZXS4Sp1VrrHnx5t/VhNQt1uqWKeZWZaBXHqSvZwjc2/C8SKQEelFHZ/fG59LaGuLv19m90Yh4491G2WKiZno39stxmM9oO3oXkaAFZGoKNyOlmtylBXeGhXMZvT2poUe6jbLFU89tl85g5v+nPbSZJtzJ0AfEGgoxYKde0CVnY2uirwD/auc3aGeMyhbjtfQkegbn37enKtaRe8PuvXe87eTP7cxoHIVgkAefEOQa2O7hwzh741mnSp5lmqpiBXBe7DUq9Yl7TlWaqoMfJXSu4A2OZkSMAHBDpqp9b68UGX+WuDLvM/DSp/TX7SZjKXB5V82mLT12zZ0B0ERDcJCd+6VmMNdc1r2HO2/lPQ9HBXxWRIPViEsLUwsBICHY1RaE9u8KPVXUSMoa4HLw2r2O7TX4TKTRWtc4X59969EczWwsD9GEMHKhTjmLomK9a6VPGpsdKtc8IcMSDQgYrFFup1LlXU6oaywy+EOWJBoAM1iC3U61iqePLZsdJDEEXDXNcT29778B+BDtQkxlDXUsWye/qnSxXLbiJUJsz/uHtd6zsSAnlRYoEaxTqmfun58dzrxhXkZwZBeqaCMCXMESNKLVCzGEM9Xapoe2Z9GuZVLFckzBErSi7QgFh3lJsYbvYwFcIcMaP0Ag3hlLZ6EeaIHSUYaFDZUK9zAxefEeYAgQ40rkyoHz5/K/P0stgQ5sASSjLQgjKhrtPJCPUlhDlwF6UZaAmhXg5hDtyLEg20iFAvhjAHHkSpBlpGqOdDmAMro2QDDiDU7RDmwOoo3YAjCPW1EebA2ijhgEMI9ZUR5kA2SjngmLKh/vrgIySEOWCHkg44qEyonwhoi1jCHLBX7sBhoKSZ+b45fWXRnPty8PHVopmZW/o9UaW8ZVAh75jomH2PDldyEpdP0lDf8+5Nc2GmZ2JDmAP5EOhohSprdQ2fGoR5GuArfc30rMLeJHuYq6LWWdv7J+MptrGGOmEO5EepR+M0cevJd24kXcOrhflKVMnrgJKtb1+PKtzKdL/7KKYwV/mfnu3leh8Aq6GFjsaooj7411tJ93rZ7/PE4IFArfUj20dMDGJpqYce5ktDS71keOnCNw8G+Y6NXbPz4W7SCxXbEBPKI9DRiKIV9Vqmbs/mJtTDEHKYK8inPpnPfJhVyOtDvVcxDjGhHLrc0YiX3rtZaZinFOoxnREeavf75UG3c4hhroeUPWdvJh95e6aWDzGpWx7IQqCjdofPz9XaotQZ4Yyp+y2ZABlYmKulrYeUKoaYtr59I6oHVxRDXw5qpcro2Kf17152+KO5JORcoAr81BcLg1bnoFKfuVuZPzzaMZPjXbNrU9e8sHmoVBDFvqTNhzBXq7zKyW56cNX3i2WICfkR6KiVJsE1QZOMFKRtTSRSRasWlB5eVq3EBw83quhPXVHlbJKf9cBgfLToGGmsoe5LN3sdM9c1xJTsy7CZqhsPossdtVHFZtvdqHA7M6ikv35x3Cy8vMF8+I/rzS+fHhu0aDvGVlv7mCvIt/7+RlLZ5qnEdW/KjpHGtqTNhwlw6mavcxnawffnGFPHigh01ObYZ3Z7ih/dOZqEuUJdASVavqOW6wffX5/sEmcj2WmuwfW8+rcODgI57QotSg8+T75zs/AYaSyh7kOY66Gyjsmfy6ms/ftHcRyXi3wIdNTmwkx2xabxwEPbVh8TVFgdf2bUOqy0jWwTVKmqq7uqfdP1/fRgULSXIfRQ9yHM9WD2xufNBK3maJSdbIfwMBCD2mRVOOk62ywKK7XiNS6Z5fzMotnfQLE++Jd6Zu6r2173pci4eqhj6slD3VNjyf+73NV8+krPunWu1/jQt0buTI7UA12yVv3inNWDsCjU2XwGyxHoqIVaK1nyhFbaHZ/VtX35mqmdWtGqTOuiGfvf3dQt1BrN8/Dji6Q3JKDr0UTInz8+emd4SfT/muimD9tz7d/4fHHwWhvgDrrcUYvLFi2pvN3DGlfPMrNQ7/ilHlSmaj5vfGlsPqwzzbFED6bHnx67J8zvp16rQ9uyH3ZVTmJcsojVEeioxcRo9uz0qx7O63n9YjNBmy7DQ1iOP5U9xCQK9bVCP0UZwXIEOmrxsEVllHc89PK1dlsjap3bToK7fxnepefHvVmGV5XkMJ73m9mHwAcqE7bDKArz/Y9lj49zShuWI9BRC036yWphvJFjhrhaIjYTjrTpRl1OX7H7eTVz//5leOlEt0s/GE/GUG00vQyvSnUcxuO7PA9zS1+fXT1fnuX+4i4CHbXJGiNf2hbWLiRtW3q7NtU36/fUF9ndmwrzrJn7GkO1/TmbWoZXJcIcaAeBjtrseiS7eGnt9VqhrhbqS3++ZR0Oda7DrmoZnhx93O7rzs/4FeiE+erO55zAZjPhbcuG+nqk4B8CHbWxbYUq1NUCV2CmXcwaX9e+6E/+4Yb1ErE8Y5R52SzDy9M7oAcPm+GBJpbhVYUwX5sCOs+sdJsJb7Fs+Qs7rENHbRSwCjmNBWfRZLOyu67VOX5+dd5m/D5f5bpzYmhQwa99zXUvw6sKYW7H9lRA2y1kXd45D80j0FErjSnvOdtMt7G67hWSRU8vQzFFw1wTBifsRh68MDOXPetcD7fqjdI8itUozG32OtAQDy10LEfNh1qpla5NMooePJLXK7cnz1Ud6lbL8K7nGyMNoTVbNMx92Js9L63aeMVi8qZ6ohTsmm+R7giYbBLzTc9MfTJvf0LhJrZ9xb0IdNROFde5L3uN7WpVR6hPWkw+0lacR7b3rTYEsT1ats5hhLII83tpX3ab7YlF9+6Vkmv0X9s+YoDl6K9B7VTJnXx2Xe51uGWosnxjutpegaxwVUU+9bHdZjAH/2pXmWsIwUWE+YOSffQfb2YMQUNZjJ/jfpQINCKpyJ9b3+iYX9WhroMzshz7bH7NHd7SM9Rtu1XVJesawnx16hWquys8OaltG61zPIhAR2NUEX24d33SumhKlaFuW1FrQtMT79wwp64srLgML8/2sa6FH2Ge7eR3xmrrjVIvgO6jzbAO4sMYOhqnMfX9kyPJQSd5lqols3ofHsp9dGlVY+p5luFpvsBL75UbIz3g2Gx9wtxOErqD3qiql/El591HdB+RHyUDrVAlr6U76aEl6s5Wd/zyloe+Jp0lr4pMX6vWT5Ggq6ql3lTvQrr3uysI83zSIaaqWur6fnoP2BwhjHjRQkerVFFNbhjOFV7pGt68G9FU0VJvahmeQtAVhHkxun4dxqMhmDIn5+17dNgcf2aUbnZk4nEPXlKot9VS15BBnTP2XZrBTJiXp/Ki3qW85TU9gle9UoQ5bNBCh7faaqnXNUYqNqe1NYUwr046xPTzx0eTFQ6ah3Fhpm8uz97dm0GbF+1M9vjvmv2PDRPiyI1Ah9faCvV0jLTKUCfMw6eQ1nwRmyWQQF686+C9trrf0zFSjamXkU54IswBlME7D0Foc0z96M6xQmOkaq2pVf7B3vXJeKkLCHPAX/T7IBhtzn5Px0hf+Psh89Kfs9efpxOeXEKYA37jHYigtNlSl4lhPycyEeaA/3gXIjhth7pvCHMgDLwTESRC3Q5hDoSDdyOCRaivTWugCXMgHEyKQ9DanCjnOrXO8yLMAXfxrkTwaKlXgzAH3MY7E1Eg1MshzAH38e5ENAj1YghzwA+8QxEVQj0fwhzwB+9SRIdQt0OYA37hnYooEeprI8wB//BuRbQI9ZUR5oCfeMciaoT6vQhzwF+8axE9Qn0JYQ74jZ3iAMOOcrGH+cx837zx+YI591XPXJhZNDNzS78nujdbBvdl16au2bd52OyY4IEHbiLQ4TRVqqevLJpzXw4+vrq3op0Y6ZgdG7uDCrZj9j06nJwxXkasoR5zmKtcTX0yn3xejbbInZ5dKoNTF+eTMvfqt0aC3hYYfqJEwkmqRF+/OGdODcI8DfD76feToP/SmGOfLiTBdGT7aKmKtmyobxn36zz0WMNcZUfhfOzTeZPXhW96yev9n4O/e/LZMYYo4AxKIpyjivbJd24kobpamK9EDwGqaLe+fX3NFleWWMbUYw1zlZMn/3CjUJgvd2GmNyinNwcPnWwNDDcQ6HCGKto9Z28OAn0uV5Cv/n2KV9hFQ/2ER4Gu3owYw7zIkbGrUTl96T32+4cb6HKHE6quaEUPBnJk+4gpomj3O9xURxlLqXdGwy1l53EAZdBChxNeeu9mLRWtQl3j60UVbanDPXWVsdTBv94q1bMElEWgo3WHz88l45H1ff9bpb4/oe4/dYnXWcZEPQBTH5cblwfKINDRKlWCZScn2Tj80Zwpg1D329TH5V5/W8c+mx+U6XofHIDVEOholbopm6A17GUnLhHqftLrbtvVrpn/R3eOmkvPrzcLL28wX784nixN014Hef49oA3UTmiNWue2y8s02ejIP4wkm3poQxmtBb5wtZe0vGwr6xOfL5TeDISJcvnVORmtSnpY+/njo0n5Sun/tTucPjQfw2blhOZsaAUB0DQCHa059pldN6haTIe23TtTPdkhbvDxwuYhc/Avc+bUF9kBq1b68G9nDZrjS5jrgTF9WFuNQlqT3rImWeprNF7PFrFoGiUOrbkwk13Ja8nZ/WG+nFpQx58ZpfJ0kC9hLsefsmtRK9SXt+BXU/cEPGAl1IJoTVZ3e7qVaxZVsGrFwx0+hbla57Yb7Kis7X8se605E+PQBgIdrVCFnyXPeLcqZZuWkyv0MBPq5Cmfwlwmc+6/PzmeXW1enmU9OppHoKMVly1aMHm70TWm7pPQzlMX38IcCAmBjlZMjGa3iq5GsEdHSKHua5ifzznebTM+vmWDX6fuIQwEOlrxsEX3eN5xyMvX/By3DCHUtYxQJ+T52DJXQOeZxGaz1NKn4R+Eg0BHKzThLavSyxNyqmR97ub1OdQV5jrdzud9zG13EtQ6dJtyxiEtaAOBjtZkjZEvbQtrF3IH329mx7k6+RjqIYS5aI+CrDKkME9P8FuLHlZZRok2sLEMWrPrkW5Ska5FB6vIoW0rF1UFiTaWCWUS1iu3Q2W/B1vMFg1zBd4fd69r7Cx2nRWgA4CyaPc/lUctlfzupm7y8yWbxAyuc+qTeftdDTfROkc7CHS0Zqniy575tnRa2mIScunWrxpfP31lMamsbcNcraYP9643TVKrL+82sT6Eui9hLvsfG05a1zY/q3qFXinZ2/Pa9hEDtIFAR2s0zqhQz2qli0Kx7P7pr25rvqItuve7y6HuU5iLHgC146BNK70s7Qff9PUBKUoeWnWkodaMwqStcCx6SpuLY+q+hXlK2wfX3RWua6R1jjYR6GiVWumrjY9XSWHSphBC3dcwT+k1yLsrXB4nv93+NSJulD60TpOQ6pwVrF4AFypan0Pd9zBPf5aTz66rZY34LwevrW87FSI8lEC0ThWsKto6Wk8Kc5fOpvYx1EMI85RC94O96ysra0tld8yLVQkIH4EOJySV/3PrK22p6wQ2l8I85VOohxTmqbSsHSgZwhou+mDvOrNvM2EONxDocIYqWi0rKztRTt/nzCBMDm1zd4KSD6EeYpin9DPqNVB5y7urm75e5euM49eI+PBoCeeoVb1/csS8fnEu13IvVdKHvjXidJAv5/KStpDDfDn1CCmYtf78T18tmlNXFpM9Dpbv7b6089vQ4KOTzJRnW1e4ikCHk9IW1GuDcF9e0eqc6TRk9DVbBsGhinbfo8NeVrQuhnosYb6cfvbJDcOMhcNrlF44LYaK1qVQjzHMgVDw7gMc4MKYOmEO+I13IOCINkOdMAf8x7sQcEgboU6YA2FgDB1wTNkx9S05Nk0hzIFw8G4EHNRES/08YQ4EhRY64KiiLXXbrz/2WfZZ9PcjzAF38a4EHFa0pV4HwhxwG+9MwHEuhDphDriPdyfggTZDnTAH/MA7FPCEQv3QtmZDnTAH/MG7tGUzc/lmGCNuR3eOlT6NzhZhjrwuz/YM2sM7tWU61SnvsiHETafR1R3qhDmKWH5KHZrHu9UBxz7Nv3wIcasz1AlzFEVd1i7esQ449ukCrXTkVkeoE+YoSvXY9HXqsTbxrnWAwnzPuzcJdeRWZagT5ihKWwhPXZwzaBfvXEdo7OnJd26YaSaVIKcqQp0wR1FqmRfZQhjV6wy9eY1XwTFab7x/8LFjY9dMjNgftIG4qYU0dZHtXFE/NTxOX1k0p75YNOe+XDRwA4EOAEAAeCQHACAABDoAAAEg0AEACACBDgBAAAh0AAACQKADABAAAh0AgAAQ6AAABIBABwAgAAQ6AAABINABAAgAgQ4AQAAIdAAAAkCgAwAQAAIdAIAAEOgAAASAQAcAIAAEOgAAASDQAQAIAIEOAEAACHQAAAJAoAMAEAACHQCAABDoAAAEgEAHACAABDoAAAEg0AEACACBDgBAAAh0AAACQKADABAAAh0AgAAQ6AAABIBABwAgAAQ6AAABINABAAgAgQ4AQAAIdAAAAkCgAwAQAAIdAIAAEOgAAASAQAcAIAAEOgAAASDQAQAIAIEOAEAACHQAAALQ7RszbQAAgM+maaEDAOC5jjEz3U6nf94AAAB/dRToPXPZAAAAf/X6F7od05k2AADAW8ryrumaswYAAHir3++f786PzE+r790AAAAvLfz4b852zYsbFeZMjAMAwEOdzlJPe7JsrdszpwwAAPBOf9Gc0Ock0Of7Q78zAADAO4tm6Kw+L20s8+P1Gkc/awAAgDeS7nZluFm2lzvd7gAA+CXtbpfOnd9965uJofmRz03fTBgAAOC66cUfPfRY+ou7e7m/uHGm0+//pwEAAM7r9Ponlv/6nsNZFkYXfsGadAAAnDe9YIZ/vfw37j1tjVY6AADOS1rntyfD3fm9B75KY+lzIx8N/m/SAAAA19wzdp568Dx0tdJ7/X8xAADAPT3zs5V+u7vSb2pPWLreAQBwi7J58ccP/XqlP+uu9pcWxhZ+Ovg0bQAAgAumF8Ye+ulqf7hqoKvrfbE39Byz3gEAaFmnv5TJL3ZWzeTumt9AM+j6PcbTAQBoU7/7L/fPar/f2oE+sPijv/1dv2/+zQAAgMZ1ev2fLf5oQ+YhapmBLr1/fugX+oYGAAA0Rtm78OO/+anV15ochn/zvz/tdzv/YQAAQK26g97x+UGD2vbrcwW6DL35Pz80ne6vOMQFAIAadPozGjO36Wa/56+ZIn5zY3Kou/iuYTc5AACqNJ3MZs+YALcSqzH0Bwz+ocXR+cfZfAYAgGokm8aMbni8SJgnf9+UNPSbaz8ZPBZoXH3SAACAvKa15bp2aTUllA701O0JcwcMwQ4AQLbBWHln0fznwrqHfrHWhjHW385UaTC2PmwWfkKwAwCwioqD/M63NTVJuuKHzAHTN7sNAACR63TM2V7PnOqNbfh1lUF+5/ubumlGvFncTbgDAKKilrjpnFeIj/aHfnez4GQ363/ONGww1r671+ns7Jr+5KBrfkenbyb6JlnTPmkAAPDP9NKnzvlOv3e5ZzrTQ11zdn5kw3QdLfHV/B+3+Sznmup5fgAAAABJRU5ErkJggg==;" vertex="1" parent="1">
          <mxGeometry x="490" y="160" width="83" height="83" as="geometry" />
        </mxCell>
        <mxCell id="f0HfYLJ9ekt_4IT0-Ttl-3" style="edgeStyle=orthogonalEdgeStyle;rounded=0;orthogonalLoop=1;jettySize=auto;html=1;dashed=1;strokeWidth=2;" edge="1" parent="1">
          <mxGeometry relative="1" as="geometry">
            <mxPoint x="160" y="311" as="sourcePoint" />
            <mxPoint x="530" y="311" as="targetPoint" />
          </mxGeometry>
        </mxCell>
        <mxCell id="f0HfYLJ9ekt_4IT0-Ttl-4" value="Send discovery-message(s) to homeautomation" style="text;html=1;align=center;verticalAlign=middle;resizable=0;points=[];autosize=1;fillColor=default;" vertex="1" parent="1">
          <mxGeometry x="210" y="390" width="280" height="30" as="geometry" />
        </mxCell>
        <mxCell id="f0HfYLJ9ekt_4IT0-Ttl-5" value="" style="sketch=0;outlineConnect=0;fontColor=#232F3E;gradientColor=none;fillColor=#7AA116;strokeColor=none;dashed=0;verticalLabelPosition=bottom;verticalAlign=top;align=center;html=1;fontSize=12;fontStyle=0;aspect=fixed;pointerEvents=1;shape=mxgraph.aws4.mqtt_protocol;" vertex="1" parent="1">
          <mxGeometry x="330" y="320" width="28" height="28" as="geometry" />
        </mxCell>
        <mxCell id="f0HfYLJ9ekt_4IT0-Ttl-6" style="edgeStyle=orthogonalEdgeStyle;rounded=0;orthogonalLoop=1;jettySize=auto;html=1;endArrow=none;endFill=0;" edge="1" parent="1">
          <mxGeometry relative="1" as="geometry">
            <mxPoint x="531" y="381.81" as="targetPoint" />
            <mxPoint x="531" y="241.81" as="sourcePoint" />
          </mxGeometry>
        </mxCell>
        <mxCell id="f0HfYLJ9ekt_4IT0-Ttl-7" style="edgeStyle=orthogonalEdgeStyle;rounded=0;orthogonalLoop=1;jettySize=auto;html=1;endArrow=none;endFill=0;" edge="1" parent="1">
          <mxGeometry relative="1" as="geometry">
            <mxPoint x="160" y="401.81" as="targetPoint" />
            <mxPoint x="160.5" y="251.81" as="sourcePoint" />
          </mxGeometry>
        </mxCell>
        <mxCell id="f0HfYLJ9ekt_4IT0-Ttl-8" value="" style="html=1;verticalLabelPosition=bottom;align=center;labelBackgroundColor=#ffffff;verticalAlign=top;strokeWidth=2;strokeColor=#0080F0;shadow=0;dashed=0;shape=mxgraph.ios7.icons.wifi;pointerEvents=1" vertex="1" parent="1">
          <mxGeometry x="320.3" y="250" width="29.7" height="21" as="geometry" />
        </mxCell>
        <UserObject label="{&#xa;    &quot;name&quot;: &quot;-&quot;,&#xa;    &quot;state_topic&quot;: &quot;home/sensor/sw_&quot;,&#xa;    &quot;unit_of_measurement&quot;: &quot;&quot;,&#xa;    &quot;device_class&quot;: &quot;&quot;,&#xa;    &quot;value_template&quot;: &quot;{{ value_json. }}&quot;,&#xa;    &quot;unique_id&quot;: &quot;sw_-&quot;,&#xa;    &quot;device&quot;: {&#xa;        &quot;identifiers&quot;: [&#xa;            &quot;sw_&quot;&#xa;        ],&#xa;        &quot;manufacturer&quot;: &quot;www.sensorwebben.se&quot;,&#xa;        &quot;model&quot;: &quot;Sensor Model GDC&quot;,&#xa;        &quot;sw_version&quot;: &quot;2.2.1&quot;&#xa;    }&#xa;}" link="{&#xa;    &quot;name&quot;: &quot;-&quot;,&#xa;    &quot;state_topic&quot;: &quot;home/sensor/sw_&quot;,&#xa;    &quot;unit_of_measurement&quot;: &quot;&quot;,&#xa;    &quot;device_class&quot;: &quot;&quot;,&#xa;    &quot;value_template&quot;: &quot;{{ value_json. }}&quot;,&#xa;    &quot;unique_id&quot;: &quot;sw_-&quot;,&#xa;    &quot;device&quot;: {&#xa;        &quot;identifiers&quot;: [&#xa;            &quot;sw_&quot;&#xa;        ],&#xa;        &quot;manufacturer&quot;: &quot;www.sensorwebben.se&quot;,&#xa;        &quot;model&quot;: &quot;Sensor Model GDC&quot;,&#xa;        &quot;sw_version&quot;: &quot;2.2.1&quot;&#xa;    }&#xa;}" id="f0HfYLJ9ekt_4IT0-Ttl-10">
          <mxCell style="text;whiteSpace=wrap;html=1;" vertex="1" parent="1">
            <mxGeometry x="190" y="500" width="340" height="250" as="geometry" />
          </mxCell>
        </UserObject>
      </root>
    </mxGraphModel>
  </diagram>
  <diagram id="a7eyzFFtV8oBjxkmR3yQ" name="Receive Config Msg">
    <mxGraphModel dx="1358" dy="848" grid="1" gridSize="10" guides="1" tooltips="1" connect="1" arrows="1" fold="1" page="1" pageScale="1" pageWidth="827" pageHeight="1169" math="0" shadow="0">
      <root>
        <mxCell id="0" />
        <mxCell id="1" parent="0" />
        <mxCell id="8GFReFHGUgWiscmdhz8u-1" value="" style="shape=image;verticalLabelPosition=bottom;labelBackgroundColor=default;verticalAlign=top;aspect=fixed;imageAspect=0;image=https://www.sensorwebben.se/img/sensor.jpg;" vertex="1" parent="1">
          <mxGeometry x="490" y="160" width="88.7" height="81.19" as="geometry" />
        </mxCell>
        <mxCell id="8GFReFHGUgWiscmdhz8u-2" value="" style="shape=image;verticalLabelPosition=bottom;labelBackgroundColor=default;verticalAlign=top;aspect=fixed;imageAspect=0;image=data:image/png,iVBORw0KGgoAAAANSUhEUgAAAfQAAAH0CAYAAADL1t+KAAAACXBIWXMAAAsTAAALEwEAmpwYAAAAAXNSR0IArs4c6QAAAARnQU1BAACxjwv8YQUAADbISURBVHgB7d1JjFXXgf/x815NULjbhdR4YVqiLBH+UrMAy5MURwGLNFk4MrGsdjobSJs97qbXppPyOijNniR4Ezkt5IDiRfwPMkTxIo4tg2S8sJFcSI0XtiUX3RRDDe/1+93iQgFVdc+dz/D9SOUyUBR17zvv/O6ZO6ZBE2/1J2bnZycXe2Z3t2O29E1nsm/6O/VnHWMmDQAAnukbMz34NNPpDD765nyvby53h/rnF/7pb86aBnVMzda9dWNy7tbiDztds88ovPudCQMAQAw65uzgvydGFofO3vzx+mlTo1oCXS3x/7k1+5MkxPtmtwEAIHa3w33x5Yd+bWpQaaAnQb5w/dVOv/evtMQBAFjRdL/b+fXoQvdEla32SgKdIAcAILck2Hv/tOFnpgKlA334v/53d7/X+ZVhUhsAAEVMD9L4Z2W74gsHetIqn5v9j8E3+FcDAABKGeTpLxZG539mXtw4YwooFOjrfnNjcr67+K6hVQ4AQJWmR3pDzxUZW++anIbenP3h/NDCR4YwBwCgamowfzT05v/80OSUK9C7v73+qjH9t5j4BgBAbQYZ232r+1+z/5HnL1kHur5xp9/7hQEAALXr9Po/zRPqVmPoSZgPvrEBAACN6vfNv/X++aHMBnVmoGvMPOlmBwAALem9uPijv/3dWl+xZqAns9k1AY4xcwAA2jQz0ht6fK3Z76uOoWudebI0jTAHAKBtS5n81jerZvKqga5NYwxL0wAAcMXk8NzIqpPkVuxyH/rttZ+YvvmVAQAATun0+s8t/PjBs9ZXbqH3Ta61bwAAoBn9budXK3W9PxDot9e8TRoAAOCiQdf78APnqNzT5c4e7QAAeGFmcXT+seUHudzTQp8b7h0whDkAAK6buL+Vfk+gDwbaf2IAAIDz+qbz6vKx9DuBnsxsp3UOAIAvJkZujfwk/cXyFvoBAwAAvNHrmn3p/yeT4m5PhvvcAAAAr4z0hh7TlrBJC31+aHG3AQAA3lnsLP5Qn9Mud7rbAQDwUNrtnnS5D715rW8AAICPkjXp3eH/+t/dBgAA+GpiZH5ksttZ7Ow0AADAXz2zu9s3/UkDAAC8pSzv9rudHQYAAHirb8wg0PtmwgAAAH91Oju0bI1ABwDAc90O+7cDAOC7ya4BAADeI9ABAAgAgQ4AQAAIdAAAAkCgAwAQAAIdAIAAEOgAAASAQAcAIAAEOgAAASDQAQAIAIEOAEAACHQAAAJAoAMAEAACHQCAABDoAAAEgEAHACAABDoAAAEg0AEACACBDgBAAAh0AAACQKADABAAAh0AgAAQ6AAABIBABwAgAAQ6AAABINABAAgAgQ4AQAAIdAAAAkCgAwAQAAIdAIAAEOgAAASAQAcAIAAEOgAAASDQAQAIAIEOAEAAhg2AoEyMdMy+zUPmhcHHjomumdxw97n9wjc9M329Z05fWTQnphcMgHB0ht681jcAgnBo27A5sn00CfUs07N98/rFOYIdCASBDgRAAX7y2TGz65Ehk9epKwvm4PtzZmaeqgDwGWPogOcmN3TMB3vXFQpz2bd5ePD315vJ8exWPQB3EeiAxxTmf9y97p5x8sLf5zlCHfAZgQ54St3sVYR5ilAH/EagAx5SmJ+pMMxThDrgLwId8Ewa5js21vP2VaiffHad1Ux5AO4g0AGP1B3mKX1//TuEOuAPAh3wRFNhniLUAb8Q6IAHmg7zFKEO+INABxzXVpinCHXADwQ64LC2wzxFqAPuI9ABR7kS5ilCHXAbgQ44yLUwTxHqgLsIdMAxroZ5ilAH3ESgA445/vSos2GeItQB9xDogEN++fRYcvqZDwh1wC0EOuAIhfn+ST/CPEWoA+4g0AEH+BjmKUIdcAOBDrTM5zBPEepA+wh0oEUhhHmKUAfaRaADLQkpzFOEOtAeAh1oQYhhniLUgXYQ6EDDQg7zlEL95LNjBkBzCHSgQTGEeWrXI0Pm+FOEOtAUAh1oSExhnjrw2DChDjSEQAcacGT7SHRhniLUgWYQ6EDNFOZHto+amBHqQP0IdKBGhPldhDpQLwIdqAlh/iBCHagPgQ7UgDBfHaEO1INABypGmGcj1IHqEehAhQhze4Q6UC0CHagIYZ4foQ5Uh0AHKkCYF0eoA9Ug0IGSCPPyCHWgPAIdKIEwrw6hDpRDoAMFEebVI9SB4gh0oADCvD6EOlAMgQ7kRJjXj1AH8iPQgRwI8+YQ6kA+BDpgiTBvnkL96E7uOWCDQAcsEObtObRtJLn/ANZGoAMZCPP26f4T6sDaCHRgDYS5Owh1YG0EOrAKwtw9hDqwOgIdWAFh7i5CHVgZgQ7chzB3H6EOPIhAB5Y5MDlMmHuCUAfuRaADtynMjz/NRiY+IdSBuwh0wBDmPiPUgSUEOqJHmPuPUAcIdESOMA8HoY7YEeiIFmEeHkIdMSPQESXCPFyEOmJFoCM6hHn4CHXEiEBHVAjzeBDqiA2BjmgQ5vEh1BETAh1R2PXIEGEeKUIdsSDQEbwdE11z8lnCPGaEOmJAoCNoCvMzz60zEyMdg7gR6ggdgY5gEea4H6GOkBHoCBJhjtUQ6ggVgY7gEObIQqgjRAQ6gkKYwxahjtAQ6AgGYY68CHWEhEBHEAhzFEWoIxQEOrxHmKMsQh0hINDhNcIcVSHU4TsCHd6a3NBJdoAjzFEVQh0+I9DhJYX5H3evG3ymCKNahDp8RW0I7xDmqBuhDh9RI8IrhDmaQqjDN9SK8AZhjqYR6vAJNSO8QJijLYQ6fDFsAMcR5mibQl2mLs6bJmkFx/7Hhsy+R4fNjo1dZ1Z0XPimZy5c7Zmpj+fM9PW+gRs6Q29e49WAswhzuOTg+7fMiekF0wTtsaBlma6X/amLc40/6GBl1JJwFmEO1xx/eswcmKy/YzPdMMmHsq/ei+NPjRm0j5oSTiLM4aq6Q93HDZMOPDbMPAMHUFvCOYQ5XFdnqKvF62PZP7RthF0bW0aNCacQ5vBFXaH+3U1+lv10Ah/aQ60JZxDm8E3Voa6xc5/L/65HCPQ2UXPCCYQ5fFVlqE+M+t1lPTFMl3ubqD3ROsIcvmtq9juwFmpQtIowRygIdbSNWhStIcwRGkIdbaImRSsIc4SKUEdbqE3ROMIcoSPU0QZqVDSKMEcsCHU0jVoVjSHMERtCHU2iZkUjCHPEilBHU6hdUTttCXny24Q54kWoownUsKiVwvzMoGW+YyNFDXEj1FE3alnUhjAH7kWoo06ULNQi9jA/9+WiOfXFgrk8a8yFmcU7v//waMdMjnfNrk1d88LmoWCHIWK//rX8/PFRc36mN7gvPQNUqTP05rW+ASoUa5jPzPfNsU8XBh/zyf/b0OlUarHtD6DVFvv156H7s+fdmw+Euu6H3ju+0oPcnrM3DdpBoKNSsYa5gmzq4px1kN3P91UAsV9/ESuFOoGOMhjcRGViDHNVygffv2UOn79VOMxkerZvnnznZhKMPon9+stI3i/PrUvOQAeqQElCJWINc7WwTkxXE0L6fgrGqYvzxgexX38VCHVUiVKE0mLtZj/4l7laJjap6/qNafdbqrFff1UIdVSFEoRSYg1ztSI1i7suhz+aG3RDuzsLOvbrr9rdUO8YoCgCHaXEGOYa71Ursk5LY9P1/htFxX79dVGoH905ZoCiCHQU9sunx6JcZ/76xWaC5txXi8msYdfEfv2Aqwh0FKIwj23tsKh1ajsJLF2C9PWL42bh5Q3m0vPjyX2bHLfvVnVtglje69f1ptevz75fP+AyAh25xRrmcvqKXZgd2T6ShLlCTV2porXWum+XfjBuvf2nWqllloNVLe/163rT69fn9Pr15zZcu37AZQQ6cok5zOXUF9ldwAqrI9tH1/wa7em9a9OQsXH6ijvdzjbXr4eVrOvXnx/aZleOXLp+wGUEOqzFHuaSNaarVnhWmKWOPm73dedn3Ak0mzHt1yxb37pPaet9LS5dP+AyAh1WCPOl8eMstq1u0bpjm2VKl68ZJ9hc/75Hh623b1WY26y9duX6AdcR6MhEmC+5ajGWm3dzkJ0T2Q8AMwtujCFbXf/GfOuodz2Sfb9cuX7AdQQ61kSYA4AfCHSsijC/18MW473T1/PtbjZ93Z/Wp831n/sy3/VzJjhQHQIdKyLMH6QJb1ne+Nx+mZXGpG0mmbmyHajN9Sug81z/qSv+XD/gOgIdDzi6c5QwX0VWuCjMpj622wzl4F9vWX2dzTh7U6q8ftsd51y6fsBlBDruoTXUh7bZLTuKkTaKyXLss/k1dzhLzxC33db0u5vceZtWcf2iP7fdcc6l6wdcxjsFd9hsiBI7LcuyocNLnnjnxqBLeeFOF7RODzv26bx58g83cm2farsMrAl5rn/r29eTY1DT69dn/XrP2ZvWh7to1YBL1w+4jH5VJAhzOwpYrTXXlqRZNJ780nt23eqr2feoW93Nun51u1+YyR4n1xj5K++Xu/5X6S0CrPHoC8I8J9t9yKugrmmXZoIv/TzNzMxP974HYId3S+RcCHN1xV74pmdOfbFgLs+qZXu39btl0N2qHcX2bR5KxlJd6H5VK1X7kB/71K7bvAzdmz3v3jRnnluXe9OaqinMpy42d0b58ac4GxzIozP05jW2YYpU22GusFIoalzZdqmTwvTIP4xYTc6qk35ejYU3tY5cDzVthnrTYV5n2dRrpwNftEe8ehsuz97tAdEDpI53Vfly5QHSJ5roqTkSaAeBHqm2w1xBroAoejSmTvTSISBtVrgaI/7eu+GHeihhrtfr2GdzufYK2Ld5OPl52u4d8QWB3i4CPUJthrkqUk0Us12ytRaNsf5852hS6bYl9FAPIczTnqAy1+HCA6QPCPR2UToj02aYK/zUTV1FmKffTw8Hb0zXP5a9Gj1UfPD99dZne5eVjqk3MVGuyTDXg8rJZ8cqL5sqI7pfZa9Dywy/d/YmW9XCaQR6RNpumdfVkn3l/VuVPSQUoTA6unPMXHp+PPfYvv6uxmzzaCLUi4Z5ketXubz0g/WV97SkvSdV3af04YBQh6voco9E22Pmh8/PJZPf6pK0lPeuTwKibar4T19ZMKe+WExm798/XqufVWvZFX4vbF4KwCJBUVf3e9EwT8uYrv9PXy0m+7TrQSvr+ut4zeocCml7gqLL6HJvF4EegbbDXKH2xP+/Yeqmcc7jT7u51Gn69kzq1cZgi7a6qw6XsmG+mqzrr5q21j1R41CMSw+QLiHQ28UjZuBcWGd++EIz47CqwNvsel+LgmytMCsazFV2v9cV5pJ1/VXSnIoTNc+rSGbM19jjBBRBoAfMhTBXwNqGrLpgz+xeZ75+cdwsvLzBfPiP65NjXPOMMWtzGl+1Gep1hnnTpj5u5gFSM+eLLrsE6kCgB8qVitZ2BrqObFWYK9TTbswdG7vJ1p+aRW57KEieNcYuaiPUi4a5XjPXwlzlzXbcXN3muoZLz69PHiD1IKmZ9rbnry8th6OVDncQ6AFyqdVk0zrPOrJVIXf8mVGrkEu3kfVZk6FeNMzVc+LiMbs63c6G5ltoDFzXkA4FLG0xPGw+3DtuvV9/E9v/ArYI9MC4FOYKmKzWklpJNj/v0tIwu+sKYVlRE6FeJsxdPTTl3JfZ161eIE2eXGtCm8qkzd4CS2WcZWxwA4EeENfGM21aynmCYXl3/Jr/biDrhOsM9RDDXNdrM9xy/Cm794jeSzbl7U9fEuhwA4EeCF+PQM0bVhpXzzLT3E6ltasj1EMMc7FpKeuh0Ha2ve79/seyN8qZniXQ4QYCPQA+n2d+tYY5RTMLYc08TkPddmJgaqVQDzXM5arFZeXdlW9yPLuKvDzLTHe4gUD3nM9hLnlbN5evZX993krbB8le598ZSyZz5bE81EMOcwAEutdUubsc5lssujbzHKyiGfM2S5K2bAh39y5N5ioS6k+8c4MwHzifc36FzXyMkMsb/EKge8rlbU5TmsGeNaloacctu1DXdp42Qt9ju0ioF+FbmNu87groPJMmbZZdsv0rXEGge8iHME/t25w9qejw+Vtrhnpyhvqfb1lvGJL3xC8f1R3qPrbMt1g8QMrhj+x6KjREYVPmOKQFrqAkesanMBfbUFCoH7x9DGq69Ejj69qJS2eo227pqvsTS4uprlD3tZtdr7tNuJ77ajGzt8d2vkFyclwED5DwAzNdPOJbmEuyTGi8Y9XSOVHBoRqxTd5Ky0NVh5H4PmauHiEFdpbkIJ/B12kOync3LR0ck+4yOPXJvP35A5sIc7iD41M94WOYp7Qd50vv2Y1/l+HzPSqriuNCQ5gAp1De+vsbje3nr33gmzpFzgccn9ouSqIHfA8q7Y9dd0tG3a2vbXdvb/GmlO1+D2U2u8rBkYbKge43YQ6XUBodF0qrU2uo61wffvTx0egr16KhHtrSNB24UvcDpMbOY36AhJsIdIeF1IWsltMfn1tfS6irRcbGJ0vyhnqom8ZkHb5S1slvr6N1DudQIh0V4niwWjVVh7qLZ3K37TXL+6EJi6E+CKmsndm9rpZQ10OQzZkCQNMolQ7Snt2hTu5KQ73scistT/rwH9c7eSY33KDQVahX9QCphwO2wYXLCHTHKKiOPxN2i1OhrgeWD/euz72GNz0XXX+XVhKyqIxU8QCpcvrB3nWEOZxG6XSIwlynasWyMUpyvYMWlDaN0U5wWVSp6uuBPNIHSJWfZP255Rpz0QPBq99ijgb8QBPHEbGF+XITw+yFjfoplPVA+EvL4SwNfWlYhzCHLwh0B8Qc5oCrJphrCc8Q6C0jzAGEYmKUeqxNBHqLCHMAIVGddoQNd1pDoLeEMAcQIu0LQai3g0BvAWEOIGSEejsI9IYR5gBiQKg3j/UYDSLM/aM1y1onf3nWmAszd9cvPzzaMZPjXbNrU9e8sHmIfb2BFaTbMk9dnDeoH4HekGRvacLcCzpL+9inC4OP+dXP1Z7tmwvf9MypK8YcPr+06Y12I2PNMnAvQr05NCsakOxfvpsw94GCfOvvbwwqn7nVw3wFasm/8v4ts/Xt62Z6tmcA3EX3ezNoTtQsDXO6ZN2m8P73j+aSrUHLmB603J9852ZSgR3axtvrfrrPb3y+YM591UuGMGbmzJ0HJ71XtmxYGsbYt3k4GaIKVYz3gZZ6/ahxakSY+0EV6Z53bw4q1mpa1vp+h8/fSj7TKlmiHoypT+bX3EddD0PTs4tLXzuo9EPcRz32+0Co14ukqQlh7o+Df5mrLMyXU7f9GyVb/L5beriZM3vO3sx1KIpojoKGMZ5454b3wxjch7vofq8PaVMDwtwfailoFntdDg+68WMdU0+GH/5wI5lcWIYetjSMceqKnw9H3IcHEer1IHEqRpj7QxWtWtF1Usvs4Pv1/hsu0r393ruDFuV1+4mFa9F9fOm9W971eCzNqeA+rIR5JtUjdSpEmPvl9YvNBO25rxZzd7P6rOowX05dz77cy/Q+5FktYcun+7CWozvHkuWeqAbJUxHC3C+qbG1ntGuNuc7R/vrFcbPw8obkjGydqT05br8MMaZJQC+9d7OWME8d/OutWkKyatwHO8efJtSrQvpUgDD3z2nLccijO0eTMFeop/sIaNaxZhx/8P31Zt+jdhWRWukhVL5Z1BVcxwTD5ZKhko/dfkDiPuRDqFeDBCqJMPfTqS+yuys1aefQttUn7ijgjz8zar1O+PSV8Lvdpz5uZhjj2GfzTk825D7kR6iXRwqVQJj7K2v8Ua9tumZ2LQp1teJtnJ8JO9DVKrXtYlaPh4Yt0mEMfc47jOHqxLA890HlTOXn0vPr79yHk8+ODR4S/b8PRRDq5ZBEBRHm/lJXZZY8m3gs745fy+VrJmi2cxLU86FhDN3j9L7ps3596Qfj1suZtE2vi2zvg4Lrg73rk16gtB7RfdDucB/u9f8+FEWoF0caFUCY++2qxVh23u02Na6eZWYh7DF0m1nXqqizej5slzNpTkLd49RF2NwHPQQquNZ6EPT9PpShe7Nr05BBPiRSToR5HK6yM2UutoHymmWrU2Fm0+vhWpDZ/jzHn7IbpvH1PlTh5HfGgt7Pvw7crRwI8zA8bFFB5p1oNDMX9wlr09ezr18rAmzfOwoxm8rctQlhNvdBrfM892H/Y9kt1RB3I9S168hpQt0ed8oSYR4OvZZZ8kw00pj8hRmbbvxwj8+9ajGpe8fGfNe/65Hs99rlWbeGMWzuQ56Jf0tf7999qAqhng93yQJhHp6scFVI20420gYfNnZOMCYI5EWo2+MOZSDMw6SZxFl0BOpaob60T7v9Fpzf3RR3GTr3Zb5uYZtx4S0b/Ov1OD/DfciLULfD3VkDYe4WHSNZ1eQf2xm0CvU0tNOd3jReqZOzdIJWnu1jQy5HNhWtXjvb3fLUQ3LKYiMe1yp42/uQpxzbPDDaTJzzHaGejTuzCsLcPQqDPe/erCTUFbC2oa7Q1jnWf/fWdTP821mz9e0bydnWefbpDn1drVqIWaGi1892q1Lbg3Nce3/a3AfRsbo2dAaATTlTeY6B7u3JZ9flnocQC9JqBYS5u6oM9abOY1Z52h94oNvOStdWpVkH1ejPbXo+dF9da63Z3gft7a+en7XoPtgc7+vifahTUj8/t55QXwGJdZ/kCfDbhLnLqgp1tWqaOI9ZD4cxOPT/7O6lQmrr29eTlQRpF7w+v3G7J8T2jPoXNrvZKrW9D3poSe9DuuxM90Fd7HnuQ4wbsBDqK2N/vWWSMZpB5Wuz6xeqo/utN2aeLuw01MuOqWnjjtP/vVjbMZfqBYjl4VDBoveQzTi5xshfed9udcBqbE+6a9qOh+0Dtor78FpDPU2uSUNdZ87XeUytT0iu2wjz9ujeF3narqKlXvTftqEwtzngJRS6l0caDBctF3RuY5lBQCtgmqK5GTH3JtJSvxfpZQhzFxR9Y1YR6nVUCrGFeUoHjTTVBZyE56Br2pVQT8O8qdaiym2srfPlCPW7ok8wwtwdbYe6TvoqO6au76PyFGOYp47nPAa1DFdCvekwF+b63EWoL4m6NBDm7mkz1OXozjFz6fnx3MvM0u5mHYcZyxKi1TRdubYd6m2Euc6Op966F6EecaAT5u5qO9T176uVqdOebCjAv35x3PpkrBjEEupNh/nSOuyx4JdBFhV7qEeZZoS5+9oOdZkYJpzLSF/DpjbVaTrUmw5zPTh+sHed1bbFMYs51KNLNMLcHy6EOspJezs+HAxF5A2iZLvcnK99U6FeNMx1P/I+4Og+qM46w2ZX1mIN9age9Qhz/+iN+cH31+cO6KrWqaMaeg3UVTw9O2r+9NVisk+7Qnf5a7q049lQchKeZsoryIoEZxrqde32WCbM05/pte357gPyi3GdelSBTpj7KT2UgVD3nyrZyQ3D1mPARSvlukK9ijBPf53nPqCY2EI9mlqOWaF+K3rSkkL9iXduJNtrwk9Fu0+r7n6vKszRLN1/HegSw4TVKEqYwpwnYf+VOT5R22sS6v5qO9QJc7+pMace2tBDPfhSRpiHhVCPV1uhTpiHIYZQD7qkEeZhItTjlU6SzPvaFw11wjwsoYd6sKXt6M5RwjxghHq8ir72eUOdMA+TQl0rLkIUZInTOk8dEoGwEerxKhPqUxfnrb723FeLhHmgtBTwSIAH2wRX6jiBKC6EerzKvPZ1IMz9EuJWzcGVPG3EwBsqLoR6vFwJdcLcT2VPV3RNcKWPcfM4EerxajvUCXN/7Z8Mqzc3uBLI5jHxItTj1VaoE+Z+0+sXkuBKIcdXxo1Qj1fToU6YhyGkA1yC65/WVp+Eupv02rzx+UKyH7tmEM/MLf2eqHLcMqgYdSDFvkeHSx1IUXTvd1GoC0M3firz2udBmIdjxm7RgxcIdNTu3JeLZuqT+eTzarScaHp2cfA1xhz7dCGpMDULtWiwVhHqWyI8TzkEdYc6YR4O5UXaqAhBcCXy9H8vGrhBb5TD5+fMnrM31wzzlSjgFaxb375eeMtOut/jVVf3O2EeltNXwsqL4ErlqcBeIF8pkNVCOvZpuf4sfZ+tb99IWu1FlKnYTxDoXqs61Anz8IT2Hg+uZGps9tQVKuI2pVtmVtndefj8Lesdvu7n2gYkaE5Vrz1hHh7lRN6eQ9cFWToPvj9X2RnIyKfo/tc2pi7OFe4GJ9TjVfa1J8zDo3rq3z+aM6EJsoRq7LaKM5CR3+uD0K0jzFOHP5prZUwdfiv62hPm4amz0dG2YEtperISE5uao3td95iUHtbUA1MUod4svV6aR3Hw9gTHv3vruhn+7WzyoV9rwqSGU5ro+sz72hPm4VE5CzXMpTP05rUwr2yZdAmU3shU5PXZ+vvrjb1RdKZxmbXqCpqqljXp59DP44qliYTXM7+uzp/bZqni/couVbSln0kPEll0Gpd+HvhNPXqazX7qi8XgxszvF8XuGekSKBe5FgZF6Y1iG+bJ0YX/MJJs06tW04VveubC1Z6Z+ti+u14T5M60tPkMVqcHJb02RVY3pO9TzZWgZewn24dJ1IPtsFAJ26GNoztHHzirXsGujxc2D5mDf5kbPElnfy+tZlC3Ldyhyvyl98o/IKVLFY/uHAvuNCygTjwCoxI2XVnqwrw/zJdTq/n4M6MMi3jItaWKQIyoOVGaulmzusrT8dEsCnW14uEPV5cqArEh0FGaxsCz5JnopDF2n/bjV+9EzKHj8lJFICYEOhqRtxvdt3PtY9373YelikAsCHQ04moEQ6ExhrpWJjRBkyBDX3IElEWgo7SJ0ezu8bxdppev+dnFGlOo512q+Munx8zXL46bhZc3JJ/168kcR9QyQQ5YG4GO0rZsyK6U84RcnqBwUSyhbnuNWt2gvRY0jyKdG6HP+vWlH4wnf25DM+hDOrsaqBqBjtJUOWe1tDQT2vYI1IOObgKURwyhbtMFfmAQ2lmrG/TnNuvNFeY2EzCBWBHoqMQLf5+9a5vWFa8V6qqwX/rzrWD2WQ451G2WKsprlq1vhbrNygZ29QNWxzZMqMS+R4etWuAK9Qszi0l3a7r1a7rXsrYLtQ1z/XsnvzNmmlJ07/d0y+G69ydvmk1LWa+R7fatKgdaCaHJb2v+uwQ6sCoCHZXQpKddm4YyK2Q5UcFSp6a3BC2z93uooZ5lx8Z8ewnseiQ70GdYvQasii53VMZ2clNZGpctc9JaUWWOXo11nXrVZhaYFAeshkBHZRSy6matk0L1tYYeHFb79wl1u6WK577M15Nh0/ORZ5kbEBsCHZXS4Sp1VrrHnx5t/VhNQt1uqWKeZWZaBXHqSvZwjc2/C8SKQEelFHZ/fG59LaGuLv19m90Yh4491G2WKiZno39stxmM9oO3oXkaAFZGoKNyOlmtylBXeGhXMZvT2poUe6jbLFU89tl85g5v+nPbSZJtzJ0AfEGgoxYKde0CVnY2uirwD/auc3aGeMyhbjtfQkegbn37enKtaRe8PuvXe87eTP7cxoHIVgkAefEOQa2O7hwzh741mnSp5lmqpiBXBe7DUq9Yl7TlWaqoMfJXSu4A2OZkSMAHBDpqp9b68UGX+WuDLvM/DSp/TX7SZjKXB5V82mLT12zZ0B0ERDcJCd+6VmMNdc1r2HO2/lPQ9HBXxWRIPViEsLUwsBICHY1RaE9u8KPVXUSMoa4HLw2r2O7TX4TKTRWtc4X59969EczWwsD9GEMHKhTjmLomK9a6VPGpsdKtc8IcMSDQgYrFFup1LlXU6oaywy+EOWJBoAM1iC3U61iqePLZsdJDEEXDXNcT29778B+BDtQkxlDXUsWye/qnSxXLbiJUJsz/uHtd6zsSAnlRYoEaxTqmfun58dzrxhXkZwZBeqaCMCXMESNKLVCzGEM9Xapoe2Z9GuZVLFckzBErSi7QgFh3lJsYbvYwFcIcMaP0Ag3hlLZ6EeaIHSUYaFDZUK9zAxefEeYAgQ40rkyoHz5/K/P0stgQ5sASSjLQgjKhrtPJCPUlhDlwF6UZaAmhXg5hDtyLEg20iFAvhjAHHkSpBlpGqOdDmAMro2QDDiDU7RDmwOoo3YAjCPW1EebA2ijhgEMI9ZUR5kA2SjngmLKh/vrgIySEOWCHkg44qEyonwhoi1jCHLBX7sBhoKSZ+b45fWXRnPty8PHVopmZW/o9UaW8ZVAh75jomH2PDldyEpdP0lDf8+5Nc2GmZ2JDmAP5EOhohSprdQ2fGoR5GuArfc30rMLeJHuYq6LWWdv7J+MptrGGOmEO5EepR+M0cevJd24kXcOrhflKVMnrgJKtb1+PKtzKdL/7KKYwV/mfnu3leh8Aq6GFjsaooj7411tJ93rZ7/PE4IFArfUj20dMDGJpqYce5ktDS71keOnCNw8G+Y6NXbPz4W7SCxXbEBPKI9DRiKIV9Vqmbs/mJtTDEHKYK8inPpnPfJhVyOtDvVcxDjGhHLrc0YiX3rtZaZinFOoxnREeavf75UG3c4hhroeUPWdvJh95e6aWDzGpWx7IQqCjdofPz9XaotQZ4Yyp+y2ZABlYmKulrYeUKoaYtr59I6oHVxRDXw5qpcro2Kf17152+KO5JORcoAr81BcLg1bnoFKfuVuZPzzaMZPjXbNrU9e8sHmoVBDFvqTNhzBXq7zKyW56cNX3i2WICfkR6KiVJsE1QZOMFKRtTSRSRasWlB5eVq3EBw83quhPXVHlbJKf9cBgfLToGGmsoe5LN3sdM9c1xJTsy7CZqhsPossdtVHFZtvdqHA7M6ikv35x3Cy8vMF8+I/rzS+fHhu0aDvGVlv7mCvIt/7+RlLZ5qnEdW/KjpHGtqTNhwlw6mavcxnawffnGFPHigh01ObYZ3Z7ih/dOZqEuUJdASVavqOW6wffX5/sEmcj2WmuwfW8+rcODgI57QotSg8+T75zs/AYaSyh7kOY66Gyjsmfy6ms/ftHcRyXi3wIdNTmwkx2xabxwEPbVh8TVFgdf2bUOqy0jWwTVKmqq7uqfdP1/fRgULSXIfRQ9yHM9WD2xufNBK3maJSdbIfwMBCD2mRVOOk62ywKK7XiNS6Z5fzMotnfQLE++Jd6Zu6r2173pci4eqhj6slD3VNjyf+73NV8+krPunWu1/jQt0buTI7UA12yVv3inNWDsCjU2XwGyxHoqIVaK1nyhFbaHZ/VtX35mqmdWtGqTOuiGfvf3dQt1BrN8/Dji6Q3JKDr0UTInz8+emd4SfT/muimD9tz7d/4fHHwWhvgDrrcUYvLFi2pvN3DGlfPMrNQ7/ilHlSmaj5vfGlsPqwzzbFED6bHnx67J8zvp16rQ9uyH3ZVTmJcsojVEeioxcRo9uz0qx7O63n9YjNBmy7DQ1iOP5U9xCQK9bVCP0UZwXIEOmrxsEVllHc89PK1dlsjap3bToK7fxnepefHvVmGV5XkMJ73m9mHwAcqE7bDKArz/Y9lj49zShuWI9BRC036yWphvJFjhrhaIjYTjrTpRl1OX7H7eTVz//5leOlEt0s/GE/GUG00vQyvSnUcxuO7PA9zS1+fXT1fnuX+4i4CHbXJGiNf2hbWLiRtW3q7NtU36/fUF9ndmwrzrJn7GkO1/TmbWoZXJcIcaAeBjtrseiS7eGnt9VqhrhbqS3++ZR0Oda7DrmoZnhx93O7rzs/4FeiE+erO55zAZjPhbcuG+nqk4B8CHbWxbYUq1NUCV2CmXcwaX9e+6E/+4Yb1ErE8Y5R52SzDy9M7oAcPm+GBJpbhVYUwX5sCOs+sdJsJb7Fs+Qs7rENHbRSwCjmNBWfRZLOyu67VOX5+dd5m/D5f5bpzYmhQwa99zXUvw6sKYW7H9lRA2y1kXd45D80j0FErjSnvOdtMt7G67hWSRU8vQzFFw1wTBifsRh68MDOXPetcD7fqjdI8itUozG32OtAQDy10LEfNh1qpla5NMooePJLXK7cnz1Ud6lbL8K7nGyMNoTVbNMx92Js9L63aeMVi8qZ6ohTsmm+R7giYbBLzTc9MfTJvf0LhJrZ9xb0IdNROFde5L3uN7WpVR6hPWkw+0lacR7b3rTYEsT1ats5hhLII83tpX3ab7YlF9+6Vkmv0X9s+YoDl6K9B7VTJnXx2Xe51uGWosnxjutpegaxwVUU+9bHdZjAH/2pXmWsIwUWE+YOSffQfb2YMQUNZjJ/jfpQINCKpyJ9b3+iYX9WhroMzshz7bH7NHd7SM9Rtu1XVJesawnx16hWquys8OaltG61zPIhAR2NUEX24d33SumhKlaFuW1FrQtMT79wwp64srLgML8/2sa6FH2Ge7eR3xmrrjVIvgO6jzbAO4sMYOhqnMfX9kyPJQSd5lqols3ofHsp9dGlVY+p5luFpvsBL75UbIz3g2Gx9wtxOErqD3qiql/El591HdB+RHyUDrVAlr6U76aEl6s5Wd/zyloe+Jp0lr4pMX6vWT5Ggq6ql3lTvQrr3uysI83zSIaaqWur6fnoP2BwhjHjRQkerVFFNbhjOFV7pGt68G9FU0VJvahmeQtAVhHkxun4dxqMhmDIn5+17dNgcf2aUbnZk4nEPXlKot9VS15BBnTP2XZrBTJiXp/Ki3qW85TU9gle9UoQ5bNBCh7faaqnXNUYqNqe1NYUwr046xPTzx0eTFQ6ah3Fhpm8uz97dm0GbF+1M9vjvmv2PDRPiyI1Ah9faCvV0jLTKUCfMw6eQ1nwRmyWQQF686+C9trrf0zFSjamXkU54IswBlME7D0Foc0z96M6xQmOkaq2pVf7B3vXJeKkLCHPAX/T7IBhtzn5Px0hf+Psh89Kfs9efpxOeXEKYA37jHYigtNlSl4lhPycyEeaA/3gXIjhth7pvCHMgDLwTESRC3Q5hDoSDdyOCRaivTWugCXMgHEyKQ9DanCjnOrXO8yLMAXfxrkTwaKlXgzAH3MY7E1Eg1MshzAH38e5ENAj1YghzwA+8QxEVQj0fwhzwB+9SRIdQt0OYA37hnYooEeprI8wB//BuRbQI9ZUR5oCfeMciaoT6vQhzwF+8axE9Qn0JYQ74jZ3iAMOOcrGH+cx837zx+YI591XPXJhZNDNzS78nujdbBvdl16au2bd52OyY4IEHbiLQ4TRVqqevLJpzXw4+vrq3op0Y6ZgdG7uDCrZj9j06nJwxXkasoR5zmKtcTX0yn3xejbbInZ5dKoNTF+eTMvfqt0aC3hYYfqJEwkmqRF+/OGdODcI8DfD76feToP/SmGOfLiTBdGT7aKmKtmyobxn36zz0WMNcZUfhfOzTeZPXhW96yev9n4O/e/LZMYYo4AxKIpyjivbJd24kobpamK9EDwGqaLe+fX3NFleWWMbUYw1zlZMn/3CjUJgvd2GmNyinNwcPnWwNDDcQ6HCGKto9Z28OAn0uV5Cv/n2KV9hFQ/2ER4Gu3owYw7zIkbGrUTl96T32+4cb6HKHE6quaEUPBnJk+4gpomj3O9xURxlLqXdGwy1l53EAZdBChxNeeu9mLRWtQl3j60UVbanDPXWVsdTBv94q1bMElEWgo3WHz88l45H1ff9bpb4/oe4/dYnXWcZEPQBTH5cblwfKINDRKlWCZScn2Tj80Zwpg1D329TH5V5/W8c+mx+U6XofHIDVEOholbopm6A17GUnLhHqftLrbtvVrpn/R3eOmkvPrzcLL28wX784nixN014Hef49oA3UTmiNWue2y8s02ejIP4wkm3poQxmtBb5wtZe0vGwr6xOfL5TeDISJcvnVORmtSnpY+/njo0n5Sun/tTucPjQfw2blhOZsaAUB0DQCHa059pldN6haTIe23TtTPdkhbvDxwuYhc/Avc+bUF9kBq1b68G9nDZrjS5jrgTF9WFuNQlqT3rImWeprNF7PFrFoGiUOrbkwk13Ja8nZ/WG+nFpQx58ZpfJ0kC9hLsefsmtRK9SXt+BXU/cEPGAl1IJoTVZ3e7qVaxZVsGrFwx0+hbla57Yb7Kis7X8se605E+PQBgIdrVCFnyXPeLcqZZuWkyv0MBPq5Cmfwlwmc+6/PzmeXW1enmU9OppHoKMVly1aMHm70TWm7pPQzlMX38IcCAmBjlZMjGa3iq5GsEdHSKHua5ifzznebTM+vmWDX6fuIQwEOlrxsEX3eN5xyMvX/By3DCHUtYxQJ+T52DJXQOeZxGaz1NKn4R+Eg0BHKzThLavSyxNyqmR97ub1OdQV5jrdzud9zG13EtQ6dJtyxiEtaAOBjtZkjZEvbQtrF3IH329mx7k6+RjqIYS5aI+CrDKkME9P8FuLHlZZRok2sLEMWrPrkW5Ska5FB6vIoW0rF1UFiTaWCWUS1iu3Q2W/B1vMFg1zBd4fd69r7Cx2nRWgA4CyaPc/lUctlfzupm7y8yWbxAyuc+qTeftdDTfROkc7CHS0Zqniy575tnRa2mIScunWrxpfP31lMamsbcNcraYP9643TVKrL+82sT6Eui9hLvsfG05a1zY/q3qFXinZ2/Pa9hEDtIFAR2s0zqhQz2qli0Kx7P7pr25rvqItuve7y6HuU5iLHgC146BNK70s7Qff9PUBKUoeWnWkodaMwqStcCx6SpuLY+q+hXlK2wfX3RWua6R1jjYR6GiVWumrjY9XSWHSphBC3dcwT+k1yLsrXB4nv93+NSJulD60TpOQ6pwVrF4AFypan0Pd9zBPf5aTz66rZY34LwevrW87FSI8lEC0ThWsKto6Wk8Kc5fOpvYx1EMI85RC94O96ysra0tld8yLVQkIH4EOJySV/3PrK22p6wQ2l8I85VOohxTmqbSsHSgZwhou+mDvOrNvM2EONxDocIYqWi0rKztRTt/nzCBMDm1zd4KSD6EeYpin9DPqNVB5y7urm75e5euM49eI+PBoCeeoVb1/csS8fnEu13IvVdKHvjXidJAv5/KStpDDfDn1CCmYtf78T18tmlNXFpM9Dpbv7b6089vQ4KOTzJRnW1e4ikCHk9IW1GuDcF9e0eqc6TRk9DVbBsGhinbfo8NeVrQuhnosYb6cfvbJDcOMhcNrlF44LYaK1qVQjzHMgVDw7gMc4MKYOmEO+I13IOCINkOdMAf8x7sQcEgboU6YA2FgDB1wTNkx9S05Nk0hzIFw8G4EHNRES/08YQ4EhRY64KiiLXXbrz/2WfZZ9PcjzAF38a4EHFa0pV4HwhxwG+9MwHEuhDphDriPdyfggTZDnTAH/MA7FPCEQv3QtmZDnTAH/MG7tGUzc/lmGCNuR3eOlT6NzhZhjrwuz/YM2sM7tWU61SnvsiHETafR1R3qhDmKWH5KHZrHu9UBxz7Nv3wIcasz1AlzFEVd1i7esQ449ukCrXTkVkeoE+YoSvXY9HXqsTbxrnWAwnzPuzcJdeRWZagT5ihKWwhPXZwzaBfvXEdo7OnJd26YaSaVIKcqQp0wR1FqmRfZQhjV6wy9eY1XwTFab7x/8LFjY9dMjNgftIG4qYU0dZHtXFE/NTxOX1k0p75YNOe+XDRwA4EOAEAAeCQHACAABDoAAAEg0AEACACBDgBAAAh0AAACQKADABAAAh0AgAAQ6AAABIBABwAgAAQ6AAABINABAAgAgQ4AQAAIdAAAAkCgAwAQAAIdAIAAEOgAAASAQAcAIAAEOgAAASDQAQAIAIEOAEAACHQAAAJAoAMAEAACHQCAABDoAAAEgEAHACAABDoAAAEg0AEACACBDgBAAAh0AAACQKADABAAAh0AgAAQ6AAABIBABwAgAAQ6AAABINABAAgAgQ4AQAAIdAAAAkCgAwAQAAIdAIAAEOgAAASAQAcAIAAEOgAAASDQAQAIAIEOAEAACHQAAALQ7RszbQAAgM+maaEDAOC5jjEz3U6nf94AAAB/dRToPXPZAAAAf/X6F7od05k2AADAW8ryrumaswYAAHir3++f786PzE+r790AAAAvLfz4b852zYsbFeZMjAMAwEOdzlJPe7JsrdszpwwAAPBOf9Gc0Ock0Of7Q78zAADAO4tm6Kw+L20s8+P1Gkc/awAAgDeS7nZluFm2lzvd7gAA+CXtbpfOnd9965uJofmRz03fTBgAAOC66cUfPfRY+ou7e7m/uHGm0+//pwEAAM7r9Ponlv/6nsNZFkYXfsGadAAAnDe9YIZ/vfw37j1tjVY6AADOS1rntyfD3fm9B75KY+lzIx8N/m/SAAAA19wzdp568Dx0tdJ7/X8xAADAPT3zs5V+u7vSb2pPWLreAQBwi7J58ccP/XqlP+uu9pcWxhZ+Ovg0bQAAgAumF8Ye+ulqf7hqoKvrfbE39Byz3gEAaFmnv5TJL3ZWzeTumt9AM+j6PcbTAQBoU7/7L/fPar/f2oE+sPijv/1dv2/+zQAAgMZ1ev2fLf5oQ+YhapmBLr1/fugX+oYGAAA0Rtm78OO/+anV15ochn/zvz/tdzv/YQAAQK26g97x+UGD2vbrcwW6DL35Pz80ne6vOMQFAIAadPozGjO36Wa/56+ZIn5zY3Kou/iuYTc5AACqNJ3MZs+YALcSqzH0Bwz+ocXR+cfZfAYAgGokm8aMbni8SJgnf9+UNPSbaz8ZPBZoXH3SAACAvKa15bp2aTUllA701O0JcwcMwQ4AQLbBWHln0fznwrqHfrHWhjHW385UaTC2PmwWfkKwAwCwioqD/M63NTVJuuKHzAHTN7sNAACR63TM2V7PnOqNbfh1lUF+5/ubumlGvFncTbgDAKKilrjpnFeIj/aHfnez4GQ363/ONGww1r671+ns7Jr+5KBrfkenbyb6JlnTPmkAAPDP9NKnzvlOv3e5ZzrTQ11zdn5kw3QdLfHV/B+3+Sznmup5fgAAAABJRU5ErkJggg==;" vertex="1" parent="1">
          <mxGeometry x="120" y="167" width="83" height="83" as="geometry" />
        </mxCell>
        <mxCell id="8GFReFHGUgWiscmdhz8u-3" style="edgeStyle=orthogonalEdgeStyle;rounded=0;orthogonalLoop=1;jettySize=auto;html=1;dashed=1;strokeWidth=2;" edge="1" parent="1">
          <mxGeometry relative="1" as="geometry">
            <mxPoint x="160" y="311" as="sourcePoint" />
            <mxPoint x="530" y="311" as="targetPoint" />
          </mxGeometry>
        </mxCell>
        <mxCell id="8GFReFHGUgWiscmdhz8u-4" value="Send configuration msg from HomeAssistant to device" style="text;html=1;align=center;verticalAlign=middle;resizable=0;points=[];autosize=1;fillColor=default;" vertex="1" parent="1">
          <mxGeometry x="195" y="390" width="310" height="30" as="geometry" />
        </mxCell>
        <mxCell id="8GFReFHGUgWiscmdhz8u-5" value="" style="sketch=0;outlineConnect=0;fontColor=#232F3E;gradientColor=none;fillColor=#7AA116;strokeColor=none;dashed=0;verticalLabelPosition=bottom;verticalAlign=top;align=center;html=1;fontSize=12;fontStyle=0;aspect=fixed;pointerEvents=1;shape=mxgraph.aws4.mqtt_protocol;" vertex="1" parent="1">
          <mxGeometry x="320.3" y="330" width="28" height="28" as="geometry" />
        </mxCell>
        <mxCell id="8GFReFHGUgWiscmdhz8u-6" style="edgeStyle=orthogonalEdgeStyle;rounded=0;orthogonalLoop=1;jettySize=auto;html=1;endArrow=none;endFill=0;" edge="1" parent="1">
          <mxGeometry relative="1" as="geometry">
            <mxPoint x="531" y="381.81" as="targetPoint" />
            <mxPoint x="531" y="241.81" as="sourcePoint" />
          </mxGeometry>
        </mxCell>
        <mxCell id="8GFReFHGUgWiscmdhz8u-7" style="edgeStyle=orthogonalEdgeStyle;rounded=0;orthogonalLoop=1;jettySize=auto;html=1;endArrow=none;endFill=0;" edge="1" parent="1">
          <mxGeometry relative="1" as="geometry">
            <mxPoint x="160" y="401.81" as="targetPoint" />
            <mxPoint x="160.5" y="251.81" as="sourcePoint" />
          </mxGeometry>
        </mxCell>
        <mxCell id="8GFReFHGUgWiscmdhz8u-8" value="" style="html=1;verticalLabelPosition=bottom;align=center;labelBackgroundColor=#ffffff;verticalAlign=top;strokeWidth=2;strokeColor=#0080F0;shadow=0;dashed=0;shape=mxgraph.ios7.icons.wifi;pointerEvents=1" vertex="1" parent="1">
          <mxGeometry x="320.3" y="250" width="29.7" height="21" as="geometry" />
        </mxCell>
      </root>
    </mxGraphModel>
  </diagram>
  <diagram id="_CmUR9G4KB8u0QhBX3jn" name="code-structure">
    <mxGraphModel dx="1356" dy="848" grid="1" gridSize="10" guides="1" tooltips="1" connect="1" arrows="1" fold="1" page="1" pageScale="1" pageWidth="827" pageHeight="1169" math="0" shadow="0">
      <root>
        <mxCell id="0" />
        <mxCell id="1" parent="0" />
        <mxCell id="kTf0DfvUIejp57C3q-8e-5" value="&lt;span style=&quot;font-weight: 400; text-align: left;&quot;&gt;MqttPublisher&lt;/span&gt;" style="swimlane;fontStyle=1;align=center;verticalAlign=top;childLayout=stackLayout;horizontal=1;startSize=26;horizontalStack=0;resizeParent=1;resizeParentMax=0;resizeLast=0;collapsible=1;marginBottom=0;whiteSpace=wrap;html=1;" parent="1" vertex="1">
          <mxGeometry x="520" y="300" width="190" height="120" as="geometry" />
        </mxCell>
        <mxCell id="kTf0DfvUIejp57C3q-8e-6" value="- mqttClient&amp;nbsp; &amp;nbsp;&lt;br style=&quot;padding: 0px; margin: 0px;&quot;&gt;- chipId&amp;nbsp;" style="text;strokeColor=none;fillColor=none;align=left;verticalAlign=top;spacingLeft=4;spacingRight=4;overflow=hidden;rotatable=0;points=[[0,0.5],[1,0.5]];portConstraint=eastwest;whiteSpace=wrap;html=1;" parent="kTf0DfvUIejp57C3q-8e-5" vertex="1">
          <mxGeometry y="26" width="190" height="44" as="geometry" />
        </mxCell>
        <mxCell id="kTf0DfvUIejp57C3q-8e-7" value="" style="line;strokeWidth=1;fillColor=none;align=left;verticalAlign=middle;spacingTop=-1;spacingLeft=3;spacingRight=3;rotatable=0;labelPosition=right;points=[];portConstraint=eastwest;strokeColor=inherit;" parent="kTf0DfvUIejp57C3q-8e-5" vertex="1">
          <mxGeometry y="70" width="190" height="8" as="geometry" />
        </mxCell>
        <mxCell id="kTf0DfvUIejp57C3q-8e-8" value="+ MqttPublisher&lt;br style=&quot;padding: 0px; margin: 0px;&quot;&gt;+ publish&amp;nbsp; &amp;nbsp;" style="text;strokeColor=none;fillColor=none;align=left;verticalAlign=top;spacingLeft=4;spacingRight=4;overflow=hidden;rotatable=0;points=[[0,0.5],[1,0.5]];portConstraint=eastwest;whiteSpace=wrap;html=1;" parent="kTf0DfvUIejp57C3q-8e-5" vertex="1">
          <mxGeometry y="78" width="190" height="42" as="geometry" />
        </mxCell>
        <mxCell id="kTf0DfvUIejp57C3q-8e-10" value="&lt;span style=&quot;font-weight: 400; text-align: left;&quot;&gt;DiscoveryMsg&lt;/span&gt;" style="swimlane;fontStyle=1;align=center;verticalAlign=top;childLayout=stackLayout;horizontal=1;startSize=26;horizontalStack=0;resizeParent=1;resizeParentMax=0;resizeLast=0;collapsible=1;marginBottom=0;whiteSpace=wrap;html=1;" parent="1" vertex="1">
          <mxGeometry x="290" y="80" width="190" height="90" as="geometry" />
        </mxCell>
        <mxCell id="kTf0DfvUIejp57C3q-8e-12" value="" style="line;strokeWidth=1;fillColor=none;align=left;verticalAlign=middle;spacingTop=-1;spacingLeft=3;spacingRight=3;rotatable=0;labelPosition=right;points=[];portConstraint=eastwest;strokeColor=inherit;" parent="kTf0DfvUIejp57C3q-8e-10" vertex="1">
          <mxGeometry y="26" width="190" height="8" as="geometry" />
        </mxCell>
        <mxCell id="kTf0DfvUIejp57C3q-8e-13" value="+ createDiscoveryMsg&lt;br style=&quot;padding: 0px; margin: 0px;&quot;&gt;+ createDiscoveryMsgTopic&amp;nbsp; &amp;nbsp; &amp;nbsp; &amp;nbsp; &amp;nbsp;" style="text;strokeColor=none;fillColor=none;align=left;verticalAlign=top;spacingLeft=4;spacingRight=4;overflow=hidden;rotatable=0;points=[[0,0.5],[1,0.5]];portConstraint=eastwest;whiteSpace=wrap;html=1;" parent="kTf0DfvUIejp57C3q-8e-10" vertex="1">
          <mxGeometry y="34" width="190" height="56" as="geometry" />
        </mxCell>
        <mxCell id="kTf0DfvUIejp57C3q-8e-14" value="HaRemoteClient" style="swimlane;fontStyle=1;align=center;verticalAlign=top;childLayout=stackLayout;horizontal=1;startSize=26;horizontalStack=0;resizeParent=1;resizeParentMax=0;resizeLast=0;collapsible=1;marginBottom=0;whiteSpace=wrap;html=1;" parent="1" vertex="1">
          <mxGeometry x="520" y="440" width="190" height="60" as="geometry" />
        </mxCell>
        <mxCell id="kTf0DfvUIejp57C3q-8e-16" value="" style="line;strokeWidth=1;fillColor=none;align=left;verticalAlign=middle;spacingTop=-1;spacingLeft=3;spacingRight=3;rotatable=0;labelPosition=right;points=[];portConstraint=eastwest;strokeColor=inherit;" parent="kTf0DfvUIejp57C3q-8e-14" vertex="1">
          <mxGeometry y="26" width="190" height="8" as="geometry" />
        </mxCell>
        <mxCell id="kTf0DfvUIejp57C3q-8e-17" value="+ publish" style="text;strokeColor=none;fillColor=none;align=left;verticalAlign=top;spacingLeft=4;spacingRight=4;overflow=hidden;rotatable=0;points=[[0,0.5],[1,0.5]];portConstraint=eastwest;whiteSpace=wrap;html=1;" parent="kTf0DfvUIejp57C3q-8e-14" vertex="1">
          <mxGeometry y="34" width="190" height="26" as="geometry" />
        </mxCell>
        <mxCell id="O2fnlpPmUxB66261Gw35-1" value="«interface»&lt;br&gt;&lt;b&gt;Publisher&lt;/b&gt;" style="html=1;whiteSpace=wrap;" parent="1" vertex="1">
          <mxGeometry x="520" y="230" width="110" height="50" as="geometry" />
        </mxCell>
        <mxCell id="O2fnlpPmUxB66261Gw35-3" value="«interface»&lt;br&gt;&lt;b&gt;Sensor&lt;/b&gt;" style="html=1;whiteSpace=wrap;" parent="1" vertex="1">
          <mxGeometry x="490" y="550" width="110" height="50" as="geometry" />
        </mxCell>
        <mxCell id="O2fnlpPmUxB66261Gw35-4" value="DhtSensor" style="swimlane;fontStyle=1;align=center;verticalAlign=top;childLayout=stackLayout;horizontal=1;startSize=26;horizontalStack=0;resizeParent=1;resizeParentMax=0;resizeLast=0;collapsible=1;marginBottom=0;whiteSpace=wrap;html=1;" parent="1" vertex="1">
          <mxGeometry x="490" y="620" width="190" height="90" as="geometry" />
        </mxCell>
        <mxCell id="O2fnlpPmUxB66261Gw35-5" value="" style="line;strokeWidth=1;fillColor=none;align=left;verticalAlign=middle;spacingTop=-1;spacingLeft=3;spacingRight=3;rotatable=0;labelPosition=right;points=[];portConstraint=eastwest;strokeColor=inherit;" parent="O2fnlpPmUxB66261Gw35-4" vertex="1">
          <mxGeometry y="26" width="190" height="8" as="geometry" />
        </mxCell>
        <mxCell id="O2fnlpPmUxB66261Gw35-6" value="+ performMeasurement&lt;div&gt;+addToPayload&lt;/div&gt;&lt;div&gt;+isS&lt;span style=&quot;background-color: transparent; color: light-dark(rgb(0, 0, 0), rgb(255, 255, 255));&quot;&gt;uccess&lt;/span&gt;&lt;/div&gt;" style="text;strokeColor=none;fillColor=none;align=left;verticalAlign=top;spacingLeft=4;spacingRight=4;overflow=hidden;rotatable=0;points=[[0,0.5],[1,0.5]];portConstraint=eastwest;whiteSpace=wrap;html=1;" parent="O2fnlpPmUxB66261Gw35-4" vertex="1">
          <mxGeometry y="34" width="190" height="56" as="geometry" />
        </mxCell>
      </root>
    </mxGraphModel>
  </diagram>
  <diagram id="iMDjFwEQYCdtmExyatvg" name="Remote-access">
    <mxGraphModel dx="1358" dy="848" grid="1" gridSize="10" guides="1" tooltips="1" connect="1" arrows="1" fold="1" page="1" pageScale="1" pageWidth="827" pageHeight="1169" math="0" shadow="0">
      <root>
        <mxCell id="0" />
        <mxCell id="1" parent="0" />
        <mxCell id="HLWnp91eWEu1Pvxv9HFf-1" value="" style="shape=image;verticalLabelPosition=bottom;labelBackgroundColor=default;verticalAlign=top;aspect=fixed;imageAspect=0;image=data:image/png,iVBORw0KGgoAAAANSUhEUgAAAMwAAADACAMAAAB/Pny7AAAAnFBMVEX///+w4vkXS2K36v+ArMIhUWjs7vAAIEQAN1OXpK0AME75+fq5wskTSF8APFeq4PkAQFhdiJ3Iz9M+YHSOnKZqlaqayuA+aoE8WW7U2t4zXXLv+f5acICstb3a8fy45frU5/Ll9f3K6/u/8/+QvtRVgJWJtctLdYudusqAkp3i5uiwydZHZneh0uYVQ10AJ0Vwi5kAFj4mOVYABTb5DTBNAAAFYElEQVR4nO2cbZuaOBRAzaBdR4pgd9COGaFhnbrTbbvb7f//b02cEaJCuAkJiX3u+TYMj+Z4Q15uQiYTBEEQBEEQBEEQBEEQBEEQBEEQBEEQBEEQU+IjvksxjJiyqiRpAykrRm9QKqZFJTzIOUKpKij1XTwNKCvKaxHJiPAI+S4kDKo0OfmUBQu/wvHHpM+kDk8RdngYf1AAJm8+XCfc6FAeFbDKq07JfBe6g0pLpI6O72K3QTWj0hBecApTFR6dwIITV+Yuoq6F1A6YV7ET4VQ1NtiFkMK3xBs2XEggrVqh0U8qSKsAHhxLLkE0asyOSRA21J6Ld5u4tClDUq8ttJV2TLbxOCkY1O+347rIcUwpY4WAMUqblERhXcVtdxPz+byYO17mWER1GD6IacPVUCBmnSkWIeSgknFKJ48NLVTTeR4gFyrESUWjwMSEfazPpP2pWB+kxUVpa8BlZGMzNNTV0wCVsRgaN42Ulo2tBi32WcFOMpZCQ/2rEFuhYUG4WJkLxC4GW2b8Ti7DW2eQS+SUWmZoPYO4ROupS/aNzTAXBnHJZ255PtkMa89AmYn1PHHLcm+lnkH6/ejz4s4tWV5XtAEusBWJ9UL8fI5EjpH5XNczcxdgxx/ld7xiO5IRn/zctADmjTNIRdjseZtzcKGSHc5aM5Ia5wLgy168L/grd1HR+NMi9TPEfPYcQ1VefRzJXHxNaSijt0wctozmzDLK51BEKZNl8/dS/AzJ/OKCVRnN9fvo73sovOFLti/N3w9bXviZdMPLLOmSIUZjAN3EZPopBjLhZc+eHif1hS9P2V3yUbrhw9ayjO7AP/0E/ug3mZp3RxnphkfbMroJDB6ZYGW0098hy2hPL8eSMRjP6G8UGUumKpjuZk79RZaxZF43C2ptfmSaKiPKHH3KSqO66W+tGlOGHLfXQXUM9laNLHPUgT07Bmt5GjONo8wXlcyfABkCXYAyWb745z0QMVhJvu6aC7uv/MJMuuNeMTY7B/ILGshE+QLK6yC5+Xt+vLC4uACSgdQHg6z/SPMZAxuDtL8nGYANVEaanbvKAUjfEbWUAJCwAcp8Wzd8WzmRWa1l2nV6WmiYzPSwkdg6cOGNnPwVm7zNpm95ECSz/p6dZYRdyNydfUO22LeWRP3YgGSmrlPM1yxXrRVNvbEGJLP/d3SZeWs961kcgPUzm0W2XLpKmF+SZMtsMW8vSKoMDbDTnOZ5vhnJZcO/a9remvV0NsDhjEgxO2mRr8lW5DzpfC6jGkDDx2bRWDLP6nIoek74fCYQGWU9A880Q5FRdZy3JqPsahj0oQlFRjVAA8+bQ5FRjp1vTkbZAsBcbkMGmtJsZPjQRkGvciLdnBnIKIdnwHpWyywfHj908/hfn8tMunu3vXIfJgNsz2qZxU71aZOHntB05M0syQBfgglGRj1BgzUBNyIDe9cqGJmeHA1sP+ONyEwgoQlFpvf9GkgmIBAZwG50QF8TigwggX4zMpBF6P6KFoaMMgdQ0ztJq2XmO+V+mRe3MqBlu95kQC2TPT0ouH9SuwyUAb4r2Dd6lkfNqj1mfaPmYTLQ9dQeG1vzmUEy8Jc41cdHBCGjsaWWhR4Zra2OKpsAZDTfdlBsCvYvo78JvfO58S5j8uJGV3/jW8ZsP31HTsC3jOG7AeLV5sBk0gFnHtCW0/B8yqSDXquPrw/38ycD3m+m0jk/EsCXTJrqbGzshIrwpH5luIqtA17lQ1ejlRUXDRlx7khh96za03G45PDjDxv8+F+W+X71oT8Pb0fClC4PDX1nC/mXavv/b3AgMoIgCIIgCIIgCIIgCIIgCIIgCIIgCIIgBvwCIPbYh/iIO7QAAAAASUVORK5CYII=;" parent="1" vertex="1">
          <mxGeometry x="210" y="9.999999999999996" width="204" height="192" as="geometry" />
        </mxCell>
        <mxCell id="3hEr-zZ0BZnLmkEYATAe-1" value="" style="shape=image;verticalLabelPosition=bottom;labelBackgroundColor=default;verticalAlign=top;aspect=fixed;imageAspect=0;image=https://www.sensorwebben.se/img/sensor.jpg;" parent="1" vertex="1">
          <mxGeometry x="50" y="210" width="88.7" height="81.19" as="geometry" />
        </mxCell>
        <mxCell id="3hEr-zZ0BZnLmkEYATAe-4" value="" style="shape=image;verticalLabelPosition=bottom;labelBackgroundColor=default;verticalAlign=top;aspect=fixed;imageAspect=0;image=data:image/png,iVBORw0KGgoAAAANSUhEUgAAAfQAAAH0CAYAAADL1t+KAAAACXBIWXMAAAsTAAALEwEAmpwYAAAAAXNSR0IArs4c6QAAAARnQU1BAACxjwv8YQUAADbISURBVHgB7d1JjFXXgf/x815NULjbhdR4YVqiLBH+UrMAy5MURwGLNFk4MrGsdjobSJs97qbXppPyOijNniR4Ezkt5IDiRfwPMkTxIo4tg2S8sJFcSI0XtiUX3RRDDe/1+93iQgFVdc+dz/D9SOUyUBR17zvv/O6ZO6ZBE2/1J2bnZycXe2Z3t2O29E1nsm/6O/VnHWMmDQAAnukbMz34NNPpDD765nyvby53h/rnF/7pb86aBnVMzda9dWNy7tbiDztds88ovPudCQMAQAw65uzgvydGFofO3vzx+mlTo1oCXS3x/7k1+5MkxPtmtwEAIHa3w33x5Yd+bWpQaaAnQb5w/dVOv/evtMQBAFjRdL/b+fXoQvdEla32SgKdIAcAILck2Hv/tOFnpgKlA334v/53d7/X+ZVhUhsAAEVMD9L4Z2W74gsHetIqn5v9j8E3+FcDAABKGeTpLxZG539mXtw4YwooFOjrfnNjcr67+K6hVQ4AQJWmR3pDzxUZW++anIbenP3h/NDCR4YwBwCgamowfzT05v/80OSUK9C7v73+qjH9t5j4BgBAbQYZ232r+1+z/5HnL1kHur5xp9/7hQEAALXr9Po/zRPqVmPoSZgPvrEBAACN6vfNv/X++aHMBnVmoGvMPOlmBwAALem9uPijv/3dWl+xZqAns9k1AY4xcwAA2jQz0ht6fK3Z76uOoWudebI0jTAHAKBtS5n81jerZvKqga5NYwxL0wAAcMXk8NzIqpPkVuxyH/rttZ+YvvmVAQAATun0+s8t/PjBs9ZXbqH3Ta61bwAAoBn9budXK3W9PxDot9e8TRoAAOCiQdf78APnqNzT5c4e7QAAeGFmcXT+seUHudzTQp8b7h0whDkAAK6buL+Vfk+gDwbaf2IAAIDz+qbz6vKx9DuBnsxsp3UOAIAvJkZujfwk/cXyFvoBAwAAvNHrmn3p/yeT4m5PhvvcAAAAr4z0hh7TlrBJC31+aHG3AQAA3lnsLP5Qn9Mud7rbAQDwUNrtnnS5D715rW8AAICPkjXp3eH/+t/dBgAA+GpiZH5ksttZ7Ow0AADAXz2zu9s3/UkDAAC8pSzv9rudHQYAAHirb8wg0PtmwgAAAH91Oju0bI1ABwDAc90O+7cDAOC7ya4BAADeI9ABAAgAgQ4AQAAIdAAAAkCgAwAQAAIdAIAAEOgAAASAQAcAIAAEOgAAASDQAQAIAIEOAEAACHQAAAJAoAMAEAACHQCAABDoAAAEgEAHACAABDoAAAEg0AEACACBDgBAAAh0AAACQKADABAAAh0AgAAQ6AAABIBABwAgAAQ6AAABINABAAgAgQ4AQAAIdAAAAkCgAwAQAAIdAIAAEOgAAASAQAcAIAAEOgAAASDQAQAIAIEOAEAAhg2AoEyMdMy+zUPmhcHHjomumdxw97n9wjc9M329Z05fWTQnphcMgHB0ht681jcAgnBo27A5sn00CfUs07N98/rFOYIdCASBDgRAAX7y2TGz65Ehk9epKwvm4PtzZmaeqgDwGWPogOcmN3TMB3vXFQpz2bd5ePD315vJ8exWPQB3EeiAxxTmf9y97p5x8sLf5zlCHfAZgQ54St3sVYR5ilAH/EagAx5SmJ+pMMxThDrgLwId8Ewa5js21vP2VaiffHad1Ux5AO4g0AGP1B3mKX1//TuEOuAPAh3wRFNhniLUAb8Q6IAHmg7zFKEO+INABxzXVpinCHXADwQ64LC2wzxFqAPuI9ABR7kS5ilCHXAbgQ44yLUwTxHqgLsIdMAxroZ5ilAH3ESgA445/vSos2GeItQB9xDogEN++fRYcvqZDwh1wC0EOuAIhfn+ST/CPEWoA+4g0AEH+BjmKUIdcAOBDrTM5zBPEepA+wh0oEUhhHmKUAfaRaADLQkpzFOEOtAeAh1oQYhhniLUgXYQ6EDDQg7zlEL95LNjBkBzCHSgQTGEeWrXI0Pm+FOEOtAUAh1oSExhnjrw2DChDjSEQAcacGT7SHRhniLUgWYQ6EDNFOZHto+amBHqQP0IdKBGhPldhDpQLwIdqAlh/iBCHagPgQ7UgDBfHaEO1INABypGmGcj1IHqEehAhQhze4Q6UC0CHagIYZ4foQ5Uh0AHKkCYF0eoA9Ug0IGSCPPyCHWgPAIdKIEwrw6hDpRDoAMFEebVI9SB4gh0oADCvD6EOlAMgQ7kRJjXj1AH8iPQgRwI8+YQ6kA+BDpgiTBvnkL96E7uOWCDQAcsEObtObRtJLn/ANZGoAMZCPP26f4T6sDaCHRgDYS5Owh1YG0EOrAKwtw9hDqwOgIdWAFh7i5CHVgZgQ7chzB3H6EOPIhAB5Y5MDlMmHuCUAfuRaADtynMjz/NRiY+IdSBuwh0wBDmPiPUgSUEOqJHmPuPUAcIdESOMA8HoY7YEeiIFmEeHkIdMSPQESXCPFyEOmJFoCM6hHn4CHXEiEBHVAjzeBDqiA2BjmgQ5vEh1BETAh1R2PXIEGEeKUIdsSDQEbwdE11z8lnCPGaEOmJAoCNoCvMzz60zEyMdg7gR6ggdgY5gEea4H6GOkBHoCBJhjtUQ6ggVgY7gEObIQqgjRAQ6gkKYwxahjtAQ6AgGYY68CHWEhEBHEAhzFEWoIxQEOrxHmKMsQh0hINDhNcIcVSHU4TsCHd6a3NBJdoAjzFEVQh0+I9DhJYX5H3evG3ymCKNahDp8RW0I7xDmqBuhDh9RI8IrhDmaQqjDN9SK8AZhjqYR6vAJNSO8QJijLYQ6fDFsAMcR5mibQl2mLs6bJmkFx/7Hhsy+R4fNjo1dZ1Z0XPimZy5c7Zmpj+fM9PW+gRs6Q29e49WAswhzuOTg+7fMiekF0wTtsaBlma6X/amLc40/6GBl1JJwFmEO1xx/eswcmKy/YzPdMMmHsq/ei+NPjRm0j5oSTiLM4aq6Q93HDZMOPDbMPAMHUFvCOYQ5XFdnqKvF62PZP7RthF0bW0aNCacQ5vBFXaH+3U1+lv10Ah/aQ60JZxDm8E3Voa6xc5/L/65HCPQ2UXPCCYQ5fFVlqE+M+t1lPTFMl3ubqD3ROsIcvmtq9juwFmpQtIowRygIdbSNWhStIcwRGkIdbaImRSsIc4SKUEdbqE3ROMIcoSPU0QZqVDSKMEcsCHU0jVoVjSHMERtCHU2iZkUjCHPEilBHU6hdUTttCXny24Q54kWoownUsKiVwvzMoGW+YyNFDXEj1FE3alnUhjAH7kWoo06ULNQi9jA/9+WiOfXFgrk8a8yFmcU7v//waMdMjnfNrk1d88LmoWCHIWK//rX8/PFRc36mN7gvPQNUqTP05rW+ASoUa5jPzPfNsU8XBh/zyf/b0OlUarHtD6DVFvv156H7s+fdmw+Euu6H3ju+0oPcnrM3DdpBoKNSsYa5gmzq4px1kN3P91UAsV9/ESuFOoGOMhjcRGViDHNVygffv2UOn79VOMxkerZvnnznZhKMPon9+stI3i/PrUvOQAeqQElCJWINc7WwTkxXE0L6fgrGqYvzxgexX38VCHVUiVKE0mLtZj/4l7laJjap6/qNafdbqrFff1UIdVSFEoRSYg1ztSI1i7suhz+aG3RDuzsLOvbrr9rdUO8YoCgCHaXEGOYa71Ursk5LY9P1/htFxX79dVGoH905ZoCiCHQU9sunx6JcZ/76xWaC5txXi8msYdfEfv2Aqwh0FKIwj23tsKh1ajsJLF2C9PWL42bh5Q3m0vPjyX2bHLfvVnVtglje69f1ptevz75fP+AyAh25xRrmcvqKXZgd2T6ShLlCTV2porXWum+XfjBuvf2nWqllloNVLe/163rT69fn9Pr15zZcu37AZQQ6cok5zOXUF9ldwAqrI9tH1/wa7em9a9OQsXH6ijvdzjbXr4eVrOvXnx/aZleOXLp+wGUEOqzFHuaSNaarVnhWmKWOPm73dedn3Ak0mzHt1yxb37pPaet9LS5dP+AyAh1WCPOl8eMstq1u0bpjm2VKl68ZJ9hc/75Hh623b1WY26y9duX6AdcR6MhEmC+5ajGWm3dzkJ0T2Q8AMwtujCFbXf/GfOuodz2Sfb9cuX7AdQQ61kSYA4AfCHSsijC/18MW473T1/PtbjZ93Z/Wp831n/sy3/VzJjhQHQIdKyLMH6QJb1ne+Nx+mZXGpG0mmbmyHajN9Sug81z/qSv+XD/gOgIdDzi6c5QwX0VWuCjMpj622wzl4F9vWX2dzTh7U6q8ftsd51y6fsBlBDruoTXUh7bZLTuKkTaKyXLss/k1dzhLzxC33db0u5vceZtWcf2iP7fdcc6l6wdcxjsFd9hsiBI7LcuyocNLnnjnxqBLeeFOF7RODzv26bx58g83cm2farsMrAl5rn/r29eTY1DT69dn/XrP2ZvWh7to1YBL1w+4jH5VJAhzOwpYrTXXlqRZNJ780nt23eqr2feoW93Nun51u1+YyR4n1xj5K++Xu/5X6S0CrPHoC8I8J9t9yKugrmmXZoIv/TzNzMxP974HYId3S+RcCHN1xV74pmdOfbFgLs+qZXu39btl0N2qHcX2bR5KxlJd6H5VK1X7kB/71K7bvAzdmz3v3jRnnluXe9OaqinMpy42d0b58ac4GxzIozP05jW2YYpU22GusFIoalzZdqmTwvTIP4xYTc6qk35ejYU3tY5cDzVthnrTYV5n2dRrpwNftEe8ehsuz97tAdEDpI53Vfly5QHSJ5roqTkSaAeBHqm2w1xBroAoejSmTvTSISBtVrgaI/7eu+GHeihhrtfr2GdzufYK2Ld5OPl52u4d8QWB3i4CPUJthrkqUk0Us12ytRaNsf5852hS6bYl9FAPIczTnqAy1+HCA6QPCPR2UToj02aYK/zUTV1FmKffTw8Hb0zXP5a9Gj1UfPD99dZne5eVjqk3MVGuyTDXg8rJZ8cqL5sqI7pfZa9Dywy/d/YmW9XCaQR6RNpumdfVkn3l/VuVPSQUoTA6unPMXHp+PPfYvv6uxmzzaCLUi4Z5ketXubz0g/WV97SkvSdV3af04YBQh6voco9E22Pmh8/PJZPf6pK0lPeuTwKibar4T19ZMKe+WExm798/XqufVWvZFX4vbF4KwCJBUVf3e9EwT8uYrv9PXy0m+7TrQSvr+ut4zeocCml7gqLL6HJvF4EegbbDXKH2xP+/Yeqmcc7jT7u51Gn69kzq1cZgi7a6qw6XsmG+mqzrr5q21j1R41CMSw+QLiHQ28UjZuBcWGd++EIz47CqwNvsel+LgmytMCsazFV2v9cV5pJ1/VXSnIoTNc+rSGbM19jjBBRBoAfMhTBXwNqGrLpgz+xeZ75+cdwsvLzBfPiP65NjXPOMMWtzGl+1Gep1hnnTpj5u5gFSM+eLLrsE6kCgB8qVitZ2BrqObFWYK9TTbswdG7vJ1p+aRW57KEieNcYuaiPUi4a5XjPXwlzlzXbcXN3muoZLz69PHiD1IKmZ9rbnry8th6OVDncQ6AFyqdVk0zrPOrJVIXf8mVGrkEu3kfVZk6FeNMzVc+LiMbs63c6G5ltoDFzXkA4FLG0xPGw+3DtuvV9/E9v/ArYI9MC4FOYKmKzWklpJNj/v0tIwu+sKYVlRE6FeJsxdPTTl3JfZ161eIE2eXGtCm8qkzd4CS2WcZWxwA4EeENfGM21aynmCYXl3/Jr/biDrhOsM9RDDXNdrM9xy/Cm794jeSzbl7U9fEuhwA4EeCF+PQM0bVhpXzzLT3E6ltasj1EMMc7FpKeuh0Ha2ve79/seyN8qZniXQ4QYCPQA+n2d+tYY5RTMLYc08TkPddmJgaqVQDzXM5arFZeXdlW9yPLuKvDzLTHe4gUD3nM9hLnlbN5evZX993krbB8le598ZSyZz5bE81EMOcwAEutdUubsc5lssujbzHKyiGfM2S5K2bAh39y5N5ioS6k+8c4MwHzifc36FzXyMkMsb/EKge8rlbU5TmsGeNaloacctu1DXdp42Qt9ju0ioF+FbmNu87groPJMmbZZdsv0rXEGge8iHME/t25w9qejw+Vtrhnpyhvqfb1lvGJL3xC8f1R3qPrbMt1g8QMrhj+x6KjREYVPmOKQFrqAkesanMBfbUFCoH7x9DGq69Ejj69qJS2eo227pqvsTS4uprlD3tZtdr7tNuJ77ajGzt8d2vkFyclwED5DwAzNdPOJbmEuyTGi8Y9XSOVHBoRqxTd5Ky0NVh5H4PmauHiEFdpbkIJ/B12kOync3LR0ck+4yOPXJvP35A5sIc7iD41M94WOYp7Qd50vv2Y1/l+HzPSqriuNCQ5gAp1De+vsbje3nr33gmzpFzgccn9ouSqIHfA8q7Y9dd0tG3a2vbXdvb/GmlO1+D2U2u8rBkYbKge43YQ6XUBodF0qrU2uo61wffvTx0egr16KhHtrSNB24UvcDpMbOY36AhJsIdIeF1IWsltMfn1tfS6irRcbGJ0vyhnqom8ZkHb5S1slvr6N1DudQIh0V4niwWjVVh7qLZ3K37TXL+6EJi6E+CKmsndm9rpZQ10OQzZkCQNMolQ7Snt2hTu5KQ73scistT/rwH9c7eSY33KDQVahX9QCphwO2wYXLCHTHKKiOPxN2i1OhrgeWD/euz72GNz0XXX+XVhKyqIxU8QCpcvrB3nWEOZxG6XSIwlynasWyMUpyvYMWlDaN0U5wWVSp6uuBPNIHSJWfZP255Rpz0QPBq99ijgb8QBPHEbGF+XITw+yFjfoplPVA+EvL4SwNfWlYhzCHLwh0B8Qc5oCrJphrCc8Q6C0jzAGEYmKUeqxNBHqLCHMAIVGddoQNd1pDoLeEMAcQIu0LQai3g0BvAWEOIGSEejsI9IYR5gBiQKg3j/UYDSLM/aM1y1onf3nWmAszd9cvPzzaMZPjXbNrU9e8sHmIfb2BFaTbMk9dnDeoH4HekGRvacLcCzpL+9inC4OP+dXP1Z7tmwvf9MypK8YcPr+06Y12I2PNMnAvQr05NCsakOxfvpsw94GCfOvvbwwqn7nVw3wFasm/8v4ts/Xt62Z6tmcA3EX3ezNoTtQsDXO6ZN2m8P73j+aSrUHLmB603J9852ZSgR3axtvrfrrPb3y+YM591UuGMGbmzJ0HJ71XtmxYGsbYt3k4GaIKVYz3gZZ6/ahxakSY+0EV6Z53bw4q1mpa1vp+h8/fSj7TKlmiHoypT+bX3EddD0PTs4tLXzuo9EPcRz32+0Co14ukqQlh7o+Df5mrLMyXU7f9GyVb/L5beriZM3vO3sx1KIpojoKGMZ5454b3wxjch7vofq8PaVMDwtwfailoFntdDg+68WMdU0+GH/5wI5lcWIYetjSMceqKnw9H3IcHEer1IHEqRpj7QxWtWtF1Usvs4Pv1/hsu0r393ruDFuV1+4mFa9F9fOm9W971eCzNqeA+rIR5JtUjdSpEmPvl9YvNBO25rxZzd7P6rOowX05dz77cy/Q+5FktYcun+7CWozvHkuWeqAbJUxHC3C+qbG1ntGuNuc7R/vrFcbPw8obkjGydqT05br8MMaZJQC+9d7OWME8d/OutWkKyatwHO8efJtSrQvpUgDD3z2nLccijO0eTMFeop/sIaNaxZhx/8P31Zt+jdhWRWukhVL5Z1BVcxwTD5ZKhko/dfkDiPuRDqFeDBCqJMPfTqS+yuys1aefQttUn7ijgjz8zar1O+PSV8Lvdpz5uZhjj2GfzTk825D7kR6iXRwqVQJj7K2v8Ua9tumZ2LQp1teJtnJ8JO9DVKrXtYlaPh4Yt0mEMfc47jOHqxLA890HlTOXn0vPr79yHk8+ODR4S/b8PRRDq5ZBEBRHm/lJXZZY8m3gs745fy+VrJmi2cxLU86FhDN3j9L7ps3596Qfj1suZtE2vi2zvg4Lrg73rk16gtB7RfdDucB/u9f8+FEWoF0caFUCY++2qxVh23u02Na6eZWYh7DF0m1nXqqizej5slzNpTkLd49RF2NwHPQQquNZ6EPT9PpShe7Nr05BBPiRSToR5HK6yM2UutoHymmWrU2Fm0+vhWpDZ/jzHn7IbpvH1PlTh5HfGgt7Pvw7crRwI8zA8bFFB5p1oNDMX9wlr09ezr18rAmzfOwoxm8rctQlhNvdBrfM892H/Y9kt1RB3I9S168hpQt0ed8oSYR4OvZZZ8kw00pj8hRmbbvxwj8+9ajGpe8fGfNe/65Hs99rlWbeGMWzuQ56Jf0tf7999qAqhng93yQJhHp6scFVI20420gYfNnZOMCYI5EWo2+MOZSDMw6SZxFl0BOpaob60T7v9Fpzf3RR3GTr3Zb5uYZtx4S0b/Ov1OD/DfciLULfD3VkDYe4WHSNZ1eQf2xm0CvU0tNOd3jReqZOzdIJWnu1jQy5HNhWtXjvb3fLUQ3LKYiMe1yp42/uQpxzbPDDaTJzzHaGejTuzCsLcPQqDPe/erCTUFbC2oa7Q1jnWf/fWdTP821mz9e0bydnWefbpDn1drVqIWaGi1892q1Lbg3Nce3/a3AfRsbo2dAaATTlTeY6B7u3JZ9flnocQC9JqBYS5u6oM9abOY1Z52h94oNvOStdWpVkH1ejPbXo+dF9da63Z3gft7a+en7XoPtgc7+vifahTUj8/t55QXwGJdZ/kCfDbhLnLqgp1tWqaOI9ZD4cxOPT/7O6lQmrr29eTlQRpF7w+v3G7J8T2jPoXNrvZKrW9D3poSe9DuuxM90Fd7HnuQ4wbsBDqK2N/vWWSMZpB5Wuz6xeqo/utN2aeLuw01MuOqWnjjtP/vVjbMZfqBYjl4VDBoveQzTi5xshfed9udcBqbE+6a9qOh+0Dtor78FpDPU2uSUNdZ87XeUytT0iu2wjz9ujeF3narqKlXvTftqEwtzngJRS6l0caDBctF3RuY5lBQCtgmqK5GTH3JtJSvxfpZQhzFxR9Y1YR6nVUCrGFeUoHjTTVBZyE56Br2pVQT8O8qdaiym2srfPlCPW7ok8wwtwdbYe6TvoqO6au76PyFGOYp47nPAa1DFdCvekwF+b63EWoL4m6NBDm7mkz1OXozjFz6fnx3MvM0u5mHYcZyxKi1TRdubYd6m2Euc6Op966F6EecaAT5u5qO9T176uVqdOebCjAv35x3PpkrBjEEupNh/nSOuyx4JdBFhV7qEeZZoS5+9oOdZkYJpzLSF/DpjbVaTrUmw5zPTh+sHed1bbFMYs51KNLNMLcHy6EOspJezs+HAxF5A2iZLvcnK99U6FeNMx1P/I+4Og+qM46w2ZX1mIN9age9Qhz/+iN+cH31+cO6KrWqaMaeg3UVTw9O2r+9NVisk+7Qnf5a7q049lQchKeZsoryIoEZxrqde32WCbM05/pte357gPyi3GdelSBTpj7KT2UgVD3nyrZyQ3D1mPARSvlukK9ijBPf53nPqCY2EI9mlqOWaF+K3rSkkL9iXduJNtrwk9Fu0+r7n6vKszRLN1/HegSw4TVKEqYwpwnYf+VOT5R22sS6v5qO9QJc7+pMace2tBDPfhSRpiHhVCPV1uhTpiHIYZQD7qkEeZhItTjlU6SzPvaFw11wjwsoYd6sKXt6M5RwjxghHq8ir72eUOdMA+TQl0rLkIUZInTOk8dEoGwEerxKhPqUxfnrb723FeLhHmgtBTwSIAH2wRX6jiBKC6EerzKvPZ1IMz9EuJWzcGVPG3EwBsqLoR6vFwJdcLcT2VPV3RNcKWPcfM4EerxajvUCXN/7Z8Mqzc3uBLI5jHxItTj1VaoE+Z+0+sXkuBKIcdXxo1Qj1fToU6YhyGkA1yC65/WVp+Eupv02rzx+UKyH7tmEM/MLf2eqHLcMqgYdSDFvkeHSx1IUXTvd1GoC0M3firz2udBmIdjxm7RgxcIdNTu3JeLZuqT+eTzarScaHp2cfA1xhz7dCGpMDULtWiwVhHqWyI8TzkEdYc6YR4O5UXaqAhBcCXy9H8vGrhBb5TD5+fMnrM31wzzlSjgFaxb375eeMtOut/jVVf3O2EeltNXwsqL4ErlqcBeIF8pkNVCOvZpuf4sfZ+tb99IWu1FlKnYTxDoXqs61Anz8IT2Hg+uZGps9tQVKuI2pVtmVtndefj8Lesdvu7n2gYkaE5Vrz1hHh7lRN6eQ9cFWToPvj9X2RnIyKfo/tc2pi7OFe4GJ9TjVfa1J8zDo3rq3z+aM6EJsoRq7LaKM5CR3+uD0K0jzFOHP5prZUwdfiv62hPm4amz0dG2YEtperISE5uao3td95iUHtbUA1MUod4svV6aR3Hw9gTHv3vruhn+7WzyoV9rwqSGU5ro+sz72hPm4VE5CzXMpTP05rUwr2yZdAmU3shU5PXZ+vvrjb1RdKZxmbXqCpqqljXp59DP44qliYTXM7+uzp/bZqni/couVbSln0kPEll0Gpd+HvhNPXqazX7qi8XgxszvF8XuGekSKBe5FgZF6Y1iG+bJ0YX/MJJs06tW04VveubC1Z6Z+ti+u14T5M60tPkMVqcHJb02RVY3pO9TzZWgZewn24dJ1IPtsFAJ26GNoztHHzirXsGujxc2D5mDf5kbPElnfy+tZlC3Ldyhyvyl98o/IKVLFY/uHAvuNCygTjwCoxI2XVnqwrw/zJdTq/n4M6MMi3jItaWKQIyoOVGaulmzusrT8dEsCnW14uEPV5cqArEh0FGaxsCz5JnopDF2n/bjV+9EzKHj8lJFICYEOhqRtxvdt3PtY9373YelikAsCHQ04moEQ6ExhrpWJjRBkyBDX3IElEWgo7SJ0ezu8bxdppev+dnFGlOo512q+Munx8zXL46bhZc3JJ/168kcR9QyQQ5YG4GO0rZsyK6U84RcnqBwUSyhbnuNWt2gvRY0jyKdG6HP+vWlH4wnf25DM+hDOrsaqBqBjtJUOWe1tDQT2vYI1IOObgKURwyhbtMFfmAQ2lmrG/TnNuvNFeY2EzCBWBHoqMQLf5+9a5vWFa8V6qqwX/rzrWD2WQ451G2WKsprlq1vhbrNygZ29QNWxzZMqMS+R4etWuAK9Qszi0l3a7r1a7rXsrYLtQ1z/XsnvzNmmlJ07/d0y+G69ydvmk1LWa+R7fatKgdaCaHJb2v+uwQ6sCoCHZXQpKddm4YyK2Q5UcFSp6a3BC2z93uooZ5lx8Z8ewnseiQ70GdYvQasii53VMZ2clNZGpctc9JaUWWOXo11nXrVZhaYFAeshkBHZRSy6matk0L1tYYeHFb79wl1u6WK577M15Nh0/ORZ5kbEBsCHZXS4Sp1VrrHnx5t/VhNQt1uqWKeZWZaBXHqSvZwjc2/C8SKQEelFHZ/fG59LaGuLv19m90Yh4491G2WKiZno39stxmM9oO3oXkaAFZGoKNyOlmtylBXeGhXMZvT2poUe6jbLFU89tl85g5v+nPbSZJtzJ0AfEGgoxYKde0CVnY2uirwD/auc3aGeMyhbjtfQkegbn37enKtaRe8PuvXe87eTP7cxoHIVgkAefEOQa2O7hwzh741mnSp5lmqpiBXBe7DUq9Yl7TlWaqoMfJXSu4A2OZkSMAHBDpqp9b68UGX+WuDLvM/DSp/TX7SZjKXB5V82mLT12zZ0B0ERDcJCd+6VmMNdc1r2HO2/lPQ9HBXxWRIPViEsLUwsBICHY1RaE9u8KPVXUSMoa4HLw2r2O7TX4TKTRWtc4X59969EczWwsD9GEMHKhTjmLomK9a6VPGpsdKtc8IcMSDQgYrFFup1LlXU6oaywy+EOWJBoAM1iC3U61iqePLZsdJDEEXDXNcT29778B+BDtQkxlDXUsWye/qnSxXLbiJUJsz/uHtd6zsSAnlRYoEaxTqmfun58dzrxhXkZwZBeqaCMCXMESNKLVCzGEM9Xapoe2Z9GuZVLFckzBErSi7QgFh3lJsYbvYwFcIcMaP0Ag3hlLZ6EeaIHSUYaFDZUK9zAxefEeYAgQ40rkyoHz5/K/P0stgQ5sASSjLQgjKhrtPJCPUlhDlwF6UZaAmhXg5hDtyLEg20iFAvhjAHHkSpBlpGqOdDmAMro2QDDiDU7RDmwOoo3YAjCPW1EebA2ijhgEMI9ZUR5kA2SjngmLKh/vrgIySEOWCHkg44qEyonwhoi1jCHLBX7sBhoKSZ+b45fWXRnPty8PHVopmZW/o9UaW8ZVAh75jomH2PDldyEpdP0lDf8+5Nc2GmZ2JDmAP5EOhohSprdQ2fGoR5GuArfc30rMLeJHuYq6LWWdv7J+MptrGGOmEO5EepR+M0cevJd24kXcOrhflKVMnrgJKtb1+PKtzKdL/7KKYwV/mfnu3leh8Aq6GFjsaooj7411tJ93rZ7/PE4IFArfUj20dMDGJpqYce5ktDS71keOnCNw8G+Y6NXbPz4W7SCxXbEBPKI9DRiKIV9Vqmbs/mJtTDEHKYK8inPpnPfJhVyOtDvVcxDjGhHLrc0YiX3rtZaZinFOoxnREeavf75UG3c4hhroeUPWdvJh95e6aWDzGpWx7IQqCjdofPz9XaotQZ4Yyp+y2ZABlYmKulrYeUKoaYtr59I6oHVxRDXw5qpcro2Kf17152+KO5JORcoAr81BcLg1bnoFKfuVuZPzzaMZPjXbNrU9e8sHmoVBDFvqTNhzBXq7zKyW56cNX3i2WICfkR6KiVJsE1QZOMFKRtTSRSRasWlB5eVq3EBw83quhPXVHlbJKf9cBgfLToGGmsoe5LN3sdM9c1xJTsy7CZqhsPossdtVHFZtvdqHA7M6ikv35x3Cy8vMF8+I/rzS+fHhu0aDvGVlv7mCvIt/7+RlLZ5qnEdW/KjpHGtqTNhwlw6mavcxnawffnGFPHigh01ObYZ3Z7ih/dOZqEuUJdASVavqOW6wffX5/sEmcj2WmuwfW8+rcODgI57QotSg8+T75zs/AYaSyh7kOY66Gyjsmfy6ms/ftHcRyXi3wIdNTmwkx2xabxwEPbVh8TVFgdf2bUOqy0jWwTVKmqq7uqfdP1/fRgULSXIfRQ9yHM9WD2xufNBK3maJSdbIfwMBCD2mRVOOk62ywKK7XiNS6Z5fzMotnfQLE++Jd6Zu6r2173pci4eqhj6slD3VNjyf+73NV8+krPunWu1/jQt0buTI7UA12yVv3inNWDsCjU2XwGyxHoqIVaK1nyhFbaHZ/VtX35mqmdWtGqTOuiGfvf3dQt1BrN8/Dji6Q3JKDr0UTInz8+emd4SfT/muimD9tz7d/4fHHwWhvgDrrcUYvLFi2pvN3DGlfPMrNQ7/ilHlSmaj5vfGlsPqwzzbFED6bHnx67J8zvp16rQ9uyH3ZVTmJcsojVEeioxcRo9uz0qx7O63n9YjNBmy7DQ1iOP5U9xCQK9bVCP0UZwXIEOmrxsEVllHc89PK1dlsjap3bToK7fxnepefHvVmGV5XkMJ73m9mHwAcqE7bDKArz/Y9lj49zShuWI9BRC036yWphvJFjhrhaIjYTjrTpRl1OX7H7eTVz//5leOlEt0s/GE/GUG00vQyvSnUcxuO7PA9zS1+fXT1fnuX+4i4CHbXJGiNf2hbWLiRtW3q7NtU36/fUF9ndmwrzrJn7GkO1/TmbWoZXJcIcaAeBjtrseiS7eGnt9VqhrhbqS3++ZR0Oda7DrmoZnhx93O7rzs/4FeiE+erO55zAZjPhbcuG+nqk4B8CHbWxbYUq1NUCV2CmXcwaX9e+6E/+4Yb1ErE8Y5R52SzDy9M7oAcPm+GBJpbhVYUwX5sCOs+sdJsJb7Fs+Qs7rENHbRSwCjmNBWfRZLOyu67VOX5+dd5m/D5f5bpzYmhQwa99zXUvw6sKYW7H9lRA2y1kXd45D80j0FErjSnvOdtMt7G67hWSRU8vQzFFw1wTBifsRh68MDOXPetcD7fqjdI8itUozG32OtAQDy10LEfNh1qpla5NMooePJLXK7cnz1Ud6lbL8K7nGyMNoTVbNMx92Js9L63aeMVi8qZ6ohTsmm+R7giYbBLzTc9MfTJvf0LhJrZ9xb0IdNROFde5L3uN7WpVR6hPWkw+0lacR7b3rTYEsT1ats5hhLII83tpX3ab7YlF9+6Vkmv0X9s+YoDl6K9B7VTJnXx2Xe51uGWosnxjutpegaxwVUU+9bHdZjAH/2pXmWsIwUWE+YOSffQfb2YMQUNZjJ/jfpQINCKpyJ9b3+iYX9WhroMzshz7bH7NHd7SM9Rtu1XVJesawnx16hWquys8OaltG61zPIhAR2NUEX24d33SumhKlaFuW1FrQtMT79wwp64srLgML8/2sa6FH2Ge7eR3xmrrjVIvgO6jzbAO4sMYOhqnMfX9kyPJQSd5lqols3ofHsp9dGlVY+p5luFpvsBL75UbIz3g2Gx9wtxOErqD3qiql/El591HdB+RHyUDrVAlr6U76aEl6s5Wd/zyloe+Jp0lr4pMX6vWT5Ggq6ql3lTvQrr3uysI83zSIaaqWur6fnoP2BwhjHjRQkerVFFNbhjOFV7pGt68G9FU0VJvahmeQtAVhHkxun4dxqMhmDIn5+17dNgcf2aUbnZk4nEPXlKot9VS15BBnTP2XZrBTJiXp/Ki3qW85TU9gle9UoQ5bNBCh7faaqnXNUYqNqe1NYUwr046xPTzx0eTFQ6ah3Fhpm8uz97dm0GbF+1M9vjvmv2PDRPiyI1Ah9faCvV0jLTKUCfMw6eQ1nwRmyWQQF686+C9trrf0zFSjamXkU54IswBlME7D0Foc0z96M6xQmOkaq2pVf7B3vXJeKkLCHPAX/T7IBhtzn5Px0hf+Psh89Kfs9efpxOeXEKYA37jHYigtNlSl4lhPycyEeaA/3gXIjhth7pvCHMgDLwTESRC3Q5hDoSDdyOCRaivTWugCXMgHEyKQ9DanCjnOrXO8yLMAXfxrkTwaKlXgzAH3MY7E1Eg1MshzAH38e5ENAj1YghzwA+8QxEVQj0fwhzwB+9SRIdQt0OYA37hnYooEeprI8wB//BuRbQI9ZUR5oCfeMciaoT6vQhzwF+8axE9Qn0JYQ74jZ3iAMOOcrGH+cx837zx+YI591XPXJhZNDNzS78nujdbBvdl16au2bd52OyY4IEHbiLQ4TRVqqevLJpzXw4+vrq3op0Y6ZgdG7uDCrZj9j06nJwxXkasoR5zmKtcTX0yn3xejbbInZ5dKoNTF+eTMvfqt0aC3hYYfqJEwkmqRF+/OGdODcI8DfD76feToP/SmGOfLiTBdGT7aKmKtmyobxn36zz0WMNcZUfhfOzTeZPXhW96yev9n4O/e/LZMYYo4AxKIpyjivbJd24kobpamK9EDwGqaLe+fX3NFleWWMbUYw1zlZMn/3CjUJgvd2GmNyinNwcPnWwNDDcQ6HCGKto9Z28OAn0uV5Cv/n2KV9hFQ/2ER4Gu3owYw7zIkbGrUTl96T32+4cb6HKHE6quaEUPBnJk+4gpomj3O9xURxlLqXdGwy1l53EAZdBChxNeeu9mLRWtQl3j60UVbanDPXWVsdTBv94q1bMElEWgo3WHz88l45H1ff9bpb4/oe4/dYnXWcZEPQBTH5cblwfKINDRKlWCZScn2Tj80Zwpg1D329TH5V5/W8c+mx+U6XofHIDVEOholbopm6A17GUnLhHqftLrbtvVrpn/R3eOmkvPrzcLL28wX784nixN014Hef49oA3UTmiNWue2y8s02ejIP4wkm3poQxmtBb5wtZe0vGwr6xOfL5TeDISJcvnVORmtSnpY+/njo0n5Sun/tTucPjQfw2blhOZsaAUB0DQCHa059pldN6haTIe23TtTPdkhbvDxwuYhc/Avc+bUF9kBq1b68G9nDZrjS5jrgTF9WFuNQlqT3rImWeprNF7PFrFoGiUOrbkwk13Ja8nZ/WG+nFpQx58ZpfJ0kC9hLsefsmtRK9SXt+BXU/cEPGAl1IJoTVZ3e7qVaxZVsGrFwx0+hbla57Yb7Kis7X8se605E+PQBgIdrVCFnyXPeLcqZZuWkyv0MBPq5Cmfwlwmc+6/PzmeXW1enmU9OppHoKMVly1aMHm70TWm7pPQzlMX38IcCAmBjlZMjGa3iq5GsEdHSKHua5ifzznebTM+vmWDX6fuIQwEOlrxsEX3eN5xyMvX/By3DCHUtYxQJ+T52DJXQOeZxGaz1NKn4R+Eg0BHKzThLavSyxNyqmR97ub1OdQV5jrdzud9zG13EtQ6dJtyxiEtaAOBjtZkjZEvbQtrF3IH329mx7k6+RjqIYS5aI+CrDKkME9P8FuLHlZZRok2sLEMWrPrkW5Ska5FB6vIoW0rF1UFiTaWCWUS1iu3Q2W/B1vMFg1zBd4fd69r7Cx2nRWgA4CyaPc/lUctlfzupm7y8yWbxAyuc+qTeftdDTfROkc7CHS0Zqniy575tnRa2mIScunWrxpfP31lMamsbcNcraYP9643TVKrL+82sT6Eui9hLvsfG05a1zY/q3qFXinZ2/Pa9hEDtIFAR2s0zqhQz2qli0Kx7P7pr25rvqItuve7y6HuU5iLHgC146BNK70s7Qff9PUBKUoeWnWkodaMwqStcCx6SpuLY+q+hXlK2wfX3RWua6R1jjYR6GiVWumrjY9XSWHSphBC3dcwT+k1yLsrXB4nv93+NSJulD60TpOQ6pwVrF4AFypan0Pd9zBPf5aTz66rZY34LwevrW87FSI8lEC0ThWsKto6Wk8Kc5fOpvYx1EMI85RC94O96ysra0tld8yLVQkIH4EOJySV/3PrK22p6wQ2l8I85VOohxTmqbSsHSgZwhou+mDvOrNvM2EONxDocIYqWi0rKztRTt/nzCBMDm1zd4KSD6EeYpin9DPqNVB5y7urm75e5euM49eI+PBoCeeoVb1/csS8fnEu13IvVdKHvjXidJAv5/KStpDDfDn1CCmYtf78T18tmlNXFpM9Dpbv7b6089vQ4KOTzJRnW1e4ikCHk9IW1GuDcF9e0eqc6TRk9DVbBsGhinbfo8NeVrQuhnosYb6cfvbJDcOMhcNrlF44LYaK1qVQjzHMgVDw7gMc4MKYOmEO+I13IOCINkOdMAf8x7sQcEgboU6YA2FgDB1wTNkx9S05Nk0hzIFw8G4EHNRES/08YQ4EhRY64KiiLXXbrz/2WfZZ9PcjzAF38a4EHFa0pV4HwhxwG+9MwHEuhDphDriPdyfggTZDnTAH/MA7FPCEQv3QtmZDnTAH/MG7tGUzc/lmGCNuR3eOlT6NzhZhjrwuz/YM2sM7tWU61SnvsiHETafR1R3qhDmKWH5KHZrHu9UBxz7Nv3wIcasz1AlzFEVd1i7esQ449ukCrXTkVkeoE+YoSvXY9HXqsTbxrnWAwnzPuzcJdeRWZagT5ihKWwhPXZwzaBfvXEdo7OnJd26YaSaVIKcqQp0wR1FqmRfZQhjV6wy9eY1XwTFab7x/8LFjY9dMjNgftIG4qYU0dZHtXFE/NTxOX1k0p75YNOe+XDRwA4EOAEAAeCQHACAABDoAAAEg0AEACACBDgBAAAh0AAACQKADABAAAh0AgAAQ6AAABIBABwAgAAQ6AAABINABAAgAgQ4AQAAIdAAAAkCgAwAQAAIdAIAAEOgAAASAQAcAIAAEOgAAASDQAQAIAIEOAEAACHQAAAJAoAMAEAACHQCAABDoAAAEgEAHACAABDoAAAEg0AEACACBDgBAAAh0AAACQKADABAAAh0AgAAQ6AAABIBABwAgAAQ6AAABINABAAgAgQ4AQAAIdAAAAkCgAwAQAAIdAIAAEOgAAASAQAcAIAAEOgAAASDQAQAIAIEOAEAACHQAAALQ7RszbQAAgM+maaEDAOC5jjEz3U6nf94AAAB/dRToPXPZAAAAf/X6F7od05k2AADAW8ryrumaswYAAHir3++f786PzE+r790AAAAvLfz4b852zYsbFeZMjAMAwEOdzlJPe7JsrdszpwwAAPBOf9Gc0Ock0Of7Q78zAADAO4tm6Kw+L20s8+P1Gkc/awAAgDeS7nZluFm2lzvd7gAA+CXtbpfOnd9965uJofmRz03fTBgAAOC66cUfPfRY+ou7e7m/uHGm0+//pwEAAM7r9Ponlv/6nsNZFkYXfsGadAAAnDe9YIZ/vfw37j1tjVY6AADOS1rntyfD3fm9B75KY+lzIx8N/m/SAAAA19wzdp568Dx0tdJ7/X8xAADAPT3zs5V+u7vSb2pPWLreAQBwi7J58ccP/XqlP+uu9pcWxhZ+Ovg0bQAAgAumF8Ye+ulqf7hqoKvrfbE39Byz3gEAaFmnv5TJL3ZWzeTumt9AM+j6PcbTAQBoU7/7L/fPar/f2oE+sPijv/1dv2/+zQAAgMZ1ev2fLf5oQ+YhapmBLr1/fugX+oYGAAA0Rtm78OO/+anV15ochn/zvz/tdzv/YQAAQK26g97x+UGD2vbrcwW6DL35Pz80ne6vOMQFAIAadPozGjO36Wa/56+ZIn5zY3Kou/iuYTc5AACqNJ3MZs+YALcSqzH0Bwz+ocXR+cfZfAYAgGokm8aMbni8SJgnf9+UNPSbaz8ZPBZoXH3SAACAvKa15bp2aTUllA701O0JcwcMwQ4AQLbBWHln0fznwrqHfrHWhjHW385UaTC2PmwWfkKwAwCwioqD/M63NTVJuuKHzAHTN7sNAACR63TM2V7PnOqNbfh1lUF+5/ubumlGvFncTbgDAKKilrjpnFeIj/aHfnez4GQ363/ONGww1r671+ns7Jr+5KBrfkenbyb6JlnTPmkAAPDP9NKnzvlOv3e5ZzrTQ11zdn5kw3QdLfHV/B+3+Sznmup5fgAAAABJRU5ErkJggg==;" parent="1" vertex="1">
          <mxGeometry x="480" y="267" width="83" height="83" as="geometry" />
        </mxCell>
        <mxCell id="3hEr-zZ0BZnLmkEYATAe-6" style="edgeStyle=orthogonalEdgeStyle;rounded=0;orthogonalLoop=1;jettySize=auto;html=1;dashed=1;strokeWidth=2;" parent="1" edge="1">
          <mxGeometry relative="1" as="geometry">
            <mxPoint x="90" y="350" as="sourcePoint" />
            <mxPoint x="310" y="351" as="targetPoint" />
          </mxGeometry>
        </mxCell>
        <mxCell id="3hEr-zZ0BZnLmkEYATAe-10" value="" style="endArrow=none;dashed=1;html=1;dashPattern=1 3;strokeWidth=4;rounded=0;" parent="1" edge="1">
          <mxGeometry width="50" height="50" relative="1" as="geometry">
            <mxPoint x="311.01" y="601.63" as="sourcePoint" />
            <mxPoint x="310.002749769077" y="159.9998845384689" as="targetPoint" />
          </mxGeometry>
        </mxCell>
        <mxCell id="3hEr-zZ0BZnLmkEYATAe-12" style="edgeStyle=orthogonalEdgeStyle;rounded=0;orthogonalLoop=1;jettySize=auto;html=1;endArrow=none;endFill=0;" parent="1" edge="1">
          <mxGeometry relative="1" as="geometry">
            <mxPoint x="90" y="390" as="targetPoint" />
            <mxPoint x="90.5" y="280" as="sourcePoint" />
          </mxGeometry>
        </mxCell>
        <mxCell id="3hEr-zZ0BZnLmkEYATAe-13" value="" style="html=1;verticalLabelPosition=bottom;align=center;labelBackgroundColor=#ffffff;verticalAlign=top;strokeWidth=2;strokeColor=#0080F0;shadow=0;dashed=0;shape=mxgraph.ios7.icons.wifi;pointerEvents=1" parent="1" vertex="1">
          <mxGeometry x="200.00000000000003" y="280" width="29.7" height="21" as="geometry" />
        </mxCell>
        <mxCell id="HLWnp91eWEu1Pvxv9HFf-2" value="HTTPS Nabu Casa cloud webhook" style="text;html=1;align=center;verticalAlign=middle;resizable=0;points=[];autosize=1;strokeColor=none;fillColor=none;" parent="1" vertex="1">
          <mxGeometry x="90" y="320" width="210" height="30" as="geometry" />
        </mxCell>
        <mxCell id="HLWnp91eWEu1Pvxv9HFf-3" style="edgeStyle=orthogonalEdgeStyle;rounded=0;orthogonalLoop=1;jettySize=auto;html=1;dashed=1;strokeWidth=2;" parent="1" edge="1">
          <mxGeometry relative="1" as="geometry">
            <mxPoint x="314" y="400" as="sourcePoint" />
            <mxPoint x="514" y="401" as="targetPoint" />
          </mxGeometry>
        </mxCell>
        <mxCell id="HLWnp91eWEu1Pvxv9HFf-4" value="Nabu Casa cloud" style="text;html=1;align=center;verticalAlign=middle;resizable=0;points=[];autosize=1;strokeColor=none;fillColor=none;" parent="1" vertex="1">
          <mxGeometry x="320" y="172" width="120" height="30" as="geometry" />
        </mxCell>
        <mxCell id="HLWnp91eWEu1Pvxv9HFf-5" value="Web-hook-trigger&lt;br&gt;automation" style="text;html=1;align=center;verticalAlign=middle;resizable=0;points=[];autosize=1;strokeColor=none;fillColor=none;" parent="1" vertex="1">
          <mxGeometry x="510" y="420" width="120" height="40" as="geometry" />
        </mxCell>
        <mxCell id="HLWnp91eWEu1Pvxv9HFf-6" value="" style="endArrow=none;dashed=1;html=1;dashPattern=1 3;strokeWidth=4;rounded=0;" parent="1" edge="1">
          <mxGeometry width="50" height="50" relative="1" as="geometry">
            <mxPoint x="521" y="600" as="sourcePoint" />
            <mxPoint x="520.992749769077" y="349.9998845384689" as="targetPoint" />
          </mxGeometry>
        </mxCell>
        <mxCell id="HLWnp91eWEu1Pvxv9HFf-7" value="Home assistant VPN" style="text;html=1;align=center;verticalAlign=middle;resizable=0;points=[];autosize=1;strokeColor=none;fillColor=none;" parent="1" vertex="1">
          <mxGeometry x="335" y="368" width="130" height="30" as="geometry" />
        </mxCell>
        <mxCell id="HLWnp91eWEu1Pvxv9HFf-8" value="Publish MQTT to local &lt;br&gt;MQTT brooker" style="text;html=1;align=center;verticalAlign=middle;resizable=0;points=[];autosize=1;strokeColor=none;fillColor=none;" parent="1" vertex="1">
          <mxGeometry x="520" y="475" width="140" height="40" as="geometry" />
        </mxCell>
        <mxCell id="HLWnp91eWEu1Pvxv9HFf-9" value="" style="endArrow=none;dashed=1;html=1;dashPattern=1 3;strokeWidth=4;rounded=0;" parent="1" edge="1">
          <mxGeometry width="50" height="50" relative="1" as="geometry">
            <mxPoint x="680.01" y="606.41" as="sourcePoint" />
            <mxPoint x="680.002749769077" y="356.40988453846893" as="targetPoint" />
          </mxGeometry>
        </mxCell>
        <mxCell id="HLWnp91eWEu1Pvxv9HFf-10" style="edgeStyle=orthogonalEdgeStyle;rounded=0;orthogonalLoop=1;jettySize=auto;html=1;dashed=1;strokeWidth=2;" parent="1" edge="1">
          <mxGeometry relative="1" as="geometry">
            <mxPoint x="520" y="520" as="sourcePoint" />
            <mxPoint x="680" y="521" as="targetPoint" />
          </mxGeometry>
        </mxCell>
        <mxCell id="HLWnp91eWEu1Pvxv9HFf-11" value="" style="shape=image;verticalLabelPosition=bottom;labelBackgroundColor=default;verticalAlign=top;aspect=fixed;imageAspect=0;image=data:image/png,iVBORw0KGgoAAAANSUhEUgAAAMwAAADACAMAAAB/Pny7AAAAolBMVEX///9mAGZiAGJfAF+lgaVRAFFZAFlXAFfPts+WYpakeaRqAGr9/P1uEW5cAFyfbZ/TvtNvLm/bz9vEsMSrgauzj7O+ob5rI2vIr8hqGmqsjKx+Mn749Pj07vTs4ezdzd1zK3N8RXy4mbiPWI+FSIWBPoGXbpeSY5Ln2ed8QHxzNnNLAEt3JneJT4lhEGGAVYCDUoO/mb9wQXBgGWBAAEBxO3EXP0ATAAAOUElEQVR4nO2da3uiuhaAJRFQi4itIlguFquiVcc93f3/f+2gtpBkrQCdbZB5TteXc3YHMC+5rawbnc6fiNU7DLVKWUwjq+pJ0YYS2f0Pr17wR837lgSHN2kLWDHMVS+saI/ljqXPIvoqVA6zNuugnIXq+2la0aB4Q6X3m0vVLPGxLsv57RrDrlOOE001KY4ZK4aZyt8kimMP115U+kR3Z0tutgeKYQa1Jgwr1F+7pXMn3hiSO/utg8nesL/xyp4ZDfBVrZUwWbNmy7LxHyQEe2xLYbLJ44/Kpo7nI3NRPQwl6FusFptMSxa2eAdplMN0PzLZ7cazGbnId3D0RSxfCaIXQKMcxgrCMIrS2HGng9Hy9LIYErlOAlpnduVjLTiINMphOAmj2HMn69NCs2sSmYuetHOCkfCQZmEuYgWp4843vm3X4aGkm8qeFHb5YXsHmIsEWR91F6ZRzUPoQdo5wZyjuRfMWcLUyXhkugnTxllXtqwFU5bmnjDnxkTO6MGsUt8IOciGWtBlbr4zTCZW6K10ibLF4Mj0G2tUdO39Yc6SjmjFakD0iezmft437YDJ5s9kdywfbeZSNnEOdstgMpzkhOlbhRirR9xKEK7stsFkjXI38lNkJvbOwWnSrd06mEzfck+0BIfuPJzGuWqd7YLJXrK7LdlI6SJBaawnn7QQpmM9dol8HyV+F78raSVMtg/Gr/Jth9ARftPAbiVM9p6nhnzmGHiLoxNVD+MknufEUVhlrOQlepZ3jtFH5028JcphRrpp6vqbbj9slxPvMQqCSpPyRaa+dB2wB+iL8fzmDBqE2IZpPKwGXtZPNYDig/SMTbsozURv2jqTIZHFIOuiapt/dyabOWSO0Vi/DgoAWMFMTRnQwzJxqniCp7GEhpAEo4nwle52IrObUWO4mVcYya14KdlyiO9ib0J6wL6RlBgBKR2vk/LfjzYShwiZ9RQ3HJNSiyah/nZQ6ocIp7qMRrX/ApEq8ywh5WZly32T9OuwAbefIDVszcR8LhtsPYmJjT43BvEltQznVO+XLG2O5NBmN66K1fQC2KTE2+ys8IcckyZJOvVdGsReedKF2tmiTyE7p0mU7/hnKF1L2+Ys0JFGl+Xuz1vLd5xN9iKRdU6MzxsitXXeHSYba2vZMh1r2IPI8ameEn4HmLPNAtVTMnFQMyHdq1ZhWDmfZ0yjvn+JkIFk5HioZmP3G9w7Y8/9ZzpYDm1dr4lkS6zkVoJqNnqpl12RBLE7Wozfa7g1bQ039gVdVIc2m13RCgl7k9PWr+IhJh6iEaFRQPaqaYpCrDQZvQwrRpw+RWnSV+w2022agZVsxK0X5T4MA99Aegvs4Lq410D7lNCZr0odmhR1mlsJFvFFcDNngxKk3kIvwSFrjCZAp82sYR0NESty9yX+P5wmHGIDbd2oVoOLFU01uZWcok10sJOnf4/NBkq6lE8dGzX2jZC9k27uvAZ8Se9DaiXXu8juae2x6Ky7Ls+MRCOpXVnH2uhgMNJIgcbFlXaOjqxTqFpjy7Tt5iXeSFQc8oC88egVCZzbtmTWZBLNJSYY+gIbaXnIhUZ7uqYTuBIrOUGWtHANBxpdqN9rgrCOM6Zzzn9Aoi7P4iOLgDODo9JUb32e/P79+3QYJU71kI7xviFjuAhYXWTWPKhoPyeX6FlC6PHd77sVQCk+b2xEr3F2sGt05aZ0xqBBTX04ScuO7BFOYyChDIihhCg3PvM/Sgxz5ZU4nnEaMoTvPEW6xmzc2UTNhySS4uDzxtjAlWoAL7SlMWk3Emw4GMO5JNoqmwwojQm14sgHV90nF4AY40SyGFgepqgRH14+AmeheyU2ULKUhFsFCXaHAfN8UmAUvF+WBp1J0jDCNWpQgpMbaGh3TDkhMvdKekJobJgdF4untLvmz5D3f9B7eoiyoh3B8hzshcvunAxkjFDtsIvcRF/BZZ7QNffObLLRw7v1gtwF7Umh4LO5N4yEJkZMUHQjXhV0+cvuDpPt7hjNADpjkPUi5leK+8PgNCFiVKbAViOcn1sAk9Eg26cHBxp5ERe0YMqdONsAg6bxhgfEBAPOnA6XnN8KGM1GQi0Q6xi01/L7aztgsHircAO6hvhgnHXbB5NNB3jCQboGHjk5o1NLYDQCp00Eu4a+igtfzEbVtAZmAQ1FHnKuE7caTsVuCwzmlEhBimw2zsTh2G1hz2QvHRzWrDnMXn4V1zNv1kYYOB8w3zIVL0oZnbQ9MJoNIhlC6I0FwSXBr1bCkD3omjm4iALVh1kBWgSjmWDWOKBmDiHiNUlhcmoTDNmL4yw4gbt10bDhjFsJg1i+4fnZFNW46CO/plUwMFC59159zUs7YTQK1rOxeAnRxF9YthQGmpRhTJYurgBFAaV2wUBL3wAom2BiuS2F0UDmBTw9g95zct6WwYCiXimEEZ0wUR6C1jIYYyrcHoBLqDgUg7bCwOaI9mSNgvjSofzuu8JoC3HSwMiSvfgTz1+XtA1mLCqbAzBpfPFIc2grzLt4LnaBnRZ4BPuNwUy+BwPiE3sA5iiqmvleJEmvv530vlOtEcm8ckAQI/A6Tb5GovJo7UCSLyYRIq7NwNenHcWROP3sPKIpT9hIa1RjYmBE+xn0KUOYa89QLGrw5jTPb3p9EbfE9F/xijdxWk0vl7ztG0mptaJefQHWZA9cAgw017+2JxDwR37kR37kR37kR37kR37kR/6fJIzi2HHitGauzU1kzoikQCcngcPcIJ7uP8WK3dHh5WM3Ho93Hx8vfay01uO8W1Om15PboPrKzgNhpDrHy3JpcTkFXqKzxJPxkeaV3C//5+gvxdATZ0xJLaHb60nVqL60w4aq0UXlmTt+YCwzBCYeWd5eR/JnCdVtvh4AmjmP2kM+gwWrSiZnwsEgcSyCBHPWsgJggngvzTonpsaGOPTkn525EQzxK3JvHvnf4WGsdFReQdtcOTmOehjNnJfOGmvCPZKHCZ5WVeY028+/2NAAjEZKuyblG8DBhIm0EiNzB12nzcEgSS2MjPhXz8IE3XrfoaDLtDEYzS7JVRS9kSyM5PsxUOxt+EcwNSzCEKbEISJWjWRgpuDFEdvUdR0pg2RfcjN6M9NghBuhNvsv+scVRjek19PPPwIYzZB2DTB4FzCil4KY5r6f9BzHHayILryDi88lnXCyZOMyN9w/fWkA3B/7TK4dWU2vf4Qwcl8V8EXmMKGwMHBVzQJnKRQGP0Kni8O8KL1G5ryzY34ud0jBL8m9S9QAB0Tw5DBLDoYsxADA+MQNNvIirpnWEwvzWAOGicApgyFr/P4lmLFfML0Z+1e6gct7OOfLsYjJGepgkJTwDhbC9wXDV8HBa8tYCXfjVuh9ZTBZcxANLUCyEz9h2NBdjZwkI55b76hQ0FghDNY1mJZ7hQm4lGQkAfvzbWzZBUuYNepgsLLWIZJE/QnDxe6XJFZzfln6pBgmbxNZgK5xivTkoulXGJfl00vOEH1mv7H5MoE3h/ELpRcUIWLKddBVvl9dYEK2ZExp7diYaTDhSzLeGoZ8JPm0IA9C1zhFvxym+XMuMI/sXABRvaxw8QMm9ws375lxz80XHIMfBeE6/xfqufnidYFxHpjHokaBvMXsgmZyh9qbw8x6KfPquEWpSBglr5HLD7MnZpRR/GMFeQsYGJur1HB7GM+a5zDGmmlWUKjLJOnwMEHCve7SFjwy1hDyrBiGXWUp0zXFzKWnVIAJ2WDYiuiQiN2rCLu5qoCxihwKm/m6wCqf4lnHiDBsGlmFvstlx5qqYdg8nCLYuFDPyblkFA8TsScR+VnoIiF7LVeERQlMp5v/Z1E8veiYS+hYCQxIUhJg2G3TZJusBiYqDj3GZ9f0ihZcqlrdCEZXD9OZMFv99XeKjrmm+Aow/fYOs05Q6PPHi7HbLQKmrxG7/2UBYFUA5QtAJkkx3ZfBOVU8b8BnyP5tlmaifGk+S1Dox+cvdRQnL/psITDf2zSZFijfNK+NLXSXdcAcML/KwInqDKujfEOdGTUCE+YznuxiJx8Z9DVAYbhiBKWV4gJW0TQUK5pfUZ9eoYl1i+T8XGcXYFLuCFD60exndjFTewTIYcIim3qWz5hCyxVguDKLbTmcFTDc2M6bmb9JAabjspYOs+TYzJqq7bXaY3MBg9QgMIofF2F4g4bcJZKyhYxtPpJZIQxzSv66flgMcRGGL3oBi0l9CevapVu+wSphQLlRyhRbF2H4CllkhWsB1qBRIyAD0+n5gimcceMDmGDNWcX7aCHzhH092ZovoKqECdc8DGuwBTAdhzOck34Mts5oztUuBMVnlcJ0eguuY9hNAcJY/KikW6HuadDjyx2TrXKXBgcTbNh5wJUfgDCdkB+VlP0SnXX+/IHgbAIpwmphuKHDF/dBYIAbkJLdr/VoMp0ONr9efMGtaY/AMFQM0ylUf8InwGAwHfDtFUIyBJLHAzFiPENtVDVM4Y4VbK4ojNWVfPEPiP2A1AxUDZMdBa4vVnSnojAda14vdcteYfUPlcN0nM2vTEYgvx2FyXaSGuEm2hGpn9sIjEQkMB3L21ZGnFDJp9pbB5NNs65fMdbIFg+dbCFMJ8x2x/KAHSoqMu2FyfSW3lorjaCzwe5/hWHewZ/DkK94HPO9JkxC81sM5J/Dx+TVYL4ZRqjBjT17hyii1tO/RZDPvzVgeu9FHFHxOeRpLhXfjs0lLm7BQ4GtMOp1XzXzmlBKV4MJV4PV3iLThn3opEbsTJowNyj/eoBlWUEURWH2vx3L5RXRF9U/rlamfHzYsvlvzd5QAr5CE5n81TR8YXDJ57P/GolO3LkZ/3z2XyPpjqeRVKr/S+SR+8oUrbtHt1Rin7M2teAbc/9F0oNuFokmttxe+FeIlbqj1fOX7J9v/BWj/wFMJCHQpQREPwAAAABJRU5ErkJggg==;" parent="1" vertex="1">
          <mxGeometry x="630" y="267" width="95" height="89.41" as="geometry" />
        </mxCell>
        <mxCell id="N8AzLmB9Wt8bqBrzWzZS-1" value="Web-hook" style="text;html=1;align=center;verticalAlign=middle;resizable=0;points=[];autosize=1;strokeColor=none;fillColor=none;" parent="1" vertex="1">
          <mxGeometry x="320" y="338" width="80" height="30" as="geometry" />
        </mxCell>
      </root>
    </mxGraphModel>
  </diagram>
</mxfile>
